<mxfile host="app.diagrams.net" modified="2023-06-10T06:17:39.630Z" agent="Mozilla/5.0 (Windows NT 10.0; Win64; x64) AppleWebKit/537.36 (KHTML, like Gecko) Chrome/114.0.0.0 Safari/537.36" etag="LvEo1oBuCtGjkHDGeFIi" version="21.3.8" type="github">
  <diagram name="Page-1" id="LsozCzn02lkOQuhMNvr9">
    <mxGraphModel dx="1195" dy="637" grid="1" gridSize="10" guides="1" tooltips="1" connect="1" arrows="1" fold="1" page="1" pageScale="1" pageWidth="850" pageHeight="1100" math="0" shadow="0">
      <root>
        <mxCell id="0" />
        <mxCell id="1" parent="0" />
        <mxCell id="jXO-OSJdq2ioLEKXHTDI-1" value="Virtual Machine Name" style="rounded=1;whiteSpace=wrap;html=1;fontStyle=1" vertex="1" parent="1">
          <mxGeometry x="160" y="200" width="130" height="40" as="geometry" />
        </mxCell>
        <mxCell id="jXO-OSJdq2ioLEKXHTDI-2" value="Virtual Machine Role" style="rounded=1;whiteSpace=wrap;html=1;fontStyle=1" vertex="1" parent="1">
          <mxGeometry x="290" y="200" width="130" height="40" as="geometry" />
        </mxCell>
        <mxCell id="jXO-OSJdq2ioLEKXHTDI-3" value="&lt;span&gt;Operating System&lt;/span&gt;" style="rounded=1;whiteSpace=wrap;html=1;fontStyle=1" vertex="1" parent="1">
          <mxGeometry x="420" y="200" width="130" height="40" as="geometry" />
        </mxCell>
        <mxCell id="jXO-OSJdq2ioLEKXHTDI-4" value="RAM Capacity" style="rounded=1;whiteSpace=wrap;html=1;fontStyle=1" vertex="1" parent="1">
          <mxGeometry x="550" y="200" width="130" height="40" as="geometry" />
        </mxCell>
        <mxCell id="jXO-OSJdq2ioLEKXHTDI-5" value="" style="rounded=0;whiteSpace=wrap;html=1;" vertex="1" parent="1">
          <mxGeometry x="160" y="240" width="130" height="40" as="geometry" />
        </mxCell>
        <mxCell id="jXO-OSJdq2ioLEKXHTDI-6" value="" style="rounded=0;whiteSpace=wrap;html=1;" vertex="1" parent="1">
          <mxGeometry x="290" y="240" width="130" height="40" as="geometry" />
        </mxCell>
        <mxCell id="jXO-OSJdq2ioLEKXHTDI-7" value="" style="rounded=0;whiteSpace=wrap;html=1;" vertex="1" parent="1">
          <mxGeometry x="420" y="240" width="130" height="40" as="geometry" />
        </mxCell>
        <mxCell id="jXO-OSJdq2ioLEKXHTDI-8" value="" style="rounded=0;whiteSpace=wrap;html=1;" vertex="1" parent="1">
          <mxGeometry x="550" y="240" width="130" height="40" as="geometry" />
        </mxCell>
        <mxCell id="jXO-OSJdq2ioLEKXHTDI-9" value="" style="rounded=0;whiteSpace=wrap;html=1;" vertex="1" parent="1">
          <mxGeometry x="160" y="280" width="130" height="40" as="geometry" />
        </mxCell>
        <mxCell id="jXO-OSJdq2ioLEKXHTDI-10" value="" style="rounded=0;whiteSpace=wrap;html=1;" vertex="1" parent="1">
          <mxGeometry x="290" y="280" width="130" height="40" as="geometry" />
        </mxCell>
        <mxCell id="jXO-OSJdq2ioLEKXHTDI-11" value="" style="rounded=0;whiteSpace=wrap;html=1;" vertex="1" parent="1">
          <mxGeometry x="420" y="280" width="130" height="40" as="geometry" />
        </mxCell>
        <mxCell id="jXO-OSJdq2ioLEKXHTDI-12" value="" style="rounded=0;whiteSpace=wrap;html=1;" vertex="1" parent="1">
          <mxGeometry x="550" y="280" width="130" height="40" as="geometry" />
        </mxCell>
        <mxCell id="jXO-OSJdq2ioLEKXHTDI-13" value="" style="rounded=0;whiteSpace=wrap;html=1;" vertex="1" parent="1">
          <mxGeometry x="160" y="320" width="130" height="40" as="geometry" />
        </mxCell>
        <mxCell id="jXO-OSJdq2ioLEKXHTDI-14" value="" style="rounded=0;whiteSpace=wrap;html=1;" vertex="1" parent="1">
          <mxGeometry x="290" y="320" width="130" height="40" as="geometry" />
        </mxCell>
        <mxCell id="jXO-OSJdq2ioLEKXHTDI-15" value="" style="rounded=0;whiteSpace=wrap;html=1;" vertex="1" parent="1">
          <mxGeometry x="420" y="320" width="130" height="40" as="geometry" />
        </mxCell>
        <mxCell id="jXO-OSJdq2ioLEKXHTDI-16" value="" style="rounded=0;whiteSpace=wrap;html=1;" vertex="1" parent="1">
          <mxGeometry x="550" y="320" width="130" height="40" as="geometry" />
        </mxCell>
        <mxCell id="jXO-OSJdq2ioLEKXHTDI-17" value="" style="rounded=0;whiteSpace=wrap;html=1;" vertex="1" parent="1">
          <mxGeometry x="160" y="360" width="130" height="40" as="geometry" />
        </mxCell>
        <mxCell id="jXO-OSJdq2ioLEKXHTDI-18" value="" style="rounded=0;whiteSpace=wrap;html=1;" vertex="1" parent="1">
          <mxGeometry x="290" y="360" width="130" height="40" as="geometry" />
        </mxCell>
        <mxCell id="jXO-OSJdq2ioLEKXHTDI-19" value="" style="rounded=0;whiteSpace=wrap;html=1;" vertex="1" parent="1">
          <mxGeometry x="420" y="360" width="130" height="40" as="geometry" />
        </mxCell>
        <mxCell id="jXO-OSJdq2ioLEKXHTDI-20" value="" style="rounded=0;whiteSpace=wrap;html=1;" vertex="1" parent="1">
          <mxGeometry x="550" y="360" width="130" height="40" as="geometry" />
        </mxCell>
        <mxCell id="jXO-OSJdq2ioLEKXHTDI-21" value="" style="rounded=0;whiteSpace=wrap;html=1;" vertex="1" parent="1">
          <mxGeometry x="160" y="400" width="130" height="40" as="geometry" />
        </mxCell>
        <mxCell id="jXO-OSJdq2ioLEKXHTDI-22" value="" style="rounded=0;whiteSpace=wrap;html=1;" vertex="1" parent="1">
          <mxGeometry x="290" y="400" width="130" height="40" as="geometry" />
        </mxCell>
        <mxCell id="jXO-OSJdq2ioLEKXHTDI-23" value="" style="rounded=0;whiteSpace=wrap;html=1;" vertex="1" parent="1">
          <mxGeometry x="420" y="400" width="130" height="40" as="geometry" />
        </mxCell>
        <mxCell id="jXO-OSJdq2ioLEKXHTDI-24" value="" style="rounded=0;whiteSpace=wrap;html=1;" vertex="1" parent="1">
          <mxGeometry x="550" y="400" width="130" height="40" as="geometry" />
        </mxCell>
        <mxCell id="jXO-OSJdq2ioLEKXHTDI-25" value="" style="rounded=0;whiteSpace=wrap;html=1;" vertex="1" parent="1">
          <mxGeometry x="160" y="440" width="130" height="40" as="geometry" />
        </mxCell>
        <mxCell id="jXO-OSJdq2ioLEKXHTDI-26" value="" style="rounded=0;whiteSpace=wrap;html=1;" vertex="1" parent="1">
          <mxGeometry x="290" y="440" width="130" height="40" as="geometry" />
        </mxCell>
        <mxCell id="jXO-OSJdq2ioLEKXHTDI-27" value="" style="rounded=0;whiteSpace=wrap;html=1;" vertex="1" parent="1">
          <mxGeometry x="420" y="440" width="130" height="40" as="geometry" />
        </mxCell>
        <mxCell id="jXO-OSJdq2ioLEKXHTDI-28" value="" style="rounded=0;whiteSpace=wrap;html=1;" vertex="1" parent="1">
          <mxGeometry x="550" y="440" width="130" height="40" as="geometry" />
        </mxCell>
        <mxCell id="jXO-OSJdq2ioLEKXHTDI-30" value="" style="rounded=1;whiteSpace=wrap;html=1;" vertex="1" parent="1">
          <mxGeometry x="100" y="240" width="60" height="40" as="geometry" />
        </mxCell>
        <mxCell id="jXO-OSJdq2ioLEKXHTDI-31" value="" style="rounded=1;whiteSpace=wrap;html=1;" vertex="1" parent="1">
          <mxGeometry x="100" y="280" width="60" height="40" as="geometry" />
        </mxCell>
        <mxCell id="jXO-OSJdq2ioLEKXHTDI-32" value="" style="rounded=1;whiteSpace=wrap;html=1;" vertex="1" parent="1">
          <mxGeometry x="100" y="320" width="60" height="40" as="geometry" />
        </mxCell>
        <mxCell id="jXO-OSJdq2ioLEKXHTDI-33" value="" style="rounded=1;whiteSpace=wrap;html=1;" vertex="1" parent="1">
          <mxGeometry x="100" y="360" width="60" height="40" as="geometry" />
        </mxCell>
        <mxCell id="jXO-OSJdq2ioLEKXHTDI-34" value="" style="rounded=1;whiteSpace=wrap;html=1;" vertex="1" parent="1">
          <mxGeometry x="100" y="400" width="60" height="40" as="geometry" />
        </mxCell>
        <mxCell id="jXO-OSJdq2ioLEKXHTDI-35" value="" style="rounded=1;whiteSpace=wrap;html=1;" vertex="1" parent="1">
          <mxGeometry x="100" y="440" width="60" height="40" as="geometry" />
        </mxCell>
        <mxCell id="jXO-OSJdq2ioLEKXHTDI-37" value="" style="shape=image;verticalLabelPosition=bottom;labelBackgroundColor=default;verticalAlign=top;aspect=fixed;imageAspect=0;image=data:image/png,iVBORw0KGgoAAAANSUhEUgAAA+gAAAPoCAYAAABNo9TkAAAACXBIWXMAAAsSAAALEgHS3X78AAAgAElEQVR4nOzde5Dk+1nf9/fz/f265z4799vuXPd2bkJIQgh0QUISSLJkChCI5MgYiBAIiAMhxkVBjJPCdhIXcQUSMEn+CIXjpCoVJ44Tl8sVl/8lVYGKBKaM4whdztG57p69zc7OTHf/vvmje3Yu23u0Z8/smd/uvl9Vrd6d2en59Wh3pj/neb7PE0iSJEmSpHsXAZEOvYViIGhtBX/h7xW86weX2H3pbUTjHOQN4DTt6ruYrd7Pf/qxP+PKSwGRIR962PKtfA6SJEmSJD0UIkHROPQWikZiZzPxoZ8p+PjfmuLV59coiouQnybiPOQ1iPO0Lg8RjdsfBnkXognxuhncgC5JkiRJenxFQGOYXjU7iFSws5lY+1DBs//zKbi8DuksEeuQLwBvo2pf4MoLQ5RFBqIbwrsf/mYY0CVJkiRJj77Bse59JghKiILWVsHcE03+yh+sc/OlJyiaG92W9LRBbl2g9eJitxW9X/IO+r/9/hnQJUmSJEmPhuEpiALIBd282yDnJqko+Q/+r2lysUHOTxE8AbEG+Sy5WuXKVzIRQWt7/7EiKiJ1Djz60TL5sYZzMKBLkiRJkh4KAWQYGoNiEHKGvRCeyiZbV5r89D+eYPLsGu3tjW4A50ngKeA8t270e9AMdCjKvSr5wfAdQOr3QQ+KAV2SJEmSVBO9ED5wCgZPAW26w9VoUjabXPlGgx/93QnOf2qNG1fWScVadzBbfoIonmHrWsHmq/QpbndIxcFW9YNhvHjgT+seGdAlSZIkSW+9gRGYWIJWG4IEMUjRGOH68wN86NeG+eAvzrD9jbNE8TSRN4AVIp1l6+o0r3w1jqw5g24IbxNlrUP46zGgS5IkSZLuTSqgfxU6qDrddvGDygbMbUA7IGgCg6RiiM3Lw7zz+4f5zN+b4pWXViiLFYhz3Up4usDOtWle+2L03UoWqUPR6NeS/lCE8NdjQJckSZIk7UuJ7u4x4PVDeL79MZFg8enuhHRihGCI3e0h5teH+Zl/MMWlWKWsViGtQLVOFE+xs7nMl/8IijJ658n3HrYiNVoUg7n3KVLvtnctD30QvxsDuiRJkiQ9biJBRL+p5EFVAVWHbjrO++/KsPAUFE3IeRgYBYbJ1RCN4VG+8E9maLUvkIrzkFeJtEJ7d4WvfGOCxJFVZTkTRYvmSL69f3w/iAM0D+b/x4UBXZIkSZIeRRH0zmnfGcRzBVVVcTCER4JcwfwTMDQJVbsJMQKMk4pxtm+M8bl/OMXI/DLt3XME5yGWIS+T8zSvPdfvGjo0B3YOfP69IB5AA/Kxryp7mBnQJUmSJOmhFb2W9H4hPNNrSa96b8u3Q/jMWZhcht1bDSKNAqMUjVGuvzzGZ353ltXvXGb7xgoRZ4BzkC8QaZorz8POn3OoGN4N+LuUAwfPhR+8DTzIr8CjxIAuSZIkSXV353C23n3udaOzXw2P6O4IH12C0++CarOAdIrIExSNMa69OMbHfnWCb/3MEtdeXqdorAKnyfk0RbnCtRcbvPgvOTIlvRfCmxnKfiG8+cC/Bo8BA7okSZIk1cV+ED8cxrsh/M7hbM1RWH4vFB3oVqoniGKKW5cmuPgDp/ie/3CGnUvLRDpPsErOSxTlCpuvDvO1P8ykRhw+6507FM0dGkOG8BNgQJckSZKkt9LrT0mv2K+GdxUFfOv3wO4wRDUITBAxQWtrgumLs3z8N+ZINxeJWII4DXmDKNbYvT7Ky3+YiSMhPOdM0dilOVpBPjohPWFL+okxoEuSJEnScXv9Kem3+9I5OiX96b8AxUBJZgbyBFWeYGBwkr/0G/NsjZ4mqiWIJcgLRHGG9q0z3PhXmXz7c+09bCbKFo3RTm8Q28EJ6b1q+OM3Jb3uDOiSJEmSdD8OT0k/GJATucp3nZJ+8SMwtgid3VFgHmKeSJO0d2b59G9OU46uQF6BvACxSK4WeP6FAdKlftfQoRhqH1lVtnc9JeTGg/sC6LgZ0CVJkiTpru55SnovhBeQOxVr7wkWns7s3homYgaYIpWzbL22xCf+4xnmnlxgd2ueiJXeqrJFIoa48jzkO4J4ptnc6cW3o+fCE2Rb0h8RBnRJkiRJKpp7LemHd3XnKui0Mt0BbR0OriqbfSY4/z2ZztVholikG8KnuXl5ju/83GnOfXie7WvzRJoD5npT0ie4+kLw8p8dOIYOHFpV1ndKuiH8MWBAlyRJkvT4KAf6hN+caO8CtNjbGR7RIWc4tQDv/ixsbiZSzACnibTA9tVpzn58nnf96AKtV5aIchGYJec5inKaG682eOFP9qrvB+QWxUBFY9Ap6bqDAV2SJEnSo6VoxpFq+H5VvL3TBtqH/nw5CO/5eRiIgGqqeyY8zrB7c5H5i3N898/Pc+3aFEXMA0vddvRyip2rTV7pOyW96k5JH869KekHz6h7Jlx3ZUCXJEmS9PApGkEU0ZtQfuAWic5OJucW+3vD933wr0KZJsnMQ54jVws0hpd5z8+fpllNAdMQM8AiEXO0tof42pegKCEf2heeSeUujUOryjhw75R0vWEGdEmSJEn1lApIjXQkhNMN4buQW4dDeCq628ve+1MwfrpBZ3cFYg2YBxbI1TIf/MVZijRPZhryFKRpcvsUN16AHfY/xW2RaQ53Drzj4H2jd23SsTCgS5IkSTo5kboD2g63gncr4VUb2tttDoXwEqo2vPMzsPreBjubC0SsQqwTxRK7myt8+1+eYXT+FJ3WLDALMQV5HAKuPc+dIRxIZefAm4+GcXOT3hL+RZMkSZL0gAWUzd4vDk5JjyB3gvZ25uCAtr1K+Nn3w7f+SMHWlTlScRpYIBXLbN84y9OfWmTh6Ql2b00QMQ0xC3maSInNV+HyV49OSQfokMrMoWr87fviQX4FpHthQJckSZJ0PO5cVba3pzto78ChKempQ65g5mn4rl+GzosTpOYG3bPfZ9i9ucSZd66z/r4ldm6OEukUMN4N4eUAW6/B5a90K/CHVaRUUZQHA7ghXA8FA7okSZKkN6ZsRq88ffjW3gm6E9IPD2cbmYRnfwdu3Eok1smcI7FGe+c0p9aWufCJJTrXJ4higm4IHyeKEXZuBJe+DFFyZOBaJlKHotEvhB8c2CY9VAzokiRJku70elPS2zsdyK07PuZ7fxMmxoD2MsQy5BWqzjkGRs7y5CeW2GmNETEGnIJ8ikgjtLcLrv0butHkyNTziA5Fc68lHQ6HcLOMHjn+pZYkSZIeV6mEVL6BKeklVO3gU/955tTcIp3dVWAZYgWqM5z93os0m5OQx4ARYBQ4Re40uPxir6595Fx4REVqVtwZwnvt8f0mukmPJgO6JEmS9CiLRK8V/M5KeNWK3pT09u0/XzSg0wo+/IuZ9e8a5daNs6S4ALFGxBnaO+fZ+K4ZmoOj5DwCeRhiBPIQ21fh5sGC920VZXm3EB6YSyTAfwiSJEnSIyCgGIC4XQnvVZ73pqTvVHRDeG9Keq8S/o4fzrznc0NsvrpOKlYgzhHpIq1b5znzjjnG5odpt0YJRiGGIQ8REWxdg9ZN7gjiqegcOP1tCJfeIP+RSJIkSQ+LcgDumJBOkHPQ2Yb9AW0VkSBXsPFt8H1/a4BLl89SlqsQywQbtHefYnp9mcnVEdq7g0QMAcOQR4lUsrMF1185uqosAx1SkYnSVWXSMTOgS5IkSXWSCujfCk5vVVmH29PUogMZxs7AD/0DyJfGiPQ0kc8Dq3Taq4xNbTD9xGnGWo1eCB8EhokYoLUNm5eOrirLdAO+q8qkt5gBXZIkSToJkQ7uDOf2fdWBbit65uBY81TCL/wz2EpjRGcdYgN4kty5SDm4zuzFZdhoQAwTeRAYIKKg3YLNq/32hXcVjTuujP3qvKS3kAFdkiRJelD2QzgcrkIHuYKq6rajw965cPjC78Dgt47R2lmHWIfcDeLwFKfWVxiPJuQm0AQGgJJcwc7lAw/f5zok1Z4BXZIkSXozIvYC8MEd3d3fd0N4xX5FHIomdHaDH/y7mfUPrrOz+QwRZyHWyZ1VJpeeIQ1OkKsG3dfrjd4NdrZe70KO/7lJeksZ0CVJkqRvKiAdCuH7YTxnqDrdc9t7Q9S6q8rgQ/9e4r0/O8/1V56kKJ6COAeskNtPMjIzSznYYGiipPu6vAQSrRaw+dY+PUm1YECXJEmSvqm8dzY8335DKqDqVDz1Cfih357g6gsXKMo1iIvAM+TqKQbGliiaTSZOF+yH8ICAzi60tk/m6UiqJQO6JEmSdDcRkDPMPwl/5V8M8fKXn6AxeBFYh7xO5gJl80k67TFGZ6E74Tz17rst7oZwSffIgC5JkiQBNAbhV/9ogBvtZcjPEPlib0DbBpHOcmvzNGO3Q/j+LvKcodM+ySuX9IgwoEuSJOnx0G1Jhx/95yVnNs6Qt8/2VpU9A/lpyGfZLVcZKPtMW8vdM+WS9AAZ0CVJkvTw6q4x2/992Qx2bwWf+y8KVn9ggc2ts6S8AZztrSx7GniSvN1b/p0PPtjeOXNJOhEGdEmSJNVbKqEx0D0L3j3fXVI0C25dDT7164O85/NnuXHpbRTFuW4IZ52q8xRbN8c4tP4793t0SaoNA7okSZJOXiRoDu2FcIBEKgu2rxd827ODfPq3T3P1GxsUxUVIbwPOQTxB1Zpi89VuFd3qt6SHnAFdkiRJb40IGJiEyNAdsNYgUsn2tcTG+wf5yf91gWsvn+2tKluHfJaIb6XdPsOlr2Qi4sA58O7e8UjtXov7Xq386J5ySXpoGNAlSZJ0vEanIScgd0M4NKhaJcOzDX7q/x6luHSBVD4Bsdadkp7OUbXPc/m5JhFHh7FlItoUJeyH7nTg3iAu6ZFhQJckSdIbEECGwanuuXAqIApggIgBWrea/LU/GIKJ01Q7G2SeIvITEOvkap1bXx+nk/o9boeibHNnBTzwNaukx4Tf7CRJktRHL4gPT0FzBHJVAk2KRoPNlwf59N8f5uL7FqlurPcGs12E/CSwzua1KXiJPsXtTGrcLYQXb8GTkqRaM6BLkiQ9tnohfOgUjM5Bp50IBiEGKRqDXHtugB/4r6Z5+6cvcPPSOVJaAdaIdJHtK0tsfi3BHdXwTCrakPqFcPD1pyTdld8gJUmSHjapgP5V6L1J5hVHd4o1R2D2HLTbBcEwMEpqDHPjpUHe/4UxPvor81x7+RxF8QSkDcjLRLHC1uUBXv6X3Snrt+WKNNAmNXLv8wb758FtSZek++Q3T0mSpDq69xC+H8RTCUtvg04VBEPAEJGGuHV1lPMfGuPZ31vg2kurFMUGpCeAs6S0zK3rw3zjTzKpiAMPlyG3KZrbNIZTb+DbwTDefJBPX5IeRwZ0SZKkkxIJIt5YCAdYeBeUGWAIGAGGae+OML4wwk/+oyVu3VglpWWIFcirRLpIa3uS577YL4R3SOUOzWF6o9dhv2+9BBpHP70k6cEwoEuSJD1o3SAOR3d15wqqqrvPey8FR0DOcOYZKMeg6gQwDnkcYoTcGeOz/3SCEVYhn+uF8GVIK1St07z8/xbE0eFsuSKKvRB+sBK+N5ytNIRL0skzoEuSJB2HiL1z2kd3dQe5ylRVRTeId/9crmDqAkycAXYLiBHIoxTlKTYvT/Dj//0Ep56YZ2fzDHCO4BywDKxw7Tm41i9QR5vG4A6HA/jebcAQLkn1ZkCXJEl6I+48G96rhueg6nTYT8Gd20F8+izMP1HQ2hoh0jipMcbNl8f44N+Y5plPLdG5dho4A5yGvEYqL3Dl+ZKX/pQ7q+F0KAdapDsGsx2ohkuSHkZ+A5ckSTrq7gPajobwfLslfXQOVt8Dre0GEVMQk6RynM2XTvHen5vlO35ijc1XVkjlaeA0UZ5h6+VpLn2pz6qyXFEM7NAY3Pu8B4N4AgYf2HOXJJ0YA7okSXo8vf6U9L1z4XCwL7w5Ak9+DFo7iYhJiAkizbJ9bYpzH5zkY782y41LK6RynYgVcl6iKGbZulzw/B9BlBzM9qRmi3J4tzec7ei6soEH+OwlSTVkQJckSY+ubz4lvdN7234Ij4B3fB+0C7qD2ZiEmKS9M8fkmVl+8LdmuXV9iVQsAqeBs0RaZPdmg+f+n+6qs0NnvXOb1NimMbK3qgwOTUnPjWN+1pKkh5QBXZIkPdxeL4R3p6QfXlW2dy78wvfD6ChUrWGCOchTZKZJMcmzv7XCTmMB8iKwACwSsUK7NcKLfwpRcCSE96akj+CUdEnS/TKgS5Kkh0MkKJpxOABHULVSryW9xV5beiq6FfKnPwqTF2Bna4hIU8A8KS2wc32Gj/6dOaZmZ+jsnCbyCjAHzAOTvPgcxB2BOhOxQ6PvqrKEU9IlSW+SAV2SJNVHBBQDcWcAjkTuBO3tFntt6SlBVcH622Dt/XCzPUDKU8AMqZzn5uVFPvoL8yy+e4bt67NEzEMsQbVMFNNcfy64/Br7RffbOjQG2oc/v6vKJEkPngFdkiS99cqBfuE3yDnR3u7QrYZ37bWkz56Ht31/cOvGNEW5SEqz3Lw2w7s+vsST33eaze05EnPADDkvUpQLXHux5IU/6Yb5Q3JFMbBLWUL/KekOaJMkveUM6JIk6cEom/SWeB/d1R20dw63pBNAhtFZeO/nYfvmMFGsECwRaZadG4usvHuOdz07w9a1RVIxD0yRijluXh3luX8dpKOV8NyhaO7QHILD4ftANVySpPowoEuSpPtXNCBSv/AbtHeBvN+SfvBjPvpL0GGAyPMQ8xDLdHaWOXV6gff9zCTbN2dIaQmYBWaIdIrdm8GL/6q3Hu3gqrKyRXOwc+Aa6N1bCZckPVQM6JIk6fWlAlLZZyhaBJ1dyK0O0GavGr7Xkv6xX4U0EFTtFYhFyItkFigba3zg5xbp5CmCSWAaWCBigvYuXPrzPlPSyUS0j1TD935dAq4qkyQ99AzokiSpNyG9AYdbwbvvqFqJ9s7hEJ5KqNrwwc8H089kbt2cJbEBeYkoFmndWuQDP7dC0Zyi6swCk8AEMEnODa48T5/hbEB0KBqZwwF879e+bpEkPdL8QSdJ0uPkbqvKcjsdORde3Q7hZz8RPP2pTL4xCnEGYoWU1tm+foZ3/fAZxlcn2d2ZIvIM3RA+QcQQ11/uPdQdQTyTyg79Q3jxgL8CkiTVlgFdkqRHUf8p6YlcBe3tNt1q+MFVZcEHvpC52hqkYAXiNJGW2N1cY/k7z3H6nXPk7XFgHJiEPEMUQ2xegstf6Qb/o1LRZn9y29Ew7msQSZKO8IejJEkPq7utKoM7W9IjIGeYWoVP/EcFN68uUzTWiTjN7vYZFtbXOPuBVbZap0gxBoxBHieKU+zeaHD9K+zPXzsgpTZFo18IB19nSJL0hviDU5KkOktNSPe6qqynOQzP/nfQ2p0kWAXOQbFBZ2eF0dkVLnzkFK1bE0RxChgl0hi7201efZE7V5UBkSpSY69X3RAuSdID4g9VSZJOWlFClEfOhe9NSd+Bdt6rhnftTUn/4d+G5vgUubMMsQJ5mVydpxy4wIWPTNKpRghGgVMQY0Q06bTg6vN3TkmPyJTlwaBvS7okSW8xf9hKkvRW2J+SfmRPdwSdFuTtikNT0htQteC7/zYsXxyk2rwAxRrkVYhuED/7gTMUzRFyNQyMAMPAKDknrr/SbWs/LPempEP/argD2iRJOkEGdEmSjlP/KemJqr3Xkr4XwiuKBnRa8N0/C09/OnH90gKRLhD5IpHWae+ssPRtGwyNn4LWMMQwMNS9RcGtq5A3+11Fh6J0VZkkSQ8Zf0hLkvSGBZTNe5ySXkDVgbWPwof+WoIrsxBrEOtEepLWrTUWnlhjfGmSyZ0BiGGCEcjDRGqysxlsvUqfVWUVqaiIO6rggZVwSZIeSgZ0SZLuJhXQvwodtHe6VfA9e+fCl94BP/S7Y2y+8BRFcxlijap1lpG5p5laW4JWE2IAYqgbwqNg9xbcvNKvJb37KVPfH9e9FnlJkvSoMKBLknRQKvanpVedDHR679mfqDYyDT/5vyW2Ny8QxVMEFyFWyO3zNMc2mDw9zKm5ASKaQBOipGoltl+jTyW8q284lyRJjxMDuiRJB1WdqhuiM/zMP4ViZJ3cXgeegvQEudqgKM8zsTxCVXWr4cFeEIeqDdvX7l4NlyRJugsDuiRJAKnoVsw//49/gJGZn6DTeoJTS6d6/eWNA7cCMuxsYjVckiQdJwO6JEld3bL52NK3Mzb3STqtRHvnm/xxSZKk42NAlyTpoM5u0N7prj+TJEl6Czn9VZKkw/I3/yOSJEnHz4AuSZIkSVINGNAlSZIkSaoBz6BLkt68ooQogIDOLuTqpK9IkiTpoWNAlyTdm9SAsknviHYABWWzYOtq4kf/E1j/9CrDszf4rQ+8yHNfrIhkUJckSXoDDOiSpH1FCc1hyAdCeNEouflawft/ucH3/o1pdr66TpRngQ3gLBFrtHbOc+PaOMXYr9DJf6f3aN21ZZIkSbonBnRJepxEguFxqG7v8C6BklSU3LyUePpTg3z29xe58sJZynINYh3yBqR1OjtrXP/TIUiZw0vAM5F2iABoYyiXJEm6LwZ0SXoUDc/2InQGSBANWttNZpcb/OL/PsZr5SpF1Q3e5A2IVYLztFsLXPpKJlKwe2gPeCZSRWq06T7yXkDfu0+9WO7wUUmSpPtkQJekh06vc3xkpnsuvFsObwBNyA2IJl/40ggjnIbWBsRaL4RvkDtP8tK1aYJMK+LIA2ci2hSNvU9y9D5xuHIuSZKkY2RAl6Ta6QXwwWkYGgc6AAUwAAxSlANsXm7y0/9kkukLa7RvrfdC+FqvJX2drVdG2dp7rEMyRdmmfwAHfy5IkiSdGF+ISdJxSAXcLfTmHOSqAvZHmkd0B7GNzsD4ErR3gogBYIiiOcSNb4zwsd8c4p2fmadzZQ1iFejd5zUiLbH5SuLqc3BHIRxIZZswhEuSJD1MfJEmSffq9UJ41Qm6Abzi9pC0XiV8YBRmzkK7XRAMA4MUjSGuvTDIR/7qKB/+pRkuPX+aslwFViCfJYon2X5thtf+JPoc686Q2xQDLYpy7zz40Zvf3yVJkh4yvoCTpINeP4TDfgDfn1SeSph/e7cJvXsWfBgYItIwt64Oc+HDo/zIf7PAtZdWKcqVXhV8hVSssXV1hq/9UZBKDg8/zxWp2aIczpD7BfDGg3j6kiRJOjkGdEmPl0gQcbfW76DqZHqHvjm6Lmzl23pN6lUJjAOjdFojjMwN8yP/0ykGqjNEXoZYgbwKsUzEMq1bYzz3xUwq4tBD5lxRlLs0RzLkgwPYUu/WdGOZJEnS48OALunRE9EN4v3WgeUKqipzqBWd/TPhp78FmmOQqwFgDBgFRqg6o/y7/+c07TRH3l0hc57gHMQKub3E9a/DTr+LyRVR7NAc5i6V8IFHJoR3m/wPfs0lSZL0BhjQJT2cDofww/c506uE74fwSN1wPnkOJleA3QJiGPIYxChFOcrmpXGe/b0pZi6eoXXrDBHLQO8Wy7z859E/ekabYqDT+456NIAnHqUQLkmSpAfGgC6pvr7ZZPSq02E/+ebbIXx6DRa/BbY3ExHjRJ4gNca5+fIp3v8r47z9B+fpXD0DcRro3VfLRDHJtReCV/51v8noHRoDLQ4H771fF/j9VJIkSW+SLyglnaxvPpTtyHnw3mT04UlYfz+0tgsixoFxUjnB5itjvOfHp/jQz81w+dIZynQeWCbnJVK5zNarg1z6UobUpxaeWxQDFY3Bfq3oCRg85mcvSZIk3WZAl/TgpcSBkvQ9hHCgaMLFvwjNAPIwxCTkCSJNsHNjkjPvmOKTf3uWzctLFOUSsAh5iVQusXVlhC//YaZsdNvdb8uZ1NilHK4ODGVzMrokSZJqwYAu6c37ppPRq7yXxDlaCX/7D/aWllVjwCQwSdWZZGB8gk/+lzMMsgB5EWIJ8hLEIhHztG41ef5LvQr80RBe7jIw2i+EOxldkiRJtWVAl3Rv+g9lOzgZ/c794Htnwp/8GIwtQmd3HJgGpoiYpr07zb/1X89TpQVyZwWYBxYh5smdKa5/DW71u5hvOhm90Xu7JEmS9NAwoEvaFwmKZtwZeiOo2kHV7tBtR+8G8VR0C+Pn3wuL74CtmwOkNA15GmKaVEyzdWWOj//1aabPzdK6NUfEAjAHzBMxxaWv9XaDH83T0aEYaN9lMvqjtZ7sUeJ/FpEkSbpvBnTpcVMOQP/Am8hV0N7uAK3bf36vCr7wJDz5Cbh1Y5iU5oEZUjnLzcszvPfH5zj30Vk2r86RYhaYg5gjV/MU5SBXX+Cuk9HL25PR+7WjDzzIL4WOWabf/8eSJEm6RwZ06VFUDvQL4N1bewegzf5gNm6fBx+fh2//CdjeHOqF8FkizbF9fYFzHzzDO59dYOvKDKmYBWbIeY6inOLGqwXPfXFvIvsRTkaXJEmS7oUBXXpYFY0g0t1CeKZbBa8OfUzZhI/9EmxXQeQp9lvN52jdWmB6Y573/cwUt25Mk9IMMA15liim2bkxwDf+uN9QtorU2KU5ku9+HlySJEnSN2NAl+oqlZDKPufB6U5r6+xmcqvFwUr4Xjv6d//70BxvUrUXIBYgz5PzIo2BeT78C4vsdCaJPA0xdfu8eDBGewde+Tfdz330fHdEh+bQwcPiB++djC5JkiS9SQZ06SRF0a2E3zmULVG1oL1d0W1H36+EpxKqNrznx2H2YoPdrUUiLUJeIGKFdmuVD/zsHI3RKXJnCpiiu75sipwHeOVrvWh9x1nhDNGhbB5858H7fv3rkiRJko6JAV160CKgGOg/GT2394aytW//+b0A/vZPBRc/kblxdZQUS8ASsEgqFtm+sco7PzPNxOop2juTwETvNktEkxsvQ36NviO1i7JN/wAOfk+QJEmSTowvxqXjcPfJ6EHO6a6T0ZffAd/5U4mbV2ZI6QzEEiktcevGIk9+eJnT757h1uY4KU1AnoA4BXmSSAU3LznrANsAACAASURBVMFrX93bTX5QRSqq3vn0ves6eO+/e0mSJKmGfKEu3auyGb0dUvc2GT0CcoaJ0/DJvxlsXZsmxQqkc0RaY3frDHMXlzj/oUl2tsaJNA6MQz5FKofYuhrd8+B9O8srUqq67fHdz3bgPvVu0lspessA3LMmSZJ0nwzo0kF3n4yeaO9WkO+cjF6U8OxvwzZBVGcgzkA+DbFMZ3eZ0ZkVnvzkOK3tMSJOAZMQk0QapLUFl77SPYt+x1C21KFs5gPXwIF7Q7gkSZL0iDGg6/ESZTdQkxOHAzgQRd/J6KmAqgPf/xswMjdGZ3cZYgXyMrBMpBWe/sQy7RiBPAqMAKPAGBEDdFpw9fl+ITwTUVE07jYZPR34vSRJkqRHnAFdj55IUDRfbzL6nTvCiwZ0Wm0+8kuZlW8f5dbNDVJcAFaJWKbTWuX8h2dpDI+QOyMQo5B791Xi6iWIgzn70AW1KRpwOHzv/drJ6JIkSZIAA7oeVnefjJ7InaC9vXcevBvC9yajP/OX4Nv/naD1wixRrAErEN0Q3tq+wPI7ZxidHaLdGiUYhRiGPEREsHUVdjb7XU2mKDo4GV2SJEnSm2BwUH0VA3tjp+42Gb3NwfVkUUDuwNp3wCd/vcn1V1coylVghUirtLfXmLqwzvT6NNW5AUhDkIchhiAPEilx6zpcf6U3C+6QDqnIvesBQ7gkSZKkY2ao0MnqTijvH3o7O9Ctgh84uN0dE82pM/Ds329y69VvITVWIK9CWqPaXWdkZoW5i6NM7Q4SMQgMAkNEGqC1FWx+gz6d5RmoiFRRlLaiS5IkSXrLGdD1YEWCiLtVnYOqU7F/Fjwf+rjP/jMYzqPQWQfWgFVgjVxt0Bg6z8KTo1RnB4k0CHkQokmQaLdg60q//eBdqdn3StkfzCZJkiRJbzkDut68CHqryeBoCM9VUFV7IXw/gHfPhAc/+vuZifXTtG9tQKxDXodYhbzO9MVVEgOQm8AA0OjdCnIFW5f7taL3Prs5W5IkSdLDxYCue9MN4dCvCp5zUHW6LeJ71fCyAe1W8P2/mHnis6PcuLlKYgNYh9gAVsmdC0ycnqZoNsl5L3w32Ktit24ePGHe/5ok1UcGovIfpiRJ0n0yoGvf650H74bww+3oqQFVK/iWH8989K8Psvv1FaJYB7rV8KqzytjU0zRH55icaND9+3bwBu1daLfekqcnSZIkSXVmQNe+qgP7bejd+73J6Bvvg8/+/jjXXjxPUW70quAb5M4GzdHzDKRphpeB2AvfBUTQacHu9kk8G0mSJEl6qBjQ1TU0DT/xLxIDrRVirw09n4VYJ1fnKZtrEEOMLxZ0J5qn7i26+8VbW+wX3SVJkiRJb5QB/bHRW0/2hS8OMFYukVu9KnhehzgLPEVjaIMYKiHvTTPfn2qeM7RerxJuOJckSZKkN8OA/igpGtBpwef+l1EW3r7O7uZZIu1XwslnKQfXISdo7K0V20/WVfvQxnFJkiRJ0lvHgF5XkXpT0w8k5qKZaN0KPvTrifd9fpbO5Y1e9XuvGr4BXASm6ex0A/tR1euNRZckSZIknRQD+kmKBEWTXgjvVrOLRmJnM3jf50u+7+9O8sqX1yjLdYgLkJ+BfB5ijc5rY4fbyi19S5IkSdLDzID+QAWUQ3unuPcURCrY2Uyc/2CTz/2jBa68cI6y0TsLnrtV8aq9zmtfHaEsc/eB8v5jSlIddUddHD46I0mSpHtmQD8Og2PcHsKWSQQlnVbJ8EzBT/7BMCPVSu8c+IHz4Fygap/mteczEUF7t88Dx+3/kSRJkiQ92gzo31QveA9NdM9055zoft0aRCppbzf45T8ehoFFqp0NMk8R+YneerINdq5Msr33OIdURLS758xvv/Nu95IkSZKkR5wBfS+AN0agOQJUe28sgSZFs8H1l0p+7H84xZl3r7FzY4NIa71W9O791o05uE7fEJ7KNv2D997nkCRJkiTpcQmIvRA+MArD09BpBRENoEnRaHDjhQE+8utN3vfTc3Qur/da0Nd6AXyNiHPcut7g2osQd4TwTCoM4ZIkSZKkN+XRC4/lIEwuQ6cNQQMYJJWDXH+xyQd+dojv+8/meeWrF2kMnoe8CqwS6Sy7N2a58f+loxPdeipSalOUd2tBf/S+jpIkSZKkt9TJBsuUOFCSPnxfdaDbb354f1gkWHgCqgzkbgCHQSINsX19kLXvGOYv/49zXH9lg6JchViFvEoUG+zcmOPrX0qkEnY3OfK4HVJjrxJ+9JoSd0nukiRJkiQdhwcb0CNB3CWAQ1BVQNXu/T7vvzvD3EVITaAaAIaAIar2EIPjQ/zCPz/FjdZpUrUfwIlVghVaOxM8/8eZVMThbJ8zqWxRDlSQDwbuvUBePIgvgSRJkiRJ9+LNB/QI7jqJPFdQVZmjlfAIyBlmzsHgOFSdJjAMDBNpmNbWED/1fywwNLNCtbvSC+ErkFbJnWWe/3KD1HfAeYdIOzSHgbwXvA/eGr23S5KOWwZShPsnJEmS7s89BvTotaP3af3OGapOh/0Anm8H8OkVOLUCrR2IGALGgBGKxgg3Xhnj3/5vJzjz7jPs3Fgm0nI3hLNMxArXXhpg+6v9LqZNc3DnwHUcvQ0c7YqXJEmSJKnu9gN6KuCue7hz3CWEV4zOwMJT0NotiBgFRikao1x9cYRP/eo47/qxOa5eOkORuuGbWCZXKxTlLNdeSLzyZ3sV+IM6lAM7UPYL4AUnfXZekiRJkqRjVpKKAgiqzsFW9MMl6MEx2HgftHYSEacgxklpjJtXxnnmL87wsV9b4vorZyjKM8AZcj5NUa6weWmYr/5RJpVxZ1U7tyiaLRpD/UJ4AgYe8HOXJEmSJKk2SqpOh0jw1EehHUDVAE4BY0SMs7t1ioWnJ/jh35ll87X9EE4+TSpX2L5+iq/3CeE5Z4rGLs2RfPfz4JIkSZIkCaDkqU9+iLJ5ih/7vSluVXNEtQSxBHkJ4jQRC7S3B3j+j3tt8Ecmo0f5eiG86XlwSXqM3NmDJUmSpHtU8tnf/4fkPMULXz6wkvyQiggno0uS7oU/DyRJku5TyZWvTwFtGoNt+k9FdzK6JOneJLIRXZIk6f6UlAMVTkaXJB2HvVGjkiRJesNKuhPTJUl6cwKsn0uSJN2/hLUOSZIkSZJOnNVzSZIkSZJqwIAuSZIkSVIN2OIuSZIkSVINWEGXJEmSJKkGDOiSJEmSJNWALe6SpOORgYgAV61JkiTdDyvokqTjYzyXJEm6bwZ0SZIkSZJqwIAuSZIkSVINeAZdkiRJkqQasIIuSZIkSVINGNAlSZIkSaoBW9wlSZIkSaoBK+iSpOMRQIX/2VeSJOk+GdAlSZIkSaoBA7okSZIkSTXgGXRJkiRJkmrACrokSZIkSTVgQJckSZIkqQYM6JIkSZIk1YBn0CVJkiRJqgEr6JIkSZIk1YABXZJ0PDKQqiBO+kIkSZIeTra4S5IkSZJUA1bQJUmSJEmqAQO6JEmSJEk1YECXJEmSJKkGPIMuSZIkSVINWEGXJEmSJKkGDOiSJEmSJNWALe6SpOMRQEX4U0WSJOn+WEGXJEmSJKkGDOiSJEmSJNWAAV2SJEmSpBrwDLokSZIkSTVgBV2SJEmSpBowoEuSJEmSVAO2uEuSjkemu2pNkiRJ98UKuiTp+EQEYUyXJEm6HwZ0SZIkSZJqwIAuSZIkSVINeAZdkiRJkqQasIIuSZIkSVINWEGXJEmSJKkGrKBLkiRJklQDBnRJkiRJkmrAgC5JOj6Z8OCUJEnS/fEMuiRJkiRJNWAFXZIkSZKkGjCgS5IkSZJUA4lsi7skSZIkSSfNCrokSZIkSTVgQJckSZIkqQYM6JIkSZIk1UByY60k6dhEBHHSFyFJkvRwsoIuSZIkSVINGNAlSZIkSaoBW9wlSZIkSaoBK+iSJEmSJNWAAV2SJEmSpBowoEuSJEmSVAOJ7Bl0SZIkSZJOmhV0SdLxyQTZTeiSJEn3w4AuSZIkSVINGNAlSZIkSaqBBJ5BlyRJkiTppFlBlyRJkiSpBgzokiRJkiTVgC3ukiRJkiTVgBV0SZIkSZJqwIAuSZIkSVINGNAlSccnKoiTvghJkqSHU4LwDLokSZIkSSfMCrokSZIkSTVgQJckSZIkqQYSZFvcJUmSJEk6YVbQJUmSJEmqAQO6JEmSJEk1YECXJEmSJKkGEuAZdEnS8ciEP1UkSZLujxV0SZIkSZJqwIAuSZIkSVIN2OIuSZIkSVINWEGXJEmSJKkGDOiSJEmSJNWALe6SJEmSJNWAFXRJ0vEIumvWJEmSdF8M6JIkSZIk1YAt7pIkSZIk1YAVdEmSJEmSasCALkmSJElSDRjQJUmSJEmqgeQRdEmSJEmSTp4VdEmSJEmSasCALkmSJElSDSQIe9wlSW9eBiICiJO+FEmSpIeRFXRJkiRJkmrAgC5JkiRJUg0Y0CVJkiRJqoGEe9YkSZIkSTpxVtAlSZIkSaoBA7okSZIkSTVgi7skSZIkSTVgBV2SdDwCyO5AlyRJul8GdEmSJEmSasCALkmSJElSDXgGXZIkSZKkGrCCLkmSJElSDRjQJUmSJEmqgUS2xV2SJEmSpJNmBV2SJEmSpBowoEuSJEmSVAMGdEnS8chARJz0ZUiSJD2sEpE9gy5JkiRJ0gmzgi5JkiRJUg0Y0CVJkiRJqgEDuiRJkiRJNZCI8Ay6JEmSJEknzAq6JEmSJEk1YECXJEmSJKkGEhlb3CVJb14Amej9SpIkSW+QFXRJkiRJkmrAgC5JkiRJUg0Y0CVJkiRJqoEEnkGXJEmSJOmkWUGXJEmSJKkGrKBLkiRJklQDVtAlSccjA5FdsSZJknSfDOiSpGNkU5YkSdL9MqBLkiRJklQDnkGXJEmSJKkGrKBLkiRJklQDBnRJkiRJkmogQbbFXZIkSZKkE2YFXZIkSZKkGjCgS5IkSZJUAwZ0SdLxCNwLIkmS9CYkCF9OSZIkSZJ0wqygS5IkSZJUAwZ0SZIkSZJqIOGJQUmSJEmSTpwVdEmSJEmSasCALkmSJElSDRjQJUmSJEmqAc+gS5KORwZSBHHSFyJJkvRwsoIuSZIkSVINGNAlSZIkSaoBW9wlSZIkSaoBK+iSJEmSJNWAAV2SJEmSpBowoEuSJEmSVAOeQZckSZIkqQasoEuSjkcAFUF2E7okSdL9MKBLkiRJklQDtrhLkiRJklQDVtAlSZIkSaoBA7okSZIkSTVgQJckSZIkqQYShGfQJUmSJEk6YVbQJUmSJEmqAQO6JOl4ZHADuiRJ0v1L5GyLuyTpeESEIV2SJOn+WEGXJEmSJKkGDOiSJEmSJNWAAV2SJEmSpBpIBJ5BlyRJkiTphFlBlyRJkiSpBgzokiRJkiTVQCLb4i5JOibZg1OSJEn3ywq6JEmSJEk1YECXJEmSJKkGnOIuSZIkSVINWEGXJEmSJKkGDOiSJEmSJNWAAV2SJEmSpBrwDLokSZIkSTVgBV2SdHyiCoI46cuQJEl6GBnQJUmSJEmqgUQOW9wlSZIkSTphVtAlSZIkSaoBA7okSZIkSTVgQJckSZIkqQYSkT2DLkmSJEnSCbOCLkmSJElSDRjQJUmSJEmqgUTGFndJ0vHIhD9VJEmS7o8VdEmSJEmSasCALkmSJElSDRjQJUmSJEmqgQSeFpQkSZIk6aRZQZckSZIkqQYM6JIkSZIk1YAt7pIkSZIk1YAVdEnS8YmAOOmLkCRJejgZ0CVJkiRJqgEDuiRJkiRJNeAZdEmSJEmSasAKuiRJkiRJNWBAlyRJkiSpBhJkW9wlSZIkSTphVtAlSZIkSaoBA7ok6fhkwtGjkiRJ98eALkmSJElSDSQIax2SJEmSJJ0wK+iSJEmSJNWAAV2SJEmSpBpI4DgfSZIkSZJOmhV0SZIkSZJqwIAuSZIkSVIN2OIuSTo+EUEQJ30ZkiRJDyMr6JIkSZIk1YABXZIkSZKkGrDFXZIkSZKkGrCCLkn/P3v3HiRZlteH/XtuZlX39Dy6e2Z63tM9PbMrWMBgIRDCsUYQxkiE7eAPWdgGCzss20EQKCyFJEfIsgPJDmwkFLKFUAgDlkIKh2UhwLKNDbJ4LQgMwbK8Fi8IEMuyzD7mPf2qR+Y9/iMzu6u6K7OyurPq3uz+fCJu5EzXrcyTWVmV93t+5wEAAD0goAMAAEAPCOgAAADQA+agAwAAQA+ooAOwOjVFty8AwN0R0AEAAKAHBHQAAADogSa1GowIAAAAHVNBBwAAgB4Q0AEAAKAHmpTGEHcAAADomAo6AAAA9ICADsBqlCS1LV03AwBgXQnoAAAA0AO2WQMAAIAeUEEHAACAHhDQAQAAoAealBjiDgAAAB1TQQcAAIAeENABAACgBwR0AAAA6AFz0AFYjZqkpCQpXTcFAGAdqaADAABADwjoAAAA0ANNqiHuAAAA0DUVdAAAAOgBAR0AAAB6QEAHAACAHmhSqjnoAAAA0DEVdABWYbIDei32QAcAuEtN4loKAAAAutakFkPcAQAAoGOGuAMAAEAPCOgAAADQAwI6AAAA9ECT2GYNAAAAuqaCDgAAAD3QJFFBB+De1di5EwDgHqigAwAAQA8I6AAAANADAjoAAAD0gDnoAAAA0AMq6AAAANADAjoAAAD0gCHuAAAA0AMq6ACsRklS7YQOAHC3BHQAAADoAQEdAAAAeqBJqjnoAAAA0DEVdAAAAOgBAR0AAAB6oJHRAQAAoHvSOQAAAPSAgA7AatQkpZTEXugAAHdDQAcAAIAesM0aAAAA9IAKOgAAAPSAgA4AAAA9IKADAABADzSpMQcdAAAAOqaCDgAAAD0goAOwGiVJbe2BDgBwl5oUQ9wBAACgayroAAAA0AMCOgAAAPSAgA4AAAA9YJs1AAAA6AEVdAAAAOgBAR0AAAB6oEmphrgDcO9qJnuhAwBwV1TQAVidkiKkAwDcHQEdAAAAeqAxHhEAAAC616QWc9ABAACgY4a4AwAAQA8I6AAAANADTUoMcQcAAICOqaADsDp1egAAcGQCOgCrUZLUUmJ7EACAu9KkVLUOAAAA6JgKOgAAAPSAgA4AAAA90KRazgcAAAC6poIOAAAAPSCgAwAAQA8I6ACsRk1SbLEGAHC3mhRz0AFYEbugAwDcNRV0AAAA6AEBHQAAAHrANmsAAADQAyroAAAA0AMCOgAAAPSAgA4AAAA90KRUc9ABAACgYyroAKxOTbH0KADA3RHQAQAAoAea1EatAwAAADqmgg4AAAA9IKADAABADwjoAAAA0ANNYps1AAAA6JoKOgAAAPSAgA7A6pSSlK4bAQCwngR0AAAA6IEmiTnoAAAA0DEVdAAAAOgBAR0AAAB6wBB3AAAA6AEVdAAAAOgBAR0AAAB6YNh1AwC4j9SUVDuhA8B9pg/Tote9DeOUmrSL72N4jw8CAAAw03W2eNAfPzm0DSWp7eS45bCR1Yd1vp9E5/yaFwDqIKOaPLxV0rRzz1JBBwDguHUdWh70x0+WCW1tm2RucChZLiAtOkeIW5nD3lLzXoaStDvJqccmRx0tOHcVj3fz+9ukjOd+c8k4Nbvz76i2SUbzH77U6fcvspvFT2SUBb8AScaHvGBtUua3sWYnze75fOTC9dw4Pfe0YVLrA/M+BgD6pOvQ8qA/frJMG2o7uVw82DKhbdlgd5y6fvwTcg+hrWwnZx5PhkcJbStXMwlJ8x68ZnHImoW4RS/EeHrMs5v5IW3WvkUhblVtnB/0klHSzHsONbUdpbQHt7HdLTnz3Ci//dOj/O73JqceLantbpKtxW2u16ZtP/hnU8u1lEWvW91KyrwAXZJsJ2Vrzv2XpO5M7mNeG0ub5NqC55CkXLt92MBtrdxKKdvz29BuZ/I6Hfz1mp2UMr+N4zLOme2t/J+ffyXXdzPvPBV0ANivZnIR0mTxRdgqH68PFrdjcUg7yGGhTGg7Mcv83A54KUqScU3OnE82H1p4XXsCZqHqoJ/ZMoHosMraokB0WCibPX7XoW0388fN1tR2N6U9+P7LbrLzwji/9SO7eednk+GjB/28R1kc4pJkJ6nb879cFgWcvSFu3u/meBri5rwX6mhxiEuSZntxG+t2UnbmfXEa4ua3saZN2hspB7axpDY7KYe0sdadlGZ+G2u7nTI8+D1dk9TxnPxekvGN5NznJj/7d5Nf//6kGSbtorcVK1YynK7WU5OD3gYCOnC/6EvIOYr7qc3j3C/rmrTjjbTjJu04ua92OzlsdGuZc0qZXPM+dC7ZfGRy4dePXDsLNPMCSTu90J/zxOs4h4a2MpqWEg+8g+njL6rETUNZmdPGOguO8ypC46QuESznVqUyaX+zaMhlTdrdlPbOH2zbljy8uZsP/+Aor/7GNKTf0dRRku35zyHJcqFt547Hv9XINsnWdOjoQedMvz43wC8R2spuJs/jwAZMQ9v890LNVsqC4bk145S6nXnv11pGKYeE31p3UhYGx52Uwfz3Yx0d/FasJWmuJ9c/L/mF70ze+pGkDKa/InTosA7OwYKvN4d+fzMsGZ5OUpNmkNz75/cqPv+7bsPJfP+41MmfxINPH/bkQ5b1so4X4Np8co7W7rZkTkHgKMGoD5W4u7GObZ6nph0ndXQ6qWsaaqc/jseeeTuPPv3pjHeHuVV5m3+lemve3Lw7HSXZmSTgg86o49RFlbOSQ8NFyU7qvBCYTNowN1yU1DpKbXfS1DvbWEfJ8Ik2H/m/d/KJD9ZJSF+qkjqrts2zPRmyeKA6rWDdS2gbTx5jbmjbzaIrpCT3GNqmlbRspcwZsjsJbfN/trXsphwSfu85tCWTt8cBP9Nxm5zbTP7Z300+/s+T0nRdReckQ9vBdbz7IYTd6330pf2L7ueQX9RS046S0aI/0XRlmFralDn19VsejKDQH8u3++hDDg9ylHAjCD2wjvI+W/LlrknO7ibl4vLfc/IOqwztUWaBYJkn007DyZJjT8v2EcoZNYuD0f5zS3ZT5y7ccls7sjunojfOaPvhnH36VzLYnBcW+q1Oh37+1N/+/px65JfSjpvcfC0XvD4lO6lzf+6z1+zGnIBeUjJKXRQUS01yI/ODZlLqjUN+houGviZtnby9hvXOVtRRMnwq+YV/kHzqQ0JaP91LaEsWB7eSwcae0HagrgNTH9rQl/bfW2gb7wpt0LFhRtuDaUDvesXF+9fNOQZH+YbDTinJeJw8eiHZ6Hxe2CLjLP/sRzl8jtjMzsKqxT61Ts5fdi7pzSGFy7Z7N4vnhN1syKQdSwWh7Bn6eJR2LxuMjvj6ld0FVarbTk+bMt45tOeoJhm0yY8/eyOjv1gnxbKy96vXl2vf7HWti+aszZRpRWzZYJzUXE9ZOqDPKoZLBvR2/nDH2+44tdlKOXSo61StSVn29Usm74cFlcq97ZhWHcsBL0k7Kjn1+LW88+r1W+1YI7OA/uN//SNJPtJtY+7KvYS0ksNGrTTD5pCQdpCuQ0vXoe1ev/8kQlty2Nzp8bx+OQBWbZjzF99Oyacz/4/3dAjXEheRpZQkO6l1mQu9TO/zKNWpnSwXhKZDChfNd7rDdhavGrnn3pvR9Dkuo6atN6ZzOw49NWl3J3sfHNKO8Tg5++g4P/E/buf3PlJz6sy9XAsv+7rWHOV1moTz5YPQrXlsy9hZPOdur9rm6AH9CO/LzALfoQ2ZDDVcMqDXOvn9mL8i5m3nl1HKku/LSTuWD3u1jFOWHLVcM82ph7x8s4D+k5eS8bdm+b4Z1saa5fObhpuD7H/Dr3vIm33/Yfex4G+TyhoAnISSf+XrPzfJ8wvOmQ7vW+JKqyRJ2U1dNGdsn6MGuNlcsmVaMlsQZJly9NGCZylHCehJmzbNslMyx1kqR7bj5JFHkp//3uStV6eL+6zpxTBdOcrImKNObVimR2pimCY5ddBXjvMNvY73fdy/4Cu6/1Iz3ml7PKoHAKC3DF2/O0cNK8c1x3syL6wMsoJr63UMFet43+vY5uO971Gpy0+XBgCA+1dJMzhsRcfkQVhsrV9OepE4AAAAAAAAAAAAAAAAAAAAAAAAAAAAAAAAAAAAAAAAAAAAAAAAAAAAAAAAAAAAAAAAAAAAAAAAAAAAAAAAAAAAAAAAAAAAAAAAAAAAAAAAAAAAAAAAAAAAAAAAAAAAAAAAAAAAAAAAAAAAAAAAAAAAAAAAAAAAAAAAAAAAAAAAAAAAAAAAAACA+0BJMygruq+63FltUpc7FQAAAB4Uqwrns/s6/P5KU1LKKh93nr73AvS5fX1u28wSbSxJ2yZpj70xAAAA96rkD3xNFufqJbJ0nYagRae24+ThR5IP/1Dy9ieSUlTSuRfLdAhNOoNKs8rHXYc3bZ/b2Oe2JUdpXzs+xmYAAPAgKvnm178xaT5nztdrStlOLQuuREtSRzUZ76SU3cwLTeNRcvZ8yY9921Y+9oujnHqkTIL9kexOj0Vqkp0kh109z85bphGj6eMedvE+SsoS7avLtC9Jmbbx0BdqPDlvqfbtHP64dXdy7qHta5dsXzt93EPaV3eTweEPmyR1PH34eU3bTXafTz764eT1H0jKYPI93G+WG7kzsUxPzbL3VzI8ddB5q+6AWMf7G2e8U3XAAgAcXcmf+9AHkvIl935PZfGlXynJaJScfSbZPLNEpjsRbSbh9rAL8nGS7Rx+cbt7hIA+vzPjpqUD8FHad1hAr8sH9FnwrqMsfi7jpCzRvrqbDA57/aantjsp4/nnlt2S0bOj/OpPbedffFuy+dS0mfPat9TrN07q9lLtm7wPlnwvLOoAu9m+ZTpgkmQ0fX8d1r6dHP4zXrZ9bZZ7/Y7Svt1MnvNh7Zv9zh3yu1Rr0tTDT0tSRln4VEpJmjb5ye+ePqwgCgDAagwzPPXm9AJ33lXm6q4+B5vJtddrri6TiQ+0bHWrOcJ5wyXOGyY5tcR5nJSSpB4yNaN8PPmMJ5PP+65pn8NJLH2wz2EdK8uOL+IZ/gAAIABJREFU9hhPA/USvVp11tlwiLI7fVFW0b52uQ6YZNpLsmRAX7Z9h3YgZNLJ1WxPR6UsusdRymjn8IA+3k5Oj1IG2XNum+RGDp8zNEqydXibl+6Yaaf3d9h5NSnXlmjfODXbKYeUwEtpU+t2br0v24zbU3ns9K/kp//+W3nn06YyAQAc0XB6bJzMw9VksHGvD7fKq71l7+soj7mOQ1L7cn8rbttmsjWquf5bWSKcr3L487LnliSnj3CfHLdDO36mapKv+KacQPV8vMSDzEYwHKYm5XoOf7/NRu4sE9D3diDsZLTzXB5/5o/nwz/6gbzz6TLpEFmzgD7cbCZzYu5La/bD6B2v373x+t0br9+9qRktOxgRurVM9bhvVr3yPPetmjRN0pxe8Z2uXJ87TVatz21LjtK+K5886F9X3dGzbFDcXPK8x5Y8725sp905lZ3ho9lZZoZMT412bP0AD64+Xxce5bOjCyXLfQZ2Z9IB23UrFun7NVLfrdHrV0YZb7fzaiHrGNChS73+yz61Dm1cf809F1n7/EFyN21rUwfJQ4OawRq+BUtTUtuaf/0vvJjT57807WgjR3sddpN62BSHDpVxkmVGUHSlJrmaPrev1qs5kV1i71LN9ZR+LPBzoJobKaW/vXclW6lLrb/TjVK3U4f9Xe22qUm73DJCJ65tk4fPJP/HNyU717tuDRxKQAfoRo+v9O+qbU1qkmEpvX5m85RmslTBH/ja9+Xsxb+S0fYjWWq3jZk6WzOgr89+NhWir+2rmayl0Of2bfe3ecl0Ac7+BvTJwqn9DZil7Kb2uX11lNr0twOhqeO0Cxbv7VJtk1MPtRkNdrJzPSvefndVZuvY9LXzvib1Wibt7OMfwjJdZ+euFzo7ZiWTn+9W2vGZnDn7vfnBv/TRXH/zwJMFdABWoyTZaWuvI8J8kyX5r7x2Ks3G2Yx2znTdIID9+prdZvqYi6bercnnf01fwzkPhnGSrYx3H87ZZ341P/rXpgH9zh2BBHQAVqdZ0wr6TDNo0wzqdArDUa+G+371zP3N+48u9fv91yS5+lrXrThM33sP+t6+vhsk2ch4dzLorp0/YEdAB2A1JkPce11EOVQtNbcmGh/1mazzMwe4v9372jEPun53wqyHOtn5d5hFa5oI6ACsztp/fMvYAHAAH5D3bqnX0FAFAJgp69/FAACsLwEdgNXRvw4AcNcEdABWo9Rkpylp1zil16qCDgB0RkAHAACAHhDQAWDGHHQAoEMCOgAAAPSAgA7Aakz2QS9rvVBcrfU+2CsOAFhTAjoAq1NiJXcAgLskoAPArGxuDjoA0CEBHQAAAI5bSdK2NQt2dRXQAWBmUkFXRQcAOiGgA7AapSS7WyXtuOuWAACsJQEdAGZqU61yBwB0RUAHAACAHhDQAWDGKu4AQIcEdAAAAOgBAR2A1ahJNpuSxhxuAIC7IaADwExdsDEpAMAxE9ABAACgBwR0AJixSBwA0CEBHYDVEW8BAO6agA7AapQko1LSrvEicW2tehkAgK4I6AAws8Z9CwDA+hPQAWDGHHQA4LjUJKXJooqAgA4AM7VEGR0AODZlIykCOgAnYXGncP/VooIOAByjmkXr3QjoAKxGTTIoZa0D+jq3HQBYewI6AMyYgw4AdEhAB4AZ8RwA6JCADgAztSZiOgDQEQEdgNVpy3rHW3PQAYAOCegArEapk4C+zsxBBwA6JKADwIx4DgB0SEAHYHUWb+3Zf7XW9X4CAMA6E9ABWI2aZFhKmjL7v/VjiDsA0CEBHYDV8akCAHDXXEoBsDrrXn+upVrKHQDoioAOADcJ5wDAMRrUheUMAR2A1SlrHnDNQQcAjtMhl0oCOgArUpLxTkltu24IAMBaEtABWI1SknactZ6IXhcPOwMAOE4COgArUrP2c7jXfR93AGCtCegAMNOkrnsfAwCwvgR0AAAA6AEBHYDVqEmGTVnrldybWo1xBwC6IqADAABADzQyOgBMtZaJAwC6I50DAABADwjoAAAA0AMCOgCrUZKMS0ld50XiBnXyRIxyBwBOnoAOAAAAPSCgA8BMW6el8zUeBQAArC0BHQAAAE7CqC6cRyegA8BMMfkcAOiOgA7AatQkg1KMDgcAuDsCOgDMtIuHnQEAHCcBHQAAAHpAQAeAmaZWe6ADAF0R0AEAAKAHBHQAVqct670OervWrQcA1pyADgAAAD0goAPATDOoSYl56ABAFwR0AFanTA8AAI5MQAdgRWrSrHk6v7kP+po/DwBgLQnoAAAA0AMCOgDMNCafAwDdEdABYEY8BwCO0yGz6AR0AFanrvkqceNaU8V0AOCYNHXhdYaADsDqtKWsdbxtstb9CwDAehPQAWBmUKtx7gBAVwR0AJhpu24AAPAgE9ABYGZsBjoA0B0BHYDVKCWp46z1EHFz0AGADgnoAKxOOypZvDhpv5V2jRsPAKw7AR2AFVrz8nMd1LV/DgDA2hLQAWCmNtMR+grpAMDJE9ABYKbMCuiq6ADAyRPQAVidJmWts+06tx0AWHsCOgCrUTNZyX2dU25Z5xXuAIB1J6ADwMwa9y0AAOtPQAcAAICTMF48Wk9AB4CZWqsV3AGAY1Oz8FJDQAdgNUqStqz3IHHZHADokIAOwOoc0ivce2WtWw8ArDkBHQBm1rv+DwCsOQEdAGbauu5jAACANSagA8CMaA4AdEhAB2AVJrO3B6Ws9TDxZlCNcwcAuiKgA7A6Jeudb28uQq+UDgCcPAEdAGbGdZrM17mXAQBYVwI6AAAA9ICADsBqlJqMyzrvJF4yqOvbegBg7QnoAAAA0AMCOgDMjGu1QBwA0BUBHQAAAHpAQAeAmUb5HAA4RsO2psy/3BDQAViNmmRQ9uwlDgDAUQjoADAzbqsaOgDQFQEdAAAAekBAB4CZwWadDNFXRgcATp6ADsAK1Qi3AAB3R0AHYDVKScajkrrGAX1czUEHADojoAPATJkeAAAdaLLWpQ4AWKGmTsfoS+kAwMlTQQeAGV3WAECHBHQAVmfdC88jc9ABgO4I6ACsRk3SlDLZpmxN+VQEADrkUgQAZga1piihAwDdENABYKbtugEAwP2rJO3iQoCADgAz47E56ADA8ShJxovXuxHQAVid6SZla6sZZv1XugMAeqnm0MsMAR2A1ShJ6pqn22Zj+gzWuZcBAFhXAjoAzFTBHADojoAOADMDAR0A6I6ADgAzAyV0AKA7AjoAq7HEwie9N+66AQDAg0xAB2B1mlLWOqSPZxX0dX4SAMC6EtABYKIY4g4AdElAB4AZn4oAQIdcigCwOm0pa72F+LhWe6ADAF0R0AFYjZL1z7bjrP9zAADWloAOADPDWq0PBwB0RUAHgJlG+RwAOCYlySHr0QroADAb2D6qNQa5AwDHodZkeKqmzB+uJ6ADsBq13gf7oLfiOQBwfMriCC6gA7A66xzOk2TjVBb1agMA3BtD3AFgOc1g+h/K6ADAyRPQAWBmt5XMAYDOCOgAMNNG8RwA6IyADsBqlJKMx2WtA+6wne6Dbh46AHDyBHQAVmjNdynzqQgAdMilCADM7NaausYdDADAWhPQAWBGNgcAOiSgA8DMxmwOOgDAyRPQAViNmmRQJovFAQBwZAI6AMzstNUwdwCgKwI6AAAA9ICADgAzG2fqZIi+MjoAcPIEdAAAADgJoyycTiegA7A6bcpaF5/NQQcAOiSgA8CMBegBgA4J6AAws9nWyRgASR0AOHkCOgDMtF03AAB4kAnoADBRJnPQTUIHALohoAOwOk0pRocDANwdAR0AZorqOQDQHQEdAGY22moEAADQFQEdAGZ8KgIAHXIpAsDqtKVknUeJnxqpoAMAnRHQAWBmtJG17mAAANaagA4AM1sP19QSKR0A6IKADgAzG20McQcAjs/iIoCADsBq3A+F59O13hfPAwDop0FduN6NgA7AitSklvWuP+/USThf72cBAKwpAR0AZrbaqnoOAHRFQAeAmc06rZ4roQMAJ09AB4CZ021SqjnoAEAnBHQAVqQkpV3v0vNWaw46ANAZAR2A1ahJSpu1Lj/PAjoAQAeaWA4HACZOt0nxuQgAdEMFHQBmHtoxBx0A6IyADgAzV88ntZmEdACAEyagA7AaJUktZa1XWNt6OKlr3H4AYK0J6ACszroXnh/ZWev+BQBgvQnoADBzupqDDgB0RkAHgJm326SNKjoAcDwOucYQ0AFgZkv1HAA4RqO6cKNzAR2A1ahZ/0+Vc7vT56CEDgCsWMmhhYB1v5QCoE9K1jvbPmQOOgDQHQEdACZKPrWdjLPenQwAwNoS0AFg5nqbVOVzAKAbAjoAzMa0P3sjGQjoAEA3BHQAVqMkGZey1vO3T28ttYALAMBxENABYDbp/CPvT3Y3JwvFAQCcMAEdAGZ5fHszSRHQAYBOCOgAMFu1/bOSDGOIOwDQCQEdgNWoSQalrPUWZYPYYg0A6IyADgAzKucAQIcEdABoM/lE/NYk76Zm0HF7AIAHkoAOADdtZVJGN84dADh5AjoAZJTJBPSLSV5NstltcwCA+09NMmzrot1iBHQAVqMkaVPM4wYAuDsCOgAAAPSAgA4A+xkDAAB0QkAHAACAHhDQAWA/FXQAoBMCOgCrUWvSlGKHMgCAuyOgA8B+KugAQCcEdAAAAOgBAR0AAAB6QEAHYEXKZB66AeIAAHdFQAdgNUqS2t4PS8TpYgAAOiGgAwAAQA8I6ACwnwo6AHA8DhlrKKADAADAsSvJeHEdQEAHYDVqDu0VXhMq6ADA6pUko8UL6groAKxOSblPQjoAwOoZ4g4AR6KCDgB0QkAHAACAHhDQAVidWpK69oPcVdABgE4I6ACsRsn9Em3vj2cBAKwdAR0AAAB6QEAHgP1U0AGATgjoAAAA0AMCOgCrUZOUsneBuHVdLE4FHQDohIAOwOqUrG8sBwDomIAOAPupoAMAnRDQAQAA4CTUxXUAAR0A9lNBBwBWr9ZkeLqmzJ8PKKADsDo1RbwFAJijDLJowR4BHQAAAE6EIe4AcBTGAAAAnRDQAQAAoAcEdADYq6qgAwDdENABWJGaNKUsWPcEAIAFGuvtAsAePhcBgI6ooAMAAEAPCOgAsJcKOgDQEQEdAAAAekBAB2BFStKOS+qaLxNnFXcAoCMCOgAAAPSAgA4A+6mgAwCdENABAACgBwR0ANhPBR0AWL2SZLetqfMvNQR0AFanSVnzJeIAADojoAPAPkUFHQDohIAOAAAAPSCgA8A+CyaGAQAcIwEdgNVpS7HEGgDA3RHQAWA/XQwAQCcEdAAAAOgBAR0A9lNBBwA6IaADsBoloi0AwD0Q0AFYnZqSSVRfZ7oZAIBOCOgAAADQAwI6AOyngg4AdEJABwAAgJNQs7AUIKADsDrrPft8+nFZVdABgOMxyMLrJQEdgNWoScp6J3QAgGNTkwxrFdABYGlFBR0AOB6HXGUI6AAAANADAjoA7KeCDgB0QkAHYBVKSpKFs6oAAFhEQAeA/VTQAYBOCOgAAADQAwI6AAAA9ICADgAAAD0goAOwGjVJqeu/SFw1Bx0A6IaADsAKybYAAHdLQAeAvUrVywAAdEJABwAAgJNwyGRAAR0A9ipFBR0AWL2SZKdduNqNgA7AapQkNSWH9g0DADyg2ixcskdAB4C9rOIOAHREQAcAAIAeENABYD8VdACgEwI6AKtRkzSlmIEOAHB3BHQA2E8FHQDohIAOAAAAPSCgA8B+KugAQCcEdAAAAOgBAR2A1ShJ2pT1rz/XtX8GAMB6EtABAACgBwR0ANinqKADAJ0Q0AEAAKAHBHQA2E8FHQA4HmXxlwV0AFajJmlKSTnsowcA4AFUS7Ixrmnm1wIEdADYTwUdAOiEgA4AAAA9IKADwH4q6ABAJwR0AAAA6AEBHYDVKEna3A/15/V/BgDAWmpSXYgAAABA11TQAWA/HdcAQCcEdAAAAOgBAR2A1ahJiuIzAMDdEtABWJ1SS0rXjbhXehkAgG4I6AAAANADAjoA7FWrCjoAcDxqFi5HK6ADAADASRjWLJoOKKADsDqH9AqvhbL2zwAA6KOaZLOti5a7EdABWI2SpK7/EnEAAMfmkDKAgA4Ae1UVdACgGwI6AOxliDsA0BEBHYDVqElKKVm49AkAAPMI6ACszv0Qz1XQAYCOCOgAAADQAwI6AOxVF+x9AgBwjAR0AAAA6AEBHYDVqffBDO5S1/0ZAABrSkAHAACAHhDQAWCvuvZjAACANSWgAwAAQA8I6ACwnwo6AHA8DtksRkAHYHVKKSldNwIAoIdKTbYerqnzY7iADgD7qaADAMegJu0wqfOrGQI6AAAAnAhD3AHgKFTQAYBOCOgAAADQAwI6AKtTU1LXfZm4qoIOAHRCQAcAAIAeENABYJ81HwAAAKwtAR0AAAB6QEAHgP3MQQcAOiGgA7A6pTVCHADgLgnoALCfCjoA0AkBHQAAAHpAQAcAAICTULJwOqCADgD7GeIOAKxeLcnptgroAJyMmiLeAgDcHQEdAPbTxQAAdEJABwAAgB4Q0AFgr1pV0AGATgjoAKxGyWQOOgAAd0VAB4C9SqOCDgB0QkAHAACAHhDQAWAvc9ABgI4I6AAAANADAjoAq1GTlFKSNV8ortgHHQDohoAOAAAAPSCgA8BeKugAQEcEdAAAADgJh0wEFNABYK+qgg4AHIOSZKcmCzaMEdABWI2SpK75AnEAAMelJNmts1LAgddMAjoA7FXsgw4AHIOaQ4e4D5OMp0emp6//FjkAcLdqEdABgE4MM9p+JCWDW/9UdjPcHGd/WN97qLoDcB/TRw0AHIPJdMCFhjl/8Z+mlM3U+kya8lzGo7N563c30hyUw+s4ZbCVwWZJ6kHB3VUNwIOqJinlPvgcMMQdADgGNcmpUqap+cDrjWH+4Z/8zqR8f1LPZzw6n0ceP5+v+Y7Hc+XGU2nyXFKeS+qzSXk2pTydneun8+4nkmZ4233WcZrhKM1GkjpL97PQbtg8AAAAD7b2ZiHgwHr6ML/yj68kuZLktyf/cirZvZJsj5NSH0pyLsm5lOZstt59PJf+4Pn8m9/8ZK688WKa4cspuZjkuTSDC7n+9qlce/2g8F4z2NxOGdRpeL+96i68A9AXKugAwOqVJLtZeKUxTDPYG5BL2lHJL/xvNZOF425Mj0/cDPiv/mLyiV9OdrYGKc3jKTmXZvhYrr72WP7g153Pl/xnT+fdT7+YwfCFJC8k9YU0wxdz9VOns3WlpgxuC+O1TXNqN02ZrWlnzjsAAAD3l6VWcW/HNbdn+GaQ7A3te29vvFPy//3gbOX315K8llImU/auv5782j9Jdrc2U8rZJI9msPlYrn7i0XzZf3c+n/OVF7Lz+vMpzfNJuZy0r6QMLuXqJzazs3VQa2uSnQxPCe8AnBQVdACgE8MD/7UdJ7cuUPZfqJRye4CfhOSSkrc+XvPmx9okO7kZ3puktskP/JnkJ/9qUrdKUs4kOZtm42xuvP5o/q3vfiyXP//ptNcuJuViUl9MyotJvZjkXN763TuaMfmHsp3h5qwt8w4ATsJkoJW/vQAAd+nggL5IrUndF+DHN782Ce+3h+OSMkje+ufJm79ek7RJriW5llJeTa3J9/3J5OFzScYlycNJHrl5W9tH85/874+nOfVi6ngW3C8l5b0Zj5/KlU/UO1cNrjVlsJvBZnvAavNWnAdgERV0AKATRw/oi0zC+5zKe5M0zQHhPckbv1byRm0zCe9Xp8ct3/GVs285neRMUs5ktP1Izj3/aP7jf/xUbly5mKa5NK2+X0oZXMrOtWdz9bUmg+H+HXNqrRkMR2mG49waIr93uLzwDgAAwIlbbUBfpLZJnTNsvmmSHBDeZ7ev/vJs0bqt6fFmkuSN30z+hy9Oxm1JyekkD6U0D+X62w/ls778TL727zye1z75QoaDS0l5KakX0wwu5fq7F3PjrYf2LEx3s5WpdZThZjtZzO7A6rvwDnBfsw86ANCNkwvoi7RtMm/OezJ/0bralrz6K7Nh87MV5yc+9D3J73wwGe2WlGwmOZ3B8HTe/vRD+fL/4HS+4i89ndeuvZRhnYb3cimpl1OaF3L9zVPZvTGp+t/ZltGBbdl/CwAAALccuPP5fv0I6IdZtGjdPNvXkld/ZXb+9uQo7yQ1+eG/nfzM9/1aRvUDKRkkOZ2UUxlsnM47Hz+df+9/eiyf9VUv5tobl9MMXkrqS0kupTQv5+rr51LbyXz7/arwDjzQapLS3gd/6xoVdABg9WqS0+O6aC+y9QjoKzO95rp+dXJMjDNbtG7WpfE935Bs/vlfTG2bJBtJNjPY2MyVT2/mz/7Mw3n0uUvZufa+lObyJLyXy0m9nOvvnFuwud3ogJEAwjsAAMCDoObQjcIfsIB+mFmAf3NyTIbOz6rvk6//zS9NyuA3U+uPZPL6bU5vN/IXfvZMdk6/kOxenob2l6dz319JbS9l6+oBK86nTSnj6XB61XcAAIAHlIC+tGl4v/bm3n8cTY+Jb/miN1LL7yb1ZzJ5bYdJ2cjujWEuvGczf+pHn8qVNy9nMHglKZ+dlN+Xklcy2n02O9dqSnN7EK8pTZuybzE7lXeAY2WROACgGwL6Kl19ffZfNcnu9JgsXPfqLyd/+aVPptZfziRYD9MMhrn+dpPP/arT+RP/yzN56/fek+HGy0l5ZVJ9b17OePtSxrunkztWnAfolyUWPgEAYD4B/aTUNrnx7s3/y60An3z4B67lv3zqjdT6q9OvNxlsDHPjnSbv/y+G+YpveiLbH72cMnwlyeUkn5nkX0q7eznteENuB1ihqpsBAOiGgN4H7Xiy6vyef0mykyT5qb+a/Mxfv5rU30nygSQlg82S7SuD/JH/fpAv+Heezvity0l5OcnLk9t6OclnJDl3ws8EAACAuySg910dJaOb09xrkprRdpKM8//82eSf/rmPJvlokh+bnlMyGJbsbpd84w+fzbmXX8roxnumi9a9Mg3yn53kmZN9IgBroqigAwDdENDXWW0Pmu9Z044n//rtX/5mkjeTfGjfGc0w+fM//3hq8/J0pfmXb4b3kvdkcOq5pM4Wo9u7KN1k7aTaHttTAgAAeFAJ6A+idpT8lc+bhfcPJklKmYTvJ19K/syPn8lrb1zMsNkzZL5cTm0/I4ONl7JxapBaB5kE9yazAF9bix/Dg6wmaUpZ+2UxzEEHADoioDMxC9avfzT5iy9dT/Jr02OiGUzmyn/mVw7yx7/rYt792PsyOPXStPJ+OXX8mdl8+LlsPrQ5De9NkmmIL8l4J6njWNAOAADgYAI6y2nHk9tf+8Fx/psXfjvJb9/82mAjGe8mf/hPJV/yp5/KlU++N83gcpLJsPk6fjlnHn9vhmceTm2b3NwjPk2SZLQTezMBvVEMBQIAuiGgczSlJKVJZuE6SWpb0gxKfuLbkw/8zdeTfDrJTyVJhpvJaKfkq/9WzeUveyRXXvt9GZTPmc59v5w6fjlnn38pzfB0at3IrfA+zKQCn+mieAAAAPc1AZ2jqXU6VD13rhRXmqRp9i8s145LmkHyj74xqfV6JgvWTRata4aT+fBf/33JQ5fOZ3T95elq85dv3pbymTn34pkkG9Pj1PR2Mud958ak0wBgVWoz2THDnBwAYJVKDh04LKCzOpNV5Wdvuf1vvYPCe+okvH/HH0uSt5P8/PS4ZXg6+fr/q2Q0fjkll5O8L2k+I3V8ORsPXc4TLz2W8XgjpcyC+2ZShml3p5V319dwYkqSNiXVLx4AwB1KSa6Natr5KV1A52QsCu/NILlzS7dpBX635Nv/tTbJb02PH7654vwTl5Ov/XvDXH3zUgbDl5LyUpKX0u5eypkLr+TJ9z6TujVMyumknErqmZSykd0t4R2Yzz7oAMBxOSSCCOh0b7IA3cHhPdkb4Ge3k22c3vqdkm/7knFuhfekDCZD8C/+4eSPfkuy8/HH0wxeScqLKXlPxtvvy2MvvZJzLz6e7J5Osvd4KKU02b6WjEcHDZ1v0wza3N6JcOctAADAkQno9N+8AF9KMjxdkjrbi316bJT83k+XfOcX10yGzv9ckp+7Oef9s//d5Iv+o5L27aeSvJyUF5O8lNJczGjrvXn+X76QRy88lHb0UJKHkpyZ3JZBbrzdzNnrvaYZjCK8w/qzijsA0BEBnfVVazLami3mtF9pJvPXU0smK85Pbpthk4/8o+RX/9eayWrzn0ry/yaZbRdX8kf/q5oXvvBstq+8mNJcSuqlpLmYdvTeXP7iixmefji13RPccyapg1x/e/r7dFAWL6M0zeyLwjsAAHAHAZ37U22T0VYyCe+zAD/ZzL0ZJMNTs6C8v/o+PN3kn3xzTW2vJvnw9JgE/tomf+xvJA89cT7t6GJSLib1hdRczGBwMe/7ihcyas8keSTJwzdvS9nMeGeY628mZZjb+hNqShlNt65TfWe91SRNKWv/jq3moAMA3RDQefC046QdH1x5T5LBRknZKJnsw172Hd/3p2tS307yVpJfuvk9w83k6747udY2KeNZeL+YNC+m3b6Uhy9cznu+7LHs3jib0jyc5NEkj6Q0G9m9PszWu7P95fcrzTil1Ki8AwDAfU9Ah9uNd+eH9+Fmma4ed9u895T8na9LklGSj06P3Fxx/vHLyR/5rzey9fqLaTaeT+oLKc0L2b1+MU995rO5/P5z2bn2aErzWCbh/bGUwcPZemeQneuzhfL2qmmavSvZCe+wKn57AICOCOhwFKOdBeH9VHLQsPmkyTsfL/kHf2I3yb+YHpPQ3Y6Tl/5Q8v5vGOTaGxfSDF5M8kLK4PlsX3kh7/3SS3n6c5/I9pVHU8qTSR5L6tmUwalcfX2Y8fbBlfdknGYwq7zP2iW8AwBAjwnosCqj7WT/nPdbJovW3bnifLPR5GMfLPmfv26U5JPT49aK85//1SXv/YqaK6+fz6C8ktTn0wyfy9a7z+ULvvqNBwjVAAAgAElEQVSFnL18PrtbZ1PKuaSeS8rZ6e0gVz+VOSvO2y4OFjEHHQDoiIAOJ2GyaN3B4b0Z3B7eJ7fNsOQXvy/50Pe0mWwX98EkH7wZ3rc/VXL+s2q2r51PyXNJnkvybEp5NuPRxXzRf3g+wzPnU8fnkjyZlAtJPZtam1z5VHPAPu9JynTovPDOXaop4i0AwN0R0KFrdy5aN775tWY4C++z4H4rvH/gu5LajjNZsO6tJL+a5Na89513k41HT6WOnklyKWkupY6eycaZ5/KvfsMTGY0fT8n5JE8keTylOZ/R1jBXPzk88E9DKTWlGe/9lz23gjv3D/ugAwAdEdChz9pR0o4ODu+DjUxXm79zwbqkyY98a5tkJ8nvTI+J4elkvJ2Mdh9KKc8l5ekkT2e09WzOvfRMvvDrn0379tnJnPdyPmkvpAwuZOfqZq6/MZgsbn+HOl1xPskd892Fd9aMtywA0A0BHdbVeDeZN+c9mb/Xe2qTH/rL4yRbSX5rcpTJ3TzyXPL2G0n71iCleTLJhZTm2exceTHP/6Hn8rlf/WTaq0+mlCeSPJlJ9f1CmsHDufbGMNtXDli0ro4yODVOKbd3Iuw9oD9qUUEHAI7HIVcZAjrcr0bbRw/vN14r+bFvqplsF/epJJ9KaT6c2iZP/kTyiV9PyvWNTOa0P5XUp9IML+T6m8/mC//9J/PS+5/M9pUnU5oLSZ5MrU9lMDyXt18dZncrB8x7H2d4ajT974OC+4FL1NNn90O2vR+eAwDQOzXJZpssqAUI6PAgmhfeJ6vNZ8+c9+ltKXnzN0p+8ltqkt0kn5get7aLe/O3k+d/f7Jz/WxK81RSL6QZPpkb7zybL//Pn8tTn/FUdm88nVIuJLmQ5KmUcj5vfmwwJxDVpGxnuJkI7+uj1JKy9qMiJHQAYPVqklPjuuhKSUAHbpmsNp/sHzo/mfdemtv3ep8F+KTZaPJb/yz5zQ+MkrwzPX4jZZDUcbL9TvLoc03G248n5YmkPpHSPJHR9hP5t//aheThJ9PuPj2tyj8zuc1TqaNTeft3c2cWr23KYDuDzUw7EwydZxXqbbcAAKtVF1+iCujAcmp7+17v7b6vlyZpBreH45IyKPnwD9RJUs/r0yM35703u0k9ldTx6aQ8ntQnkvJ42p0n8tDjT+er/sbT2X33YsrwmaQ+nZRnU8qF7N44lXc+Mang78tTtaYZ7qbZaO/Yd35vpwIAAPSMgA6sRm2TOqcC2TRJmoP3VP+570kmVfqtJK9Oj4nhqeTaW8l4+1RK83hSz6U057N95Xxe+P1P5N/4by/k6hvPZTCc7AGf+lya4XO5/tbDufp6zXCjpN4e3jd20gwPCu+Gza/C/bEP+vo/AwBgLQnowPFr22Te8OFmkNwe2me37ajkl75nnGQ7N+e9TyvvH/9Q8tbvJDtbw5TyeJJzaYbncvW1c/mCr3ki7/9PL+TN157NcPBykhdS67OT8P7aqWy9W/d0GOxRdzM41c5ZcV54BwDgWAnoQLfacbJo7u+tAL8/vF9/q+RD/3CcyYrzn07y6ZRmUsl/52PJR34oufH/t3fnQZad5X3Hv897zl1637un92VWaUCDJUAEiB2WgAirjaowyIANdkISyw5UjJ1ylgrYmCBclB0q4LAGQ6UwoVgqFBgqUCyKTDCgCCIQSGgZzd4zvd7uu5xz3vxxzu2+3X3vaLSMZnrm96l6OX1v33P7iJqZvr/zvO/zrgY46wH6cLluSqe6ec4f9XLkVcPEixNgY0B2TCaxoJel49ak47wHqoQFz87grjXvIiIiIvKEUEAXkcvbZoDfGt7NmlffLTDOPgjz93vSqfPngHMb4X3138L3PwJUHdAB9ADduLCbtbO9/PqH+hg+OE5tfRyzvWBz4CfBulk4yval99mPjgjzEc2r7grvu4+muIuIiMgloYAuIruTr/eda1J93xreGxvWwcI9cO6n9SZ3K9lIz/Ee/vuboNANSdwG9ID1Ap0kURdv/uwQQfsEPp4EJoBJsCmSaJTlowF++7R5DxZEBPk4u7xWAV5ERERERAFdRK5AW8P7tsq7A+d2dptP/9c4+sN65X09Gyc3zv3wq8BCwLcBXUAncbWDztFOXveFfmxxFGMabAL8NOYOUVsfZfVEgA9sR2HW+5ggjHA5GprWwW6uvJvtxqvexquCLiIiIpeEArqIXF3O120emk2b3/z6wf+zPbyfTs/JwQefDVYDyAPtmOugstzFxLO7eNUHe2FpCpjE3BT4KWAac+OUl9tYW/DpFnVbOs7HBPkIC2jRcX7Xx2ARERER2UoBXUSk0fma1rXsOJ/Ase9COm2+mo1FABaOwYm7wGJIw3sH0IYL21k51cYv/8senvf2UZZPThOE08A0MIELD7B6poNqyWM7ps7HBIVai27z6jj/eHlXn3mhmyAiIiLypFJAFxG5UBcW3rdW3aN1OPEDI62818P7wsaa92/8Ofzg0xDVchhtQBtBvo2lY228+i/7OfyKcUrnZnDBFPhp0ir8DCtnekhq27vNQ3qToEJY2H49Cu8iIiIilzkFdBGRJ0Kr8L6zYV1D0zqgdM5YnU+AWjaWN8L7F94GX30nJHEOaAOKBLkiK2fa+N0vdtD7lFEqq9OYTYOfgfqREVZO0qIAHOOCxupwq+PVy7QGXURERC4Sa7Yj0CYFdBGRi+l83ebPdw7A4vF0NIZ3LH2LD7wSXCFdU5/+W14AiuALYEV+/3tjmL8GmMnC+ywwi4/2UDrbZNo8YJZgLubxhHePaZMyERERkSZcAiuDkAQtX6KALiKyq9TD+4nGJ6NslDae+fMjvwD/nbTtvM+BKxCthQzMFbj1G8OsLswRBLNpcPezmJsjqkxRXmnDgp3rr81izNWfv7Kr7l63GEREROQiiUPwrT86KaCLiFyJVjZ2h6uH93UAjt0F7zxwDJ/8kDRY53BBjtX5kCO/luc3/6aP0/dOEub24/1hjP1peC9PUisXwW0L795jYYJZBOS4kBkCIiIiIlcrO/9HJQV0EZGriY9h9fTGIzYb18GPvgB/PHSGJPoZ2NeBHC6Xo3Q64Jm3hrzknf1EZ+YwNwvMAbOYm6ZWuoY4bsfHkMTuvLeFdwNN0hcREZGL5RE+Jimgi4hIKq5Cab7+aGt4//5fwV3/7Rz4e0kr6AFhIWB1PuCNXwq49kWDLP3sMIWuecxVG95j99EUdxEREbkYEgc9pyGIWr5EAV1ERB5ZXE1HygMRrKS/XT51M7hgBeL7wRm19TTg+vN3KRURERG5qtSbxMWtY7gCuoiIPD7ReuMjVZ9FREREWnmEKe7uSboMERGR3UH7oIuIiMglooAuIiKy1e5uciciIiK7lgK6iIhIoyCMcQG44FJfiYiIiFxltAZdREQklU5tX1u5g6D4OeLqIYp9EzjLk97QDrJh4CGqnuetRERERB49BXQRERGAJE4D+gdf+EWwL4KHW74CQwN78NU5sBnwc8AM5vbSPXSIxIqkv0vrIw3wPsm63mu2vIiIiFw4BXQREZFGLjDqS8A+dZMBp4GTwP/eeE1nH/zep43F9j0E8Ry42TS82zQ+3k+ufY6u4SJxlMMsBHJACGYkESQ1FN5FRERkOwV0ERGRRmklPQbq69CtYaSP15bhXS8y0uB+Arg9/Y5L93+fuhFe87EhVo5eQ1CYzsL7DEntAB0Dk3QO5YmjPFgBowAEmEGtDHEEpvAuIiJyRXqEvWIU0EVERFpJYtj8Vbr1V2qr8G4BHP2ecdu188C3Nl8fQhIZN/y65/lv72Lp1CFceBizvZhNEVcP0juxh7bePEmcBwpANoXeoLYOPkaVdxERkV0s62bTin7Li4iIPNHM0mr69vAOhvcenyQ0Bv4gB3HN+Md/5LnmpX2sLcxg7gDYtZjNENf2Mnp4iFx7ER8X2QzvBQDKK0/ef5uIiIg8FlWiap7h6V/iz667k4WjBua33/9XQBcREXkyuQBczoHfVn03R1wFn0TUp9jDZuX9V9/rGTgwSLQ+DW4K/DRwAOwgkzf0Y66NNLS3bQzvQ8orzafMm8WY82y9gdDsKCIiIo9fGtCHpn+Jd7cO6JriLiIi8mRKYkjipOn3gpxheQNfnwCXDhc6Pv8HHu8XgHng+1vOe8MnISgO45NpsGnwU3g/S1g4wPQzR4njIkY79eBuViSqBpSXwUJ2LIhrHt4V3EVERC4yBXQREZHLRVzzUGvePibIG2bG5uq1+nB84jcS0uB+GvjexjltvfDaDxvltT04mwKbBKaJa5N0Dc8wfeMYlVIbznUBHUA75orU1gIqJbBg53WYizHzNA/tCu8iIiKPgwK6iIjIbhBXPa16v4aFeljeGt5ra8ZHb07Y7Db/3Y1O8+PXwSveY8w/NEyusB8Yx2yK2vokg4dmGT0ySLzWjlkv+A6gCwvyrC8GROX6GvtGHucaW9ArvIuIiDxKCugiIiK7XVRpEd6tMbw7NsK7GSd/YnzgJk9adT8F1Ne7w96XGDf+U0/1VC/mrsH8FBZMUi1NsO850/TN9VMtd2DWCfQAvZgVKZ0LSWrNwju4IELr3UVERM5LAV1EROSK5VuHd3MQFgHvaAzvLjTu/5px35cTYAm4A7iDIEz3aH/ubxqzz/esLvbhbAJsDnN7qZUmue5lExTGe4lrXUAX0L0x1s+F6bZ1TbK4C+KGRwrvIiJy1VJAFxERuRr5BKIywM6GdRbUw3t92nwa4MPQuP0T8J2PJ8AisAD8aKPyXjljdO/zVNeGMJsAPw42jk/2cvjmaTra+yDuJq2694B14+MOls8EbOlJt3mVmEUttqyj2QkiIiK7mQK6iIiIbOVjiGJIK+8xjdu+BTmyTvP1afNpeHeh8be3gfcxcCYbP0wztIezC9DbA0QjYOPgR0mScQptYzzrNbOUw0HM94L1gu8B68Nop1YOWDtrTbrNbw/vZNfS+FhERGRXUUAXERGRCxfXyDrN19NyQ3jPk3Wab1jvnq1///Y7ACLS9e6nNs4ptEOwAKttDhePgo0Co5iNUVsfZ2j/BEde3UN5dQQXDoDvBfoxl6e8HLK2kK6d3xHeXZxdCzSvvouIiFx2FNBFRETkiRFXIU3KO9e8twrvcWR85j8aUAOOZSNtBu89DO6FlROOtaVhXG4K/AgW7KG8NMG+Xx7h0E29rC8P4dwI2CD4flyQY3U+pFpq1W0+btFtXuFdREQuKQV0ERERufhahneDME8WmLdV3s2x8JDxhbdHpFvFnUxPCdJp+Pd/E47daawv92NuGrNRXDDM+sIo1792iPEb+qmWBjAbBIbBj2JBkeWTIXGlIaNTv7YqYcFvvYYdQ0RE5LHJVn2djwK6iIiIXEIeovNU3tNu85Z1m28IyjnH0TuNB/++BpzNBrgAkhgWHoTx6x3VUj/mhoFxXDBBeWWMX751gN65AeLqIDAADAKjYO0sHWt6GWA1wnyCwruIiDxWnrT16nkooIuIiMjlK+023zy8uwDCogMf0BiSXc7xk7+Fu79cA+azcfdGeK8sQueoI64MgA2DHwTGSfw4L/kPQwSFIXwyBAwBw5gNEkedLD68veqeXpYFNYJ8vPMmgsK7iIg0MKCUNNs/ZYMCuoiIiOxOSQxJ3PxjTpCzrNt8Y3g3XM7xg097vI/Y7Da/KV4Hl8/hk3plfYAkGqC9f4h/8o4pKuvD6Xp3hoERzA1RXetg6XhImDN8430E73FhhMsl2f2Fetf7+tcK7iIiVxNnUEq8ArqIiIhcXeKaz7rN7xTkLWtYtzW8g/Hdj3vSbvOba94B8u1QWYGolscYAuvHbIDKaj+T1w/xwj/cw+KpMcLcGDCSNrMLhykvFCmd9VhoWycBeE+Qq2Khz7as2+x4r6q7iMiVqT7F/Tz/wiugi4iIyNUlrjafMg/ptPmdU9ONqAJ3fChtJFfvNl/vNH//t2H+XiidCwly/UA/Luhn7Ww/19w8wI2/PUztzDAEE8AM5sdw4R6WT+epLNd/ZgOf4Ao1nDVrWKfKu4jIbqYmcSIiIiIXKIlh8+PT1o9Rm+F982gYy6fgjg/XK++ngdOYS9fPn/wF3PdNiFcMs25ghCDXz/KpPm76w3723zTM6rlRnBsDm4RkFgvGWD2Rp1qmSRZPCArVjZ/ePMCLiMgupYAuIiIiciFahXezFuE9MBbvg4Wfe9KWQEvA0kZ4/9IK9H0cquUQowsYwIVDrJ/t5UXv7WPyqSMka2NgY+CzI7MsP1wgipteIVgl3bZO4V1EZDdSQBcRERF5PLxP92VvHd53Tpm3AB66Ex78YUJaeV8AFjB3Lz6Btd+F7iHwtRCsC3wPuB6Saj+v/Ngg/f2j+Oo42Dj47Mg4SdTO0lHSRY5b1rzHWFAmyNu2Ne+aNi8ichlRQBcRERG5WNLw3nzKvDlwrnl4P/49OO63hve6T/8GtBWBpAB0Ad1AF3G1m649fbzuU+NUFuZwuXHwE2ATmI1SXSuyfAJcyI7wnnabJ9sqDtRtXkTkklBAFxEREbkUfAK+1Xp3R7ofz7bwDnD025BOma9kY37jvCAPf/ViSKoFzHWC78KCTsqLXcw9p4dfe/8elk8fIMzNAuPANC7Yw9pigdJ8s/AeEeRjLGhVeRcRkSeQArqIiIjI5SZJ4JGb1e0M7z427vtGY3g/m37Lw9n74eE7IaqGmOsB2nFhB6unO/kHb+7heW/fw/KpKQI3B24/MIsLRlmdL1BdTSv+mzz4GkEhybasazVERORR0D+cIiIiIleSrQGejaP3hk8S0up79p1sq7iuEeifycK7dQLdBLkOlk6086rbenjKr45TOjuDcxNg+8AfwIIxVk45okr6PlvVCAsJrYO7PoOKyNWmSlLLY2NP4wPX/1+WjxqY37H66RJdnIiIiIg8mczqVfBW4T1me4M776F3AtoHIIlCoA3oIMh1snqmnTd9ppeR66aors5gbhr8NNgU2AGWjlvjvYCGC6kR5hXeReRqc0EBXVPcRURERK4GW7vNbyvZbOk2D/X15YaxdAwWH643rFsBVjbC+1+/HnId4OMiaXgvYtZGHHXwli8NEXZN4aMpsCy8uyl8NMny6WK6xH7LBSZYkK55T9e71xvUKbyLyFVDAV1ERETkare12zxA043Wt7weYP6++jPlbGx6/wuyir0PgAJQJKoW6Bkp8tavjbFQniGwGbBZ8NOYmyOqTFBeKKbbxG1jFmPOs736r+AuIlcQBXQREREReeKde6D+VQysZQOWT8A7jtxP4m8n/Syax1yO8kKemRcUuOVzvdQemsGCazG/H5jB3By19QkqpTzWLLy7GLN6eG8W4EVELr2sZ+e2OUw7XiIiIiIicukFeWgfIp1Nbw58AZfLsXo8x41vK/Cy2waoPDAN4QHwhzH2YW6OyuootUqwrdM8gMe5uKGLncK7iFwqVeJanv7hI7znGXex8LCaxImIiIjILhW2QbG7vo4+APKE+ZCl4zlu+S95nvbGIRZPzRG4WWAWOIhxmEppjCRyTbZt97ggpnVo1+dkEXkiVYlqeYaHjvBnz1RAFxEREZErTTZftNABQRF8AmkSDwlyOVZPh7zms3kOPneUZHUuW+8+BzYD/lpqa7N4b00+Eqfb0bXask6foUXk0UsD+tDQEd7dOqBrDbqIiIiI7FLZB9tKCSjVn0yAajbgf7wOguAMcFf2/QBzjqgS8ubbC4yMTuCre8HmsvA+Bz7d6z2q+GabvIuIXCwK6CIiIiJy5Yor23vSx9mo8bFfWcdsEfgxaeU9AHPEFUfPeMCt352icvZaXK5eeZ8Fvx/vZ/DJjjnzIiKPlwK6iIiIiFydauuNj5JspM49CO8cvxu4e+M5c0ZcM+aenePNnx9m4cRBgtxTMA5m0+YPAZM03SdOROSRacqOiIiIiMjjFeQgrsEzXp/jVe+bYPHYXoLgILjrwPZDcgALRrGdreYBSBLOu/eSiOx2F7QGXQFdRERERORiCvIQV+Gl7yhywxsmWZ3fiwvmwM8Ch/BcR75tGHOOdKq9o7E5XRK3fm8R2S0U0EVERERELmv1yvsbPlVk7PppKitzmJvbXPPOYYpd42wG92ytfLZvnMK7yG6hLu4iIiIiIpe1uJYeP3FLGbgnGykz8B5+7xshYdcsPqp3m98LzGJuH51D0ySxAwtJP9sHgOGTtGqvepzIrqKALiIiIiJyqTlHw5Zum0fD+MvneeA+4OdbzukYgLfe7lg4uZ8wPJQ1qpvD+xnCwj7ah0chcmA50s/9IZgjiSCpofAucvlRQBcRERERudSSBDbnum6d8+oC2FyTvhne1xfhTw4B/Ix65d0c+AT2XA+v+ZuA6OgkFhzGfNppPolmKfbupXNkCF8LgFw28pgZtUpa1df27yKXhAK6iIiIiMjlLF1nfuHh3QLj1J3wF/sAHsjGl3AhJBEcejXc9K4c1YfGsHAO7ADGYeLqPnpG52jr6yGJ0tCe5oUimBGtZ9ei8C5ysehvl4iIiIjIlcYsraY3VtzrR+/BJ57Gfd/rzepe/DZ46mtzLJ4ZJ3B7gWnMDhJXr2HgwF6KXZ0QF8AK4AtgRfBGubTl7URkh7RJ3MjwEd71DHVxFxERERERtof3rQHeJ+D91k3ZXS5ds/6P/hT2PT0kKU2kHeb9NNg0Pplm6inXQlsPPikC9dEGFPAeyivNps0nYEm6/n7LdWy/qSByJagS1/L0DBzhvTfexeIxBXQRERERETmPIAQLDXzjtPk00ceVeniPqKeKeqf5N78P/GwbSW0amASmgSl8MkNYmGPi6T34WjtYG2lwb8OsQBxBpdQ8vJsl22YBuOyoDCO7j6cKUZ5yx3V85B/+iNXj2mZNRERERETOI46AyLM9NUBaSQ9cPbQ7GgP8R95qQA34aTY2FXvgdZ8MqC4dwIWTWeV9iqQ2S/vADFM3tFOrdIB1YXQA7ZiFVMuOaqle7W+UYC7BmnS9V3iXy5WR/q0K7Lx/ShXQRURERETkkSU1SGge3sM8WRl8a3AHI1p3fPTlEfCTbGx2mx85BK+8LWDl7AQuPIQxi7lJauUZBmcn2HO4k1q5HbNOsC7wnZgLqKw6auXm4d25pOmWdVuPIpdG879BGxTQRURERETk8Ymq0DJ6GISFZuHdMX+f8V9fHgEPZiPtTJ/EcPCF8Jx/nmN1fgTn9oI7gAXTVEvTTD9zlIG5LmrlDsx1gu8E34uFAWvnXIut4jwuiGgd2hXe5ZLTH0IREREREbk0zEGQb77mPYmMJIpI17yngjCdhn/jb8HBFxdYXxjDginwE5ibpVo+yKEXjtA+2E1S6wTrBN+VHslTOkuL8qXHBY17yCm8yxOtio/yVDuv40PPbbkGXX/QRERERETk8uMCcDkD31h5J21YVwWfREC8+fpsn/cX/AEMHmgjWh8HmwA/Dm4CH41z5Oa9BIUevO8GsmHd+Dhg+RRZR/ltzOOcwrs8XhcU0DXFXURERERELj9JDEnsaQzhdUHOsLyBD2isvLvQ+Pp7wfsKcG82NrvNR+sQdnbio3GwcfDj+GScXNsEz3j9BOVSD+b6gV6gG3NdROWA0pkQaxKd0k7z28O7grs8ZgroIiIiIiKyu8Q1D7XmrbaCvGUd3reGdzC++G88UALuyUYq3wHEsLJQIAhmwfYAo8SVUXqmJrjudaPES51ZeB8CP4gFXVRWQ9YXHS7YeR3mYsw8zUO7wrs0pYAuIiIiIiJXjrjauk922qxuZ8O6pGZ85laAKvWt4upV954ZKNUgmQ/BTQCzOJuksrqH2WdOcOglI5SWunGuD2wQ70cIgg5WzwZUVmga3tNO8/VrVHiXDQroIiIiIiJydYgq5+s0n32xrfK+esz4n2/xpM3qHgAe2Og0P/t0OHMPLC0WCNwIMI4LZlhbGOWGm8eYfNYga8t9OBsABoB+LBigdCqgVia9T7BN2qyu4cKaHuUKpYAuIiIiIiJXOQ9RJfti25p3cxAWyTrNO+rVd5czHrzTuP/vPWnl/SHgIVxwB0kMiz8zJp/tWVtux9kwMIILh6ksT/C0N00xsm8QXxkA6wc/CNaPMcjiyVxj4/oGCVg13XN+29T9zRkBssspoIuIiIiIiLTiE4jKsLnPe7LxPRfUw3s9IKcB3uWMH38NfvSVBFinXnm3AHwMZ07AyD7w5Q6wYfDDmBsiqg7z0t+fgKlRfDQENgg+OzJEEhVYfLjZHu8J5qoEeXZuWafwfllp7EjQhAK6iIiIiIjIY5F2mofN0L4Z3oMQrGgNlfcsmuUc93wOfupj0oZ19wP3b6x5tzPgh8HHncBQNgZJoiHaeke56d/3UqtMYsFY+kIbxqyf2nqBpRPZmvfGWfw+xoURLofC+yVUbxcY0apDAqCALiIiIiIi8sSLIyBqvubd5SBwO5vVgfGdzxjpNPvVbNy/cV6uDaqrENW6MLcn7SbvBqiWBtlzeJjn/+s+SoujuGAKYxQYxgV9rC8VWD2T7hW/NbxHuFycPb/9WpptCi+PlQGJQW/FE7RO6AroIiIiIiIiT6akBgktwnsAW4MyG8e4atz+wQRYycbPNyrvXcNw9l6orOUwN4oxhAv7WDs7xOGXD/Ks3xmidHYPLkib2Xk/SxD2sXImpLwMbnse9zWCQpJtWddqyAXzaUDvqoJLWr5KAV1ERERERORykU6Zrwf3Rwrw6dcGrM4bf/fRGKhRb1hnLl1Df/oeePDvoLKax9wA2CAuHGH1zBC/cusAB188wvrSHsyNAiPgp7FwkKXjRq3cbM17TFiIaB3cFd5bSc7/f48CuoiIiIiIyG6xGeC3hnezxvBePxoWGPO/8Jy5NyHtNn8COIG5H+ETKJ2B730SauV2zPqBHlw4yNrZIV753kFGrtlDdW0MszFgFBjDbISFowV8s0qwRYT5xvC+cxq/tKSALiIiIiIistt5n3aIb1Z93xne0/nsFhjH7vQ8/DUz0iUAAAQKSURBVMMYWMvGwxuV98/9K2gfhKTWCdYLvgdzfUSVHl774QlyXWP4eAzIho3j4yHOPRhmP28rcxFBPs4urVlwv+rDuwK6iIiIiIjIlWxneN/c690cOLd1rXu98n7fd+on1hvWPZy+xMNf3wJBHnzSAdYFvock7qa9r5s3fXaIlaURjL2YnwPGMTdJtD7A8vEAQtvWrM5nnebjhq730Ljv/FVCAV1ERERERORq5RPwLda8Owc0Ce8A936rvid8KRsnAQhy8KGXQbVqQAdGP2ZdVFe7GL2hm5e/f5Bofg/mpoB9mJ/BhZOsLXWzejokzBl+e3jPVXGhb7JN3BXXbV4BXURERERERHZKEmjVsG7nevf06BP4f1+GNLxnlfes6n7sbjh+N7AOWAHow4VdrJzu4Fm3dHPTvxtk/sw4YTANNoFPZnHhtazPd7K+5BtuFtQvyeMKVZzVdxnf9eFdAV1EREREREQenfN1m2+1VVy0Cg98A9LwXgFOYnYS7+Gb/xnu/ipUK2BWALpwuU5KJ3p57h938YzXDxEvTIJNAVPAOBbsZ+3UINUyTWbBpz8jLGy/lss6vF81c/lFRERERETkUrL6futNKu8efFKfNp89m+3x3jkG3aNAZEAb0EaQa6d0upNXfKSbA88dJV6ZApsG33gcZuWYkezYrS4BqxHm69ewPbhfhJzsq0Q+z1DyVN79oh+zcNLA/PZ7G6qgi4iIiIiIyJPAt668b+00v3WP99IJY/V4Qhre027zZmfxHj7/O1DsIQ3vVgTfDtaGWRtRpYO3fH2MQnE/3s+An84q8NP4eJCl4833eE+7zdNkzftFb1ingC4iIiIiIiKX1tZO89v2eN/oNL8zvC8+mJXZiUkXt69vOfeDL7gT50LwRSAdca1Ix2A7/+KrQ6yXDhHkDmThfQZjhqjaQ2neY8G2bvN4zCJsyyyAxqnyjzu8K6CLiIiIiIjI5et8neYfyZl7ACI2t4pLnX0AbrsefPK/0oZ1vogFRcqLBWaf3c4bP7OH5VMzBMEcuGuB/ZiboVrqprLSLLwnmIsx2zl9/1EEd61BFxEREREREakL89A1kk3HtxxQxIUFVk7leM4/6+AV/2mUxeN7CcJpsP3gr8WCg1RW26mVPba92zwe59aJfTv9yVN5T+s16AroIiIiIiIiIhci1waFrmw6vjkgT5AvsHw85NV/0ckzf2uSldN7ceEM+DlgGnOHqax2UakVmKw9lT952Y85d0oBXUREREREROSJle3zXuhKA7xPHOly8pAgH7J8PMdvf6Wbw4efwvsmvsVDe5fgF5vnbXsnEREREREREblY8u0QBFDOg18k7WknIiIiIiIiIiIiIiIiIiIiIiIiIiIiInLZ+v/ommnsSmzikAAAAABJRU5ErkJggg==;" vertex="1" parent="1">
          <mxGeometry x="114" y="244" width="32" height="32" as="geometry" />
        </mxCell>
        <mxCell id="jXO-OSJdq2ioLEKXHTDI-38" value="" style="shape=image;verticalLabelPosition=bottom;labelBackgroundColor=default;verticalAlign=top;aspect=fixed;imageAspect=0;image=data:image/png,iVBORw0KGgoAAAANSUhEUgAAA+gAAAPoCAYAAABNo9TkAAAACXBIWXMAAAsSAAALEgHS3X78AAAgAElEQVR4nOzde5Dk+1nf9/fz/f265z4799vuXPd2bkJIQgh0QUISSLJkChCI5MgYiBAIiAMhxkVBjJPCdhIXcQUSMEn+CIXjpCoVJ44Tl8sVl/8lVYGKBKaM4whdztG57p69zc7OTHf/vvmje3Yu23u0Z8/smd/uvl9Vrd6d2en59Wh3pj/neb7PE0iSJEmSpHsXAZEOvYViIGhtBX/h7xW86weX2H3pbUTjHOQN4DTt6ruYrd7Pf/qxP+PKSwGRIR962PKtfA6SJEmSJD0UIkHROPQWikZiZzPxoZ8p+PjfmuLV59coiouQnybiPOQ1iPO0Lg8RjdsfBnkXognxuhncgC5JkiRJenxFQGOYXjU7iFSws5lY+1DBs//zKbi8DuksEeuQLwBvo2pf4MoLQ5RFBqIbwrsf/mYY0CVJkiRJj77Bse59JghKiILWVsHcE03+yh+sc/OlJyiaG92W9LRBbl2g9eJitxW9X/IO+r/9/hnQJUmSJEmPhuEpiALIBd282yDnJqko+Q/+r2lysUHOTxE8AbEG+Sy5WuXKVzIRQWt7/7EiKiJ1Djz60TL5sYZzMKBLkiRJkh4KAWQYGoNiEHKGvRCeyiZbV5r89D+eYPLsGu3tjW4A50ngKeA8t270e9AMdCjKvSr5wfAdQOr3QQ+KAV2SJEmSVBO9ED5wCgZPAW26w9VoUjabXPlGgx/93QnOf2qNG1fWScVadzBbfoIonmHrWsHmq/QpbndIxcFW9YNhvHjgT+seGdAlSZIkSW+9gRGYWIJWG4IEMUjRGOH68wN86NeG+eAvzrD9jbNE8TSRN4AVIp1l6+o0r3w1jqw5g24IbxNlrUP46zGgS5IkSZLuTSqgfxU6qDrddvGDygbMbUA7IGgCg6RiiM3Lw7zz+4f5zN+b4pWXViiLFYhz3Up4usDOtWle+2L03UoWqUPR6NeS/lCE8NdjQJckSZIk7UuJ7u4x4PVDeL79MZFg8enuhHRihGCI3e0h5teH+Zl/MMWlWKWsViGtQLVOFE+xs7nMl/8IijJ658n3HrYiNVoUg7n3KVLvtnctD30QvxsDuiRJkiQ9biJBRL+p5EFVAVWHbjrO++/KsPAUFE3IeRgYBYbJ1RCN4VG+8E9maLUvkIrzkFeJtEJ7d4WvfGOCxJFVZTkTRYvmSL69f3w/iAM0D+b/x4UBXZIkSZIeRRH0zmnfGcRzBVVVcTCER4JcwfwTMDQJVbsJMQKMk4pxtm+M8bl/OMXI/DLt3XME5yGWIS+T8zSvPdfvGjo0B3YOfP69IB5AA/Kxryp7mBnQJUmSJOmhFb2W9H4hPNNrSa96b8u3Q/jMWZhcht1bDSKNAqMUjVGuvzzGZ353ltXvXGb7xgoRZ4BzkC8QaZorz8POn3OoGN4N+LuUAwfPhR+8DTzIr8CjxIAuSZIkSXV353C23n3udaOzXw2P6O4IH12C0++CarOAdIrIExSNMa69OMbHfnWCb/3MEtdeXqdorAKnyfk0RbnCtRcbvPgvOTIlvRfCmxnKfiG8+cC/Bo8BA7okSZIk1cV+ED8cxrsh/M7hbM1RWH4vFB3oVqoniGKKW5cmuPgDp/ie/3CGnUvLRDpPsErOSxTlCpuvDvO1P8ykRhw+6507FM0dGkOG8BNgQJckSZKkt9LrT0mv2K+GdxUFfOv3wO4wRDUITBAxQWtrgumLs3z8N+ZINxeJWII4DXmDKNbYvT7Ky3+YiSMhPOdM0dilOVpBPjohPWFL+okxoEuSJEnScXv9Kem3+9I5OiX96b8AxUBJZgbyBFWeYGBwkr/0G/NsjZ4mqiWIJcgLRHGG9q0z3PhXmXz7c+09bCbKFo3RTm8Q28EJ6b1q+OM3Jb3uDOiSJEmSdD8OT0k/GJATucp3nZJ+8SMwtgid3VFgHmKeSJO0d2b59G9OU46uQF6BvACxSK4WeP6FAdKlftfQoRhqH1lVtnc9JeTGg/sC6LgZ0CVJkiTpru55SnovhBeQOxVr7wkWns7s3homYgaYIpWzbL22xCf+4xnmnlxgd2ueiJXeqrJFIoa48jzkO4J4ptnc6cW3o+fCE2Rb0h8RBnRJkiRJKpp7LemHd3XnKui0Mt0BbR0OriqbfSY4/z2ZztVholikG8KnuXl5ju/83GnOfXie7WvzRJoD5npT0ie4+kLw8p8dOIYOHFpV1ndKuiH8MWBAlyRJkvT4KAf6hN+caO8CtNjbGR7RIWc4tQDv/ixsbiZSzACnibTA9tVpzn58nnf96AKtV5aIchGYJec5inKaG682eOFP9qrvB+QWxUBFY9Ap6bqDAV2SJEnSo6VoxpFq+H5VvL3TBtqH/nw5CO/5eRiIgGqqeyY8zrB7c5H5i3N898/Pc+3aFEXMA0vddvRyip2rTV7pOyW96k5JH869KekHz6h7Jlx3ZUCXJEmS9PApGkEU0ZtQfuAWic5OJucW+3vD933wr0KZJsnMQ54jVws0hpd5z8+fpllNAdMQM8AiEXO0tof42pegKCEf2heeSeUujUOryjhw75R0vWEGdEmSJEn1lApIjXQkhNMN4buQW4dDeCq628ve+1MwfrpBZ3cFYg2YBxbI1TIf/MVZijRPZhryFKRpcvsUN16AHfY/xW2RaQ53Drzj4H2jd23SsTCgS5IkSTo5kboD2g63gncr4VUb2tttDoXwEqo2vPMzsPreBjubC0SsQqwTxRK7myt8+1+eYXT+FJ3WLDALMQV5HAKuPc+dIRxIZefAm4+GcXOT3hL+RZMkSZL0gAWUzd4vDk5JjyB3gvZ25uCAtr1K+Nn3w7f+SMHWlTlScRpYIBXLbN84y9OfWmTh6Ql2b00QMQ0xC3maSInNV+HyV49OSQfokMrMoWr87fviQX4FpHthQJckSZJ0PO5cVba3pzto78ChKempQ65g5mn4rl+GzosTpOYG3bPfZ9i9ucSZd66z/r4ldm6OEukUMN4N4eUAW6/B5a90K/CHVaRUUZQHA7ghXA8FA7okSZKkN6ZsRq88ffjW3gm6E9IPD2cbmYRnfwdu3Eok1smcI7FGe+c0p9aWufCJJTrXJ4higm4IHyeKEXZuBJe+DFFyZOBaJlKHotEvhB8c2CY9VAzokiRJku70elPS2zsdyK07PuZ7fxMmxoD2MsQy5BWqzjkGRs7y5CeW2GmNETEGnIJ8ikgjtLcLrv0butHkyNTziA5Fc68lHQ6HcLOMHjn+pZYkSZIeV6mEVL6BKeklVO3gU/955tTcIp3dVWAZYgWqM5z93os0m5OQx4ARYBQ4Re40uPxir6595Fx4REVqVtwZwnvt8f0mukmPJgO6JEmS9CiLRK8V/M5KeNWK3pT09u0/XzSg0wo+/IuZ9e8a5daNs6S4ALFGxBnaO+fZ+K4ZmoOj5DwCeRhiBPIQ21fh5sGC920VZXm3EB6YSyTAfwiSJEnSIyCgGIC4XQnvVZ73pqTvVHRDeG9Keq8S/o4fzrznc0NsvrpOKlYgzhHpIq1b5znzjjnG5odpt0YJRiGGIQ8REWxdg9ZN7gjiqegcOP1tCJfeIP+RSJIkSQ+LcgDumJBOkHPQ2Yb9AW0VkSBXsPFt8H1/a4BLl89SlqsQywQbtHefYnp9mcnVEdq7g0QMAcOQR4lUsrMF1185uqosAx1SkYnSVWXSMTOgS5IkSXWSCujfCk5vVVmH29PUogMZxs7AD/0DyJfGiPQ0kc8Dq3Taq4xNbTD9xGnGWo1eCB8EhokYoLUNm5eOrirLdAO+q8qkt5gBXZIkSToJkQ7uDOf2fdWBbit65uBY81TCL/wz2EpjRGcdYgN4kty5SDm4zuzFZdhoQAwTeRAYIKKg3YLNq/32hXcVjTuujP3qvKS3kAFdkiRJelD2QzgcrkIHuYKq6rajw965cPjC78Dgt47R2lmHWIfcDeLwFKfWVxiPJuQm0AQGgJJcwc7lAw/f5zok1Z4BXZIkSXozIvYC8MEd3d3fd0N4xX5FHIomdHaDH/y7mfUPrrOz+QwRZyHWyZ1VJpeeIQ1OkKsG3dfrjd4NdrZe70KO/7lJeksZ0CVJkqRvKiAdCuH7YTxnqDrdc9t7Q9S6q8rgQ/9e4r0/O8/1V56kKJ6COAeskNtPMjIzSznYYGiipPu6vAQSrRaw+dY+PUm1YECXJEmSvqm8dzY8335DKqDqVDz1Cfih357g6gsXKMo1iIvAM+TqKQbGliiaTSZOF+yH8ICAzi60tk/m6UiqJQO6JEmSdDcRkDPMPwl/5V8M8fKXn6AxeBFYh7xO5gJl80k67TFGZ6E74Tz17rst7oZwSffIgC5JkiQBNAbhV/9ogBvtZcjPEPlib0DbBpHOcmvzNGO3Q/j+LvKcodM+ySuX9IgwoEuSJOnx0G1Jhx/95yVnNs6Qt8/2VpU9A/lpyGfZLVcZKPtMW8vdM+WS9AAZ0CVJkvTw6q4x2/992Qx2bwWf+y8KVn9ggc2ts6S8AZztrSx7GniSvN1b/p0PPtjeOXNJOhEGdEmSJNVbKqEx0D0L3j3fXVI0C25dDT7164O85/NnuXHpbRTFuW4IZ52q8xRbN8c4tP4793t0SaoNA7okSZJOXiRoDu2FcIBEKgu2rxd827ODfPq3T3P1GxsUxUVIbwPOQTxB1Zpi89VuFd3qt6SHnAFdkiRJb40IGJiEyNAdsNYgUsn2tcTG+wf5yf91gWsvn+2tKluHfJaIb6XdPsOlr2Qi4sA58O7e8UjtXov7Xq386J5ySXpoGNAlSZJ0vEanIScgd0M4NKhaJcOzDX7q/x6luHSBVD4Bsdadkp7OUbXPc/m5JhFHh7FlItoUJeyH7nTg3iAu6ZFhQJckSdIbEECGwanuuXAqIApggIgBWrea/LU/GIKJ01Q7G2SeIvITEOvkap1bXx+nk/o9boeibHNnBTzwNaukx4Tf7CRJktRHL4gPT0FzBHJVAk2KRoPNlwf59N8f5uL7FqlurPcGs12E/CSwzua1KXiJPsXtTGrcLYQXb8GTkqRaM6BLkiQ9tnohfOgUjM5Bp50IBiEGKRqDXHtugB/4r6Z5+6cvcPPSOVJaAdaIdJHtK0tsfi3BHdXwTCrakPqFcPD1pyTdld8gJUmSHjapgP5V6L1J5hVHd4o1R2D2HLTbBcEwMEpqDHPjpUHe/4UxPvor81x7+RxF8QSkDcjLRLHC1uUBXv6X3Snrt+WKNNAmNXLv8wb758FtSZek++Q3T0mSpDq69xC+H8RTCUtvg04VBEPAEJGGuHV1lPMfGuPZ31vg2kurFMUGpCeAs6S0zK3rw3zjTzKpiAMPlyG3KZrbNIZTb+DbwTDefJBPX5IeRwZ0SZKkkxIJIt5YCAdYeBeUGWAIGAGGae+OML4wwk/+oyVu3VglpWWIFcirRLpIa3uS577YL4R3SOUOzWF6o9dhv2+9BBpHP70k6cEwoEuSJD1o3SAOR3d15wqqqrvPey8FR0DOcOYZKMeg6gQwDnkcYoTcGeOz/3SCEVYhn+uF8GVIK1St07z8/xbE0eFsuSKKvRB+sBK+N5ytNIRL0skzoEuSJB2HiL1z2kd3dQe5ylRVRTeId/9crmDqAkycAXYLiBHIoxTlKTYvT/Dj//0Ep56YZ2fzDHCO4BywDKxw7Tm41i9QR5vG4A6HA/jebcAQLkn1ZkCXJEl6I+48G96rhueg6nTYT8Gd20F8+izMP1HQ2hoh0jipMcbNl8f44N+Y5plPLdG5dho4A5yGvEYqL3Dl+ZKX/pQ7q+F0KAdapDsGsx2ohkuSHkZ+A5ckSTrq7gPajobwfLslfXQOVt8Dre0GEVMQk6RynM2XTvHen5vlO35ijc1XVkjlaeA0UZ5h6+VpLn2pz6qyXFEM7NAY3Pu8B4N4AgYf2HOXJJ0YA7okSXo8vf6U9L1z4XCwL7w5Ak9+DFo7iYhJiAkizbJ9bYpzH5zkY782y41LK6RynYgVcl6iKGbZulzw/B9BlBzM9qRmi3J4tzec7ei6soEH+OwlSTVkQJckSY+ubz4lvdN7234Ij4B3fB+0C7qD2ZiEmKS9M8fkmVl+8LdmuXV9iVQsAqeBs0RaZPdmg+f+n+6qs0NnvXOb1NimMbK3qgwOTUnPjWN+1pKkh5QBXZIkPdxeL4R3p6QfXlW2dy78wvfD6ChUrWGCOchTZKZJMcmzv7XCTmMB8iKwACwSsUK7NcKLfwpRcCSE96akj+CUdEnS/TKgS5Kkh0MkKJpxOABHULVSryW9xV5beiq6FfKnPwqTF2Bna4hIU8A8KS2wc32Gj/6dOaZmZ+jsnCbyCjAHzAOTvPgcxB2BOhOxQ6PvqrKEU9IlSW+SAV2SJNVHBBQDcWcAjkTuBO3tFntt6SlBVcH622Dt/XCzPUDKU8AMqZzn5uVFPvoL8yy+e4bt67NEzEMsQbVMFNNcfy64/Br7RffbOjQG2oc/v6vKJEkPngFdkiS99cqBfuE3yDnR3u7QrYZ37bWkz56Ht31/cOvGNEW5SEqz3Lw2w7s+vsST33eaze05EnPADDkvUpQLXHux5IU/6Yb5Q3JFMbBLWUL/KekOaJMkveUM6JIk6cEom/SWeB/d1R20dw63pBNAhtFZeO/nYfvmMFGsECwRaZadG4usvHuOdz07w9a1RVIxD0yRijluXh3luX8dpKOV8NyhaO7QHILD4ftANVySpPowoEuSpPtXNCBSv/AbtHeBvN+SfvBjPvpL0GGAyPMQ8xDLdHaWOXV6gff9zCTbN2dIaQmYBWaIdIrdm8GL/6q3Hu3gqrKyRXOwc+Aa6N1bCZckPVQM6JIk6fWlAlLZZyhaBJ1dyK0O0GavGr7Xkv6xX4U0EFTtFYhFyItkFigba3zg5xbp5CmCSWAaWCBigvYuXPrzPlPSyUS0j1TD935dAq4qkyQ99AzokiSpNyG9AYdbwbvvqFqJ9s7hEJ5KqNrwwc8H089kbt2cJbEBeYkoFmndWuQDP7dC0Zyi6swCk8AEMEnODa48T5/hbEB0KBqZwwF879e+bpEkPdL8QSdJ0uPkbqvKcjsdORde3Q7hZz8RPP2pTL4xCnEGYoWU1tm+foZ3/fAZxlcn2d2ZIvIM3RA+QcQQ11/uPdQdQTyTyg79Q3jxgL8CkiTVlgFdkqRHUf8p6YlcBe3tNt1q+MFVZcEHvpC52hqkYAXiNJGW2N1cY/k7z3H6nXPk7XFgHJiEPEMUQ2xegstf6Qb/o1LRZn9y29Ew7msQSZKO8IejJEkPq7utKoM7W9IjIGeYWoVP/EcFN68uUzTWiTjN7vYZFtbXOPuBVbZap0gxBoxBHieKU+zeaHD9K+zPXzsgpTZFo18IB19nSJL0hviDU5KkOktNSPe6qqynOQzP/nfQ2p0kWAXOQbFBZ2eF0dkVLnzkFK1bE0RxChgl0hi7201efZE7V5UBkSpSY69X3RAuSdID4g9VSZJOWlFClEfOhe9NSd+Bdt6rhnftTUn/4d+G5vgUubMMsQJ5mVydpxy4wIWPTNKpRghGgVMQY0Q06bTg6vN3TkmPyJTlwaBvS7okSW8xf9hKkvRW2J+SfmRPdwSdFuTtikNT0htQteC7/zYsXxyk2rwAxRrkVYhuED/7gTMUzRFyNQyMAMPAKDknrr/SbWs/LPempEP/argD2iRJOkEGdEmSjlP/KemJqr3Xkr4XwiuKBnRa8N0/C09/OnH90gKRLhD5IpHWae+ssPRtGwyNn4LWMMQwMNS9RcGtq5A3+11Fh6J0VZkkSQ8Zf0hLkvSGBZTNe5ySXkDVgbWPwof+WoIrsxBrEOtEepLWrTUWnlhjfGmSyZ0BiGGCEcjDRGqysxlsvUqfVWUVqaiIO6rggZVwSZIeSgZ0SZLuJhXQvwodtHe6VfA9e+fCl94BP/S7Y2y+8BRFcxlijap1lpG5p5laW4JWE2IAYqgbwqNg9xbcvNKvJb37KVPfH9e9FnlJkvSoMKBLknRQKvanpVedDHR679mfqDYyDT/5vyW2Ny8QxVMEFyFWyO3zNMc2mDw9zKm5ASKaQBOipGoltl+jTyW8q284lyRJjxMDuiRJB1WdqhuiM/zMP4ViZJ3cXgeegvQEudqgKM8zsTxCVXWr4cFeEIeqDdvX7l4NlyRJugsDuiRJAKnoVsw//49/gJGZn6DTeoJTS6d6/eWNA7cCMuxsYjVckiQdJwO6JEld3bL52NK3Mzb3STqtRHvnm/xxSZKk42NAlyTpoM5u0N7prj+TJEl6Czn9VZKkw/I3/yOSJEnHz4AuSZIkSVINGNAlSZIkSaoBz6BLkt68ooQogIDOLuTqpK9IkiTpoWNAlyTdm9SAsknviHYABWWzYOtq4kf/E1j/9CrDszf4rQ+8yHNfrIhkUJckSXoDDOiSpH1FCc1hyAdCeNEouflawft/ucH3/o1pdr66TpRngQ3gLBFrtHbOc+PaOMXYr9DJf6f3aN21ZZIkSbonBnRJepxEguFxqG7v8C6BklSU3LyUePpTg3z29xe58sJZynINYh3yBqR1OjtrXP/TIUiZw0vAM5F2iABoYyiXJEm6LwZ0SXoUDc/2InQGSBANWttNZpcb/OL/PsZr5SpF1Q3e5A2IVYLztFsLXPpKJlKwe2gPeCZSRWq06T7yXkDfu0+9WO7wUUmSpPtkQJekh06vc3xkpnsuvFsObwBNyA2IJl/40ggjnIbWBsRaL4RvkDtP8tK1aYJMK+LIA2ci2hSNvU9y9D5xuHIuSZKkY2RAl6Ta6QXwwWkYGgc6AAUwAAxSlANsXm7y0/9kkukLa7RvrfdC+FqvJX2drVdG2dp7rEMyRdmmfwAHfy5IkiSdGF+ISdJxSAXcLfTmHOSqAvZHmkd0B7GNzsD4ErR3gogBYIiiOcSNb4zwsd8c4p2fmadzZQ1iFejd5zUiLbH5SuLqc3BHIRxIZZswhEuSJD1MfJEmSffq9UJ41Qm6Abzi9pC0XiV8YBRmzkK7XRAMA4MUjSGuvTDIR/7qKB/+pRkuPX+aslwFViCfJYon2X5thtf+JPoc686Q2xQDLYpy7zz40Zvf3yVJkh4yvoCTpINeP4TDfgDfn1SeSph/e7cJvXsWfBgYItIwt64Oc+HDo/zIf7PAtZdWKcqVXhV8hVSssXV1hq/9UZBKDg8/zxWp2aIczpD7BfDGg3j6kiRJOjkGdEmPl0gQcbfW76DqZHqHvjm6Lmzl23pN6lUJjAOjdFojjMwN8yP/0ykGqjNEXoZYgbwKsUzEMq1bYzz3xUwq4tBD5lxRlLs0RzLkgwPYUu/WdGOZJEnS48OALunRE9EN4v3WgeUKqipzqBWd/TPhp78FmmOQqwFgDBgFRqg6o/y7/+c07TRH3l0hc57gHMQKub3E9a/DTr+LyRVR7NAc5i6V8IFHJoR3m/wPfs0lSZL0BhjQJT2cDofww/c506uE74fwSN1wPnkOJleA3QJiGPIYxChFOcrmpXGe/b0pZi6eoXXrDBHLQO8Wy7z859E/ekabYqDT+456NIAnHqUQLkmSpAfGgC6pvr7ZZPSq02E/+ebbIXx6DRa/BbY3ExHjRJ4gNca5+fIp3v8r47z9B+fpXD0DcRro3VfLRDHJtReCV/51v8noHRoDLQ4H771fF/j9VJIkSW+SLyglnaxvPpTtyHnw3mT04UlYfz+0tgsixoFxUjnB5itjvOfHp/jQz81w+dIZynQeWCbnJVK5zNarg1z6UobUpxaeWxQDFY3Bfq3oCRg85mcvSZIk3WZAl/TgpcSBkvQ9hHCgaMLFvwjNAPIwxCTkCSJNsHNjkjPvmOKTf3uWzctLFOUSsAh5iVQusXVlhC//YaZsdNvdb8uZ1NilHK4ODGVzMrokSZJqwYAu6c37ppPRq7yXxDlaCX/7D/aWllVjwCQwSdWZZGB8gk/+lzMMsgB5EWIJ8hLEIhHztG41ef5LvQr80RBe7jIw2i+EOxldkiRJtWVAl3Rv+g9lOzgZ/c794Htnwp/8GIwtQmd3HJgGpoiYpr07zb/1X89TpQVyZwWYBxYh5smdKa5/DW71u5hvOhm90Xu7JEmS9NAwoEvaFwmKZtwZeiOo2kHV7tBtR+8G8VR0C+Pn3wuL74CtmwOkNA15GmKaVEyzdWWOj//1aabPzdK6NUfEAjAHzBMxxaWv9XaDH83T0aEYaN9lMvqjtZ7sUeJ/FpEkSbpvBnTpcVMOQP/Am8hV0N7uAK3bf36vCr7wJDz5Cbh1Y5iU5oEZUjnLzcszvPfH5zj30Vk2r86RYhaYg5gjV/MU5SBXX+Cuk9HL25PR+7WjDzzIL4WOWabf/8eSJEm6RwZ06VFUDvQL4N1bewegzf5gNm6fBx+fh2//CdjeHOqF8FkizbF9fYFzHzzDO59dYOvKDKmYBWbIeY6inOLGqwXPfXFvIvsRTkaXJEmS7oUBXXpYFY0g0t1CeKZbBa8OfUzZhI/9EmxXQeQp9lvN52jdWmB6Y573/cwUt25Mk9IMMA15liim2bkxwDf+uN9QtorU2KU5ku9+HlySJEnSN2NAl+oqlZDKPufB6U5r6+xmcqvFwUr4Xjv6d//70BxvUrUXIBYgz5PzIo2BeT78C4vsdCaJPA0xdfu8eDBGewde+Tfdz330fHdEh+bQwcPiB++djC5JkiS9SQZ06SRF0a2E3zmULVG1oL1d0W1H36+EpxKqNrznx2H2YoPdrUUiLUJeIGKFdmuVD/zsHI3RKXJnCpiiu75sipwHeOVrvWh9x1nhDNGhbB5858H7fv3rkiRJko6JAV160CKgGOg/GT2394aytW//+b0A/vZPBRc/kblxdZQUS8ASsEgqFtm+sco7PzPNxOop2juTwETvNktEkxsvQ36NviO1i7JN/wAOfk+QJEmSTowvxqXjcPfJ6EHO6a6T0ZffAd/5U4mbV2ZI6QzEEiktcevGIk9+eJnT757h1uY4KU1AnoA4BXmSSAU3LznrANsAACAASURBVMFrX93bTX5QRSqq3vn0ves6eO+/e0mSJKmGfKEu3auyGb0dUvc2GT0CcoaJ0/DJvxlsXZsmxQqkc0RaY3frDHMXlzj/oUl2tsaJNA6MQz5FKofYuhrd8+B9O8srUqq67fHdz3bgPvVu0lspessA3LMmSZJ0nwzo0kF3n4yeaO9WkO+cjF6U8OxvwzZBVGcgzkA+DbFMZ3eZ0ZkVnvzkOK3tMSJOAZMQk0QapLUFl77SPYt+x1C21KFs5gPXwIF7Q7gkSZL0iDGg6/ESZTdQkxOHAzgQRd/J6KmAqgPf/xswMjdGZ3cZYgXyMrBMpBWe/sQy7RiBPAqMAKPAGBEDdFpw9fl+ITwTUVE07jYZPR34vSRJkqRHnAFdj55IUDRfbzL6nTvCiwZ0Wm0+8kuZlW8f5dbNDVJcAFaJWKbTWuX8h2dpDI+QOyMQo5B791Xi6iWIgzn70AW1KRpwOHzv/drJ6JIkSZIAA7oeVnefjJ7InaC9vXcevBvC9yajP/OX4Nv/naD1wixRrAErEN0Q3tq+wPI7ZxidHaLdGiUYhRiGPEREsHUVdjb7XU2mKDo4GV2SJEnSm2BwUH0VA3tjp+42Gb3NwfVkUUDuwNp3wCd/vcn1V1coylVghUirtLfXmLqwzvT6NNW5AUhDkIchhiAPEilx6zpcf6U3C+6QDqnIvesBQ7gkSZKkY2ao0MnqTijvH3o7O9Ctgh84uN0dE82pM/Ds329y69VvITVWIK9CWqPaXWdkZoW5i6NM7Q4SMQgMAkNEGqC1FWx+gz6d5RmoiFRRlLaiS5IkSXrLGdD1YEWCiLtVnYOqU7F/Fjwf+rjP/jMYzqPQWQfWgFVgjVxt0Bg6z8KTo1RnB4k0CHkQokmQaLdg60q//eBdqdn3StkfzCZJkiRJbzkDut68CHqryeBoCM9VUFV7IXw/gHfPhAc/+vuZifXTtG9tQKxDXodYhbzO9MVVEgOQm8AA0OjdCnIFW5f7taL3Prs5W5IkSdLDxYCue9MN4dCvCp5zUHW6LeJ71fCyAe1W8P2/mHnis6PcuLlKYgNYh9gAVsmdC0ycnqZoNsl5L3w32Ktit24ePGHe/5ok1UcGovIfpiRJ0n0yoGvf650H74bww+3oqQFVK/iWH8989K8Psvv1FaJYB7rV8KqzytjU0zRH55icaND9+3bwBu1daLfekqcnSZIkSXVmQNe+qgP7bejd+73J6Bvvg8/+/jjXXjxPUW70quAb5M4GzdHzDKRphpeB2AvfBUTQacHu9kk8G0mSJEl6qBjQ1TU0DT/xLxIDrRVirw09n4VYJ1fnKZtrEEOMLxZ0J5qn7i26+8VbW+wX3SVJkiRJb5QB/bHRW0/2hS8OMFYukVu9KnhehzgLPEVjaIMYKiHvTTPfn2qeM7RerxJuOJckSZKkN8OA/igpGtBpwef+l1EW3r7O7uZZIu1XwslnKQfXISdo7K0V20/WVfvQxnFJkiRJ0lvHgF5XkXpT0w8k5qKZaN0KPvTrifd9fpbO5Y1e9XuvGr4BXASm6ex0A/tR1euNRZckSZIknRQD+kmKBEWTXgjvVrOLRmJnM3jf50u+7+9O8sqX1yjLdYgLkJ+BfB5ijc5rY4fbyi19S5IkSdLDzID+QAWUQ3unuPcURCrY2Uyc/2CTz/2jBa68cI6y0TsLnrtV8aq9zmtfHaEsc/eB8v5jSlIddUddHD46I0mSpHtmQD8Og2PcHsKWSQQlnVbJ8EzBT/7BMCPVSu8c+IHz4Fygap/mteczEUF7t88Dx+3/kSRJkiQ92gzo31QveA9NdM9055zoft0aRCppbzf45T8ehoFFqp0NMk8R+YneerINdq5Msr33OIdURLS758xvv/Nu95IkSZKkR5wBfS+AN0agOQJUe28sgSZFs8H1l0p+7H84xZl3r7FzY4NIa71W9O791o05uE7fEJ7KNv2D997nkCRJkiTpcQmIvRA+MArD09BpBRENoEnRaHDjhQE+8utN3vfTc3Qur/da0Nd6AXyNiHPcut7g2osQd4TwTCoM4ZIkSZKkN+XRC4/lIEwuQ6cNQQMYJJWDXH+xyQd+dojv+8/meeWrF2kMnoe8CqwS6Sy7N2a58f+loxPdeipSalOUd2tBf/S+jpIkSZKkt9TJBsuUOFCSPnxfdaDbb354f1gkWHgCqgzkbgCHQSINsX19kLXvGOYv/49zXH9lg6JchViFvEoUG+zcmOPrX0qkEnY3OfK4HVJjrxJ+9JoSd0nukiRJkiQdhwcb0CNB3CWAQ1BVQNXu/T7vvzvD3EVITaAaAIaAIar2EIPjQ/zCPz/FjdZpUrUfwIlVghVaOxM8/8eZVMThbJ8zqWxRDlSQDwbuvUBePIgvgSRJkiRJ9+LNB/QI7jqJPFdQVZmjlfAIyBlmzsHgOFSdJjAMDBNpmNbWED/1fywwNLNCtbvSC+ErkFbJnWWe/3KD1HfAeYdIOzSHgbwXvA/eGr23S5KOWwZShPsnJEmS7s89BvTotaP3af3OGapOh/0Anm8H8OkVOLUCrR2IGALGgBGKxgg3Xhnj3/5vJzjz7jPs3Fgm0nI3hLNMxArXXhpg+6v9LqZNc3DnwHUcvQ0c7YqXJEmSJKnu9gN6KuCue7hz3CWEV4zOwMJT0NotiBgFRikao1x9cYRP/eo47/qxOa5eOkORuuGbWCZXKxTlLNdeSLzyZ3sV+IM6lAM7UPYL4AUnfXZekiRJkqRjVpKKAgiqzsFW9MMl6MEx2HgftHYSEacgxklpjJtXxnnmL87wsV9b4vorZyjKM8AZcj5NUa6weWmYr/5RJpVxZ1U7tyiaLRpD/UJ4AgYe8HOXJEmSJKk2SqpOh0jw1EehHUDVAE4BY0SMs7t1ioWnJ/jh35ll87X9EE4+TSpX2L5+iq/3CeE5Z4rGLs2RfPfz4JIkSZIkCaDkqU9+iLJ5ih/7vSluVXNEtQSxBHkJ4jQRC7S3B3j+j3tt8Ecmo0f5eiG86XlwSXqM3NmDJUmSpHtU8tnf/4fkPMULXz6wkvyQiggno0uS7oU/DyRJku5TyZWvTwFtGoNt+k9FdzK6JOneJLIRXZIk6f6UlAMVTkaXJB2HvVGjkiRJesNKuhPTJUl6cwKsn0uSJN2/hLUOSZIkSZJOnNVzSZIkSZJqwIAuSZIkSVIN2OIuSZIkSVINWEGXJEmSJKkGDOiSJEmSJNWALe6SpOORgYgAV61JkiTdDyvokqTjYzyXJEm6bwZ0SZIkSZJqwIAuSZIkSVINeAZdkiRJkqQasIIuSZIkSVINGNAlSZIkSaoBW9wlSZIkSaoBK+iSpOMRQIX/2VeSJOk+GdAlSZIkSaoBA7okSZIkSTXgGXRJkiRJkmrACrokSZIkSTVgQJckSZIkqQYM6JIkSZIk1YBn0CVJkiRJqgEr6JIkSZIk1YABXZJ0PDKQqiBO+kIkSZIeTra4S5IkSZJUA1bQJUmSJEmqAQO6JEmSJEk1YECXJEmSJKkGPIMuSZIkSVINWEGXJEmSJKkGDOiSJEmSJNWALe6SpOMRQEX4U0WSJOn+WEGXJEmSJKkGDOiSJEmSJNWAAV2SJEmSpBrwDLokSZIkSTVgBV2SJEmSpBowoEuSJEmSVAO2uEuSjkemu2pNkiRJ98UKuiTp+EQEYUyXJEm6HwZ0SZIkSZJqwIAuSZIkSVINeAZdkiRJkqQasIIuSZIkSVINWEGXJEmSJKkGrKBLkiRJklQDBnRJkiRJkmrAgC5JOj6Z8OCUJEnS/fEMuiRJkiRJNWAFXZIkSZKkGjCgS5IkSZJUA4lsi7skSZIkSSfNCrokSZIkSTVgQJckSZIkqQYM6JIkSZIk1UByY60k6dhEBHHSFyFJkvRwsoIuSZIkSVINGNAlSZIkSaoBW9wlSZIkSaoBK+iSJEmSJNWAAV2SJEmSpBowoEuSJEmSVAOJ7Bl0SZIkSZJOmhV0SdLxyQTZTeiSJEn3w4AuSZIkSVINGNAlSZIkSaqBBJ5BlyRJkiTppFlBlyRJkiSpBgzokiRJkiTVgC3ukiRJkiTVgBV0SZIkSZJqwIAuSZIkSVINGNAlSccnKoiTvghJkqSHU4LwDLokSZIkSSfMCrokSZIkSTVgQJckSZIkqQYSZFvcJUmSJEk6YVbQJUmSJEmqAQO6JEmSJEk1YECXJEmSJKkGEuAZdEnS8ciEP1UkSZLujxV0SZIkSZJqwIAuSZIkSVIN2OIuSZIkSVINWEGXJEmSJKkGDOiSJEmSJNWALe6SJEmSJNWAFXRJ0vEIumvWJEmSdF8M6JIkSZIk1YAt7pIkSZIk1YAVdEmSJEmSasCALkmSJElSDRjQJUmSJEmqgeQRdEmSJEmSTp4VdEmSJEmSasCALkmSJElSDSQIe9wlSW9eBiICiJO+FEmSpIeRFXRJkiRJkmrAgC5JkiRJUg0Y0CVJkiRJqoGEe9YkSZIkSTpxVtAlSZIkSaoBA7okSZIkSTVgi7skSZIkSTVgBV2SdDwCyO5AlyRJul8GdEmSJEmSasCALkmSJElSDXgGXZIkSZKkGrCCLkmSJElSDRjQJUmSJEmqgUS2xV2SJEmSpJNmBV2SJEmSpBowoEuSJEmSVAMGdEnS8chARJz0ZUiSJD2sEpE9gy5JkiRJ0gmzgi5JkiRJUg0Y0CVJkiRJqgEDuiRJkiRJNZCI8Ay6JEmSJEknzAq6JEmSJEk1YECXJEmSJKkGEhlb3CVJb14Amej9SpIkSW+QFXRJkiRJkmrAgC5JkiRJUg0Y0CVJkiRJqoEEnkGXJEmSJOmkWUGXJEmSJKkGrKBLkiRJklQDVtAlSccjA5FdsSZJknSfDOiSpGNkU5YkSdL9MqBLkiRJklQDnkGXJEmSJKkGrKBLkiRJklQDBnRJkiRJkmogQbbFXZIkSZKkE2YFXZIkSZKkGjCgS5IkSZJUAwZ0SdLxCNwLIkmS9CYkCF9OSZIkSZJ0wqygS5IkSZJUAwZ0SZIkSZJqIOGJQUmSJEmSTpwVdEmSJEmSasCALkmSJElSDRjQJUmSJEmqAc+gS5KORwZSBHHSFyJJkvRwsoIuSZIkSVINGNAlSZIkSaoBW9wlSZIkSaoBK+iSJEmSJNWAAV2SJEmSpBowoEuSJEmSVAOeQZckSZIkqQasoEuSjkcAFUF2E7okSdL9MKBLkiRJklQDtrhLkiRJklQDVtAlSZIkSaoBA7okSZIkSTVgQJckSZIkqQYShGfQJUmSJEk6YVbQJUmSJEmqAQO6JOl4ZHADuiRJ0v1L5GyLuyTpeESEIV2SJOn+WEGXJEmSJKkGDOiSJEmSJNWAAV2SJEmSpBpIBJ5BlyRJkiTphFlBlyRJkiSpBgzokiRJkiTVQCLb4i5JOibZg1OSJEn3ywq6JEmSJEk1YECXJEmSJKkGnOIuSZIkSVINWEGXJEmSJKkGDOiSJEmSJNWAAV2SJEmSpBrwDLokSZIkSTVgBV2SdHyiCoI46cuQJEl6GBnQJUmSJEmqgUQOW9wlSZIkSTphVtAlSZIkSaoBA7okSZIkSTVgQJckSZIkqQYSkT2DLkmSJEnSCbOCLkmSJElSDRjQJUmSJEmqgUTGFndJ0vHIhD9VJEmS7o8VdEmSJEmSasCALkmSJElSDRjQJUmSJEmqgQSeFpQkSZIk6aRZQZckSZIkqQYM6JIkSZIk1YAt7pIkSZIk1YAVdEnS8YmAOOmLkCRJejgZ0CVJkiRJqgEDuiRJkiRJNeAZdEmSJEmSasAKuiRJkiRJNWBAlyRJkiSpBhJkW9wlSZIkSTphVtAlSZIkSaoBA7ok6fhkwtGjkiRJ98eALkmSJElSDSQIax2SJEmSJJ0wK+iSJEmSJNWAAV2SJEmSpBpI4DgfSZIkSZJOmhV0SZIkSZJqwIAuSZIkSVIN2OIuSTo+EUEQJ30ZkiRJDyMr6JIkSZIk1YABXZIkSZKkGrDFXZIkSZKkGrCCLkn/P3v3HiRZlteH/XtuZlX39Dy6e2Z63tM9PbMrWMBgIRDCsUYQxkiE7eAPWdgGCzss20EQKCyFJEfIsgPJDmwkFLKFUAgDlkIKh2UhwLKNDbJ4LQgMwbK8Fi8IEMuyzD7mPf2qR+Y9/iMzu6u6K7OyurPq3uz+fCJu5EzXrcyTWVmV93t+5wEAAD0goAMAAEAPCOgAAADQA+agAwAAQA+ooAOwOjVFty8AwN0R0AEAAKAHBHQAAADogSa1GowIAAAAHVNBBwAAgB4Q0AEAAKAHmpTGEHcAAADomAo6AAAA9ICADsBqlCS1LV03AwBgXQnoAAAA0AO2WQMAAIAeUEEHAACAHhDQAQAAoAealBjiDgAAAB1TQQcAAIAeENABAACgBwR0AAAA6AFz0AFYjZqkpCQpXTcFAGAdqaADAABADwjoAAAA0ANNqiHuAAAA0DUVdAAAAOgBAR0AAAB6QEAHAACAHmhSqjnoAAAA0DEVdABWYbIDei32QAcAuEtN4loKAAAAutakFkPcAQAAoGOGuAMAAEAPCOgAAADQAwI6AAAA9ECT2GYNAAAAuqaCDgAAAD3QJFFBB+De1di5EwDgHqigAwAAQA8I6AAAANADAjoAAAD0gDnoAAAA0AMq6AAAANADAjoAAAD0gCHuAAAA0AMq6ACsRklS7YQOAHC3BHQAAADoAQEdAAAAeqBJqjnoAAAA0DEVdAAAAOgBAR0AAAB6oJHRAQAAoHvSOQAAAPSAgA7AatQkpZTEXugAAHdDQAcAAIAesM0aAAAA9IAKOgAAAPSAgA4AAAA9IKADAABADzSpMQcdAAAAOqaCDgAAAD0goAOwGiVJbe2BDgBwl5oUQ9wBAACgayroAAAA0AMCOgAAAPSAgA4AAAA9YJs1AAAA6AEVdAAAAOgBAR0AAAB6oEmphrgDcO9qJnuhAwBwV1TQAVidkiKkAwDcHQEdAAAAeqAxHhEAAAC616QWc9ABAACgY4a4AwAAQA8I6AAAANADTUoMcQcAAICOqaADsDp1egAAcGQCOgCrUZLUUmJ7EACAu9KkVLUOAAAA6JgKOgAAAPSAgA4AAAA90KRazgcAAAC6poIOAAAAPSCgAwAAQA8I6ACsRk1SbLEGAHC3mhRz0AFYEbugAwDcNRV0AAAA6AEBHQAAAHrANmsAAADQAyroAAAA0AMCOgAAAPSAgA4AAAA90KRUc9ABAACgYyroAKxOTbH0KADA3RHQAQAAoAea1EatAwAAADqmgg4AAAA9IKADAABADwjoAAAA0ANNYps1AAAA6JoKOgAAAPSAgA7A6pSSlK4bAQCwngR0AAAA6IEmiTnoAAAA0DEVdAAAAOgBAR0AAAB6wBB3AAAA6AEVdAAAAOgBAR0AAAB6YNh1AwC4j9SUVDuhA8B9pg/Tote9DeOUmrSL72N4jw8CAAAw03W2eNAfPzm0DSWp7eS45bCR1Yd1vp9E5/yaFwDqIKOaPLxV0rRzz1JBBwDguHUdWh70x0+WCW1tm2RucChZLiAtOkeIW5nD3lLzXoaStDvJqccmRx0tOHcVj3fz+9ukjOd+c8k4Nbvz76i2SUbzH77U6fcvspvFT2SUBb8AScaHvGBtUua3sWYnze75fOTC9dw4Pfe0YVLrA/M+BgD6pOvQ8qA/frJMG2o7uVw82DKhbdlgd5y6fvwTcg+hrWwnZx5PhkcJbStXMwlJ8x68ZnHImoW4RS/EeHrMs5v5IW3WvkUhblVtnB/0klHSzHsONbUdpbQHt7HdLTnz3Ci//dOj/O73JqceLantbpKtxW2u16ZtP/hnU8u1lEWvW91KyrwAXZJsJ2Vrzv2XpO5M7mNeG0ub5NqC55CkXLt92MBtrdxKKdvz29BuZ/I6Hfz1mp2UMr+N4zLOme2t/J+ffyXXdzPvPBV0ANivZnIR0mTxRdgqH68PFrdjcUg7yGGhTGg7Mcv83A54KUqScU3OnE82H1p4XXsCZqHqoJ/ZMoHosMraokB0WCibPX7XoW0388fN1tR2N6U9+P7LbrLzwji/9SO7eednk+GjB/28R1kc4pJkJ6nb879cFgWcvSFu3u/meBri5rwX6mhxiEuSZntxG+t2UnbmfXEa4ua3saZN2hspB7axpDY7KYe0sdadlGZ+G2u7nTI8+D1dk9TxnPxekvGN5NznJj/7d5Nf//6kGSbtorcVK1YynK7WU5OD3gYCOnC/6EvIOYr7qc3j3C/rmrTjjbTjJu04ua92OzlsdGuZc0qZXPM+dC7ZfGRy4dePXDsLNPMCSTu90J/zxOs4h4a2MpqWEg+8g+njL6rETUNZmdPGOguO8ypC46QuESznVqUyaX+zaMhlTdrdlPbOH2zbljy8uZsP/+Aor/7GNKTf0dRRku35zyHJcqFt547Hv9XINsnWdOjoQedMvz43wC8R2spuJs/jwAZMQ9v890LNVsqC4bk145S6nXnv11pGKYeE31p3UhYGx52Uwfz3Yx0d/FasJWmuJ9c/L/mF70ze+pGkDKa/InTosA7OwYKvN4d+fzMsGZ5OUpNmkNz75/cqPv+7bsPJfP+41MmfxINPH/bkQ5b1so4X4Np8co7W7rZkTkHgKMGoD5W4u7GObZ6nph0ndXQ6qWsaaqc/jseeeTuPPv3pjHeHuVV5m3+lemve3Lw7HSXZmSTgg86o49RFlbOSQ8NFyU7qvBCYTNowN1yU1DpKbXfS1DvbWEfJ8Ik2H/m/d/KJD9ZJSF+qkjqrts2zPRmyeKA6rWDdS2gbTx5jbmjbzaIrpCT3GNqmlbRspcwZsjsJbfN/trXsphwSfu85tCWTt8cBP9Nxm5zbTP7Z300+/s+T0nRdReckQ9vBdbz7IYTd6330pf2L7ueQX9RS046S0aI/0XRlmFralDn19VsejKDQH8u3++hDDg9ylHAjCD2wjvI+W/LlrknO7ibl4vLfc/IOqwztUWaBYJkn007DyZJjT8v2EcoZNYuD0f5zS3ZT5y7ccls7sjunojfOaPvhnH36VzLYnBcW+q1Oh37+1N/+/px65JfSjpvcfC0XvD4lO6lzf+6z1+zGnIBeUjJKXRQUS01yI/ODZlLqjUN+houGviZtnby9hvXOVtRRMnwq+YV/kHzqQ0JaP91LaEsWB7eSwcae0HagrgNTH9rQl/bfW2gb7wpt0LFhRtuDaUDvesXF+9fNOQZH+YbDTinJeJw8eiHZ6Hxe2CLjLP/sRzl8jtjMzsKqxT61Ts5fdi7pzSGFy7Z7N4vnhN1syKQdSwWh7Bn6eJR2LxuMjvj6ld0FVarbTk+bMt45tOeoJhm0yY8/eyOjv1gnxbKy96vXl2vf7HWti+aszZRpRWzZYJzUXE9ZOqDPKoZLBvR2/nDH2+44tdlKOXSo61StSVn29Usm74cFlcq97ZhWHcsBL0k7Kjn1+LW88+r1W+1YI7OA/uN//SNJPtJtY+7KvYS0ksNGrTTD5pCQdpCuQ0vXoe1ev/8kQlty2Nzp8bx+OQBWbZjzF99Oyacz/4/3dAjXEheRpZQkO6l1mQu9TO/zKNWpnSwXhKZDChfNd7rDdhavGrnn3pvR9Dkuo6atN6ZzOw49NWl3J3sfHNKO8Tg5++g4P/E/buf3PlJz6sy9XAsv+7rWHOV1moTz5YPQrXlsy9hZPOdur9rm6AH9CO/LzALfoQ2ZDDVcMqDXOvn9mL8i5m3nl1HKku/LSTuWD3u1jFOWHLVcM82ph7x8s4D+k5eS8bdm+b4Z1saa5fObhpuD7H/Dr3vIm33/Yfex4G+TyhoAnISSf+XrPzfJ8wvOmQ7vW+JKqyRJ2U1dNGdsn6MGuNlcsmVaMlsQZJly9NGCZylHCehJmzbNslMyx1kqR7bj5JFHkp//3uStV6eL+6zpxTBdOcrImKNObVimR2pimCY5ddBXjvMNvY73fdy/4Cu6/1Iz3ml7PKoHAKC3DF2/O0cNK8c1x3syL6wMsoJr63UMFet43+vY5uO971Gpy0+XBgCA+1dJMzhsRcfkQVhsrV9OepE4AAAAAAAAAAAAAAAAAAAAAAAAAAAAAAAAAAAAAAAAAAAAAAAAAAAAAAAAAAAAAAAAAAAAAAAAAAAAAAAAAAAAAAAAAAAAAAAAAAAAAAAAAAAAAAAAAAAAAAAAAAAAAAAAAAAAAAAAAAAAAAAAAAAAAAAAAAAAAAAAAAAAAAAAAAAAAAAAAACA+0BJMygruq+63FltUpc7FQAAAB4Uqwrns/s6/P5KU1LKKh93nr73AvS5fX1u28wSbSxJ2yZpj70xAAAA96rkD3xNFufqJbJ0nYagRae24+ThR5IP/1Dy9ieSUlTSuRfLdAhNOoNKs8rHXYc3bZ/b2Oe2JUdpXzs+xmYAAPAgKvnm178xaT5nztdrStlOLQuuREtSRzUZ76SU3cwLTeNRcvZ8yY9921Y+9oujnHqkTIL9kexOj0Vqkp0kh109z85bphGj6eMedvE+SsoS7avLtC9Jmbbx0BdqPDlvqfbtHP64dXdy7qHta5dsXzt93EPaV3eTweEPmyR1PH34eU3bTXafTz764eT1H0jKYPI93G+WG7kzsUxPzbL3VzI8ddB5q+6AWMf7G2e8U3XAAgAcXcmf+9AHkvIl935PZfGlXynJaJScfSbZPLNEpjsRbSbh9rAL8nGS7Rx+cbt7hIA+vzPjpqUD8FHad1hAr8sH9FnwrqMsfi7jpCzRvrqbDA57/aantjsp4/nnlt2S0bOj/OpPbedffFuy+dS0mfPat9TrN07q9lLtm7wPlnwvLOoAu9m+ZTpgkmQ0fX8d1r6dHP4zXrZ9bZZ7/Y7Svt1MnvNh7Zv9zh3yu1Rr0tTDT0tSRln4VEpJmjb5ye+ePqwgCgDAagwzPPXm9AJ33lXm6q4+B5vJtddrri6TiQ+0bHWrOcJ5wyXOGyY5tcR5nJSSpB4yNaN8PPmMJ5PP+65pn8NJLH2wz2EdK8uOL+IZ/gAAIABJREFU9hhPA/USvVp11tlwiLI7fVFW0b52uQ6YZNpLsmRAX7Z9h3YgZNLJ1WxPR6UsusdRymjn8IA+3k5Oj1IG2XNum+RGDp8zNEqydXibl+6Yaaf3d9h5NSnXlmjfODXbKYeUwEtpU+t2br0v24zbU3ns9K/kp//+W3nn06YyAQAc0XB6bJzMw9VksHGvD7fKq71l7+soj7mOQ1L7cn8rbttmsjWquf5bWSKcr3L487LnliSnj3CfHLdDO36mapKv+KacQPV8vMSDzEYwHKYm5XoOf7/NRu4sE9D3diDsZLTzXB5/5o/nwz/6gbzz6TLpEFmzgD7cbCZzYu5La/bD6B2v373x+t0br9+9qRktOxgRurVM9bhvVr3yPPetmjRN0pxe8Z2uXJ87TVatz21LjtK+K5886F9X3dGzbFDcXPK8x5Y8725sp905lZ3ho9lZZoZMT412bP0AD64+Xxce5bOjCyXLfQZ2Z9IB23UrFun7NVLfrdHrV0YZb7fzaiHrGNChS73+yz61Dm1cf809F1n7/EFyN21rUwfJQ4OawRq+BUtTUtuaf/0vvJjT57807WgjR3sddpN62BSHDpVxkmVGUHSlJrmaPrev1qs5kV1i71LN9ZR+LPBzoJobKaW/vXclW6lLrb/TjVK3U4f9Xe22qUm73DJCJ65tk4fPJP/HNyU717tuDRxKQAfoRo+v9O+qbU1qkmEpvX5m85RmslTBH/ja9+Xsxb+S0fYjWWq3jZk6WzOgr89+NhWir+2rmayl0Of2bfe3ecl0Ac7+BvTJwqn9DZil7Kb2uX11lNr0twOhqeO0Cxbv7VJtk1MPtRkNdrJzPSvefndVZuvY9LXzvib1Wibt7OMfwjJdZ+euFzo7ZiWTn+9W2vGZnDn7vfnBv/TRXH/zwJMFdABWoyTZaWuvI8J8kyX5r7x2Ks3G2Yx2znTdIID9+prdZvqYi6bercnnf01fwzkPhnGSrYx3H87ZZ341P/rXpgH9zh2BBHQAVqdZ0wr6TDNo0wzqdArDUa+G+371zP3N+48u9fv91yS5+lrXrThM33sP+t6+vhsk2ch4dzLorp0/YEdAB2A1JkPce11EOVQtNbcmGh/1mazzMwe4v9372jEPun53wqyHOtn5d5hFa5oI6ACsztp/fMvYAHAAH5D3bqnX0FAFAJgp69/FAACsLwEdgNXRvw4AcNcEdABWo9Rkpylp1zil16qCDgB0RkAHAACAHhDQAWDGHHQAoEMCOgAAAPSAgA7Aakz2QS9rvVBcrfU+2CsOAFhTAjoAq1NiJXcAgLskoAPArGxuDjoA0CEBHQAAAI5bSdK2NQt2dRXQAWBmUkFXRQcAOiGgA7AapSS7WyXtuOuWAACsJQEdAGZqU61yBwB0RUAHAACAHhDQAWDGKu4AQIcEdAAAAOgBAR2A1ahJNpuSxhxuAIC7IaADwExdsDEpAMAxE9ABAACgBwR0AJixSBwA0CEBHYDVEW8BAO6agA7AapQko1LSrvEicW2tehkAgK4I6AAws8Z9CwDA+hPQAWDGHHQA4LjUJKXJooqAgA4AM7VEGR0AODZlIykCOgAnYXGncP/VooIOAByjmkXr3QjoAKxGTTIoZa0D+jq3HQBYewI6AMyYgw4AdEhAB4AZ8RwA6JCADgAztSZiOgDQEQEdgNVpy3rHW3PQAYAOCegArEapk4C+zsxBBwA6JKADwIx4DgB0SEAHYHUWb+3Zf7XW9X4CAMA6E9ABWI2aZFhKmjL7v/VjiDsA0CEBHYDV8akCAHDXXEoBsDrrXn+upVrKHQDoioAOADcJ5wDAMRrUheUMAR2A1SlrHnDNQQcAjtMhl0oCOgArUpLxTkltu24IAMBaEtABWI1SknactZ6IXhcPOwMAOE4COgArUrP2c7jXfR93AGCtCegAMNOkrnsfAwCwvgR0AAAA6AEBHYDVqEmGTVnrldybWo1xBwC6IqADAABADzQyOgBMtZaJAwC6I50DAABADwjoAAAA0AMCOgCrUZKMS0ld50XiBnXyRIxyBwBOnoAOAAAAPSCgA8BMW6el8zUeBQAArC0BHQAAAE7CqC6cRyegA8BMMfkcAOiOgA7AatQkg1KMDgcAuDsCOgDMtIuHnQEAHCcBHQAAAHpAQAeAmaZWe6ADAF0R0AEAAKAHBHQAVqct670OervWrQcA1pyADgAAAD0goAPATDOoSYl56ABAFwR0AFanTA8AAI5MQAdgRWrSrHk6v7kP+po/DwBgLQnoAAAA0AMCOgDMNCafAwDdEdABYEY8BwCO0yGz6AR0AFanrvkqceNaU8V0AOCYNHXhdYaADsDqtKWsdbxtstb9CwDAehPQAWBmUKtx7gBAVwR0AJhpu24AAPAgE9ABYGZsBjoA0B0BHYDVKCWp46z1EHFz0AGADgnoAKxOOypZvDhpv5V2jRsPAKw7AR2AFVrz8nMd1LV/DgDA2hLQAWCmNtMR+grpAMDJE9ABYKbMCuiq6ADAyRPQAVidJmWts+06tx0AWHsCOgCrUTNZyX2dU25Z5xXuAIB1J6ADwMwa9y0AAOtPQAcAAICTMF48Wk9AB4CZWqsV3AGAY1Oz8FJDQAdgNUqStqz3IHHZHADokIAOwOoc0ivce2WtWw8ArDkBHQBm1rv+DwCsOQEdAGbauu5jAACANSagA8CMaA4AdEhAB2AVJrO3B6Ws9TDxZlCNcwcAuiKgA7A6Jeudb28uQq+UDgCcPAEdAGbGdZrM17mXAQBYVwI6AAAA9ICADsBqlJqMyzrvJF4yqOvbegBg7QnoAAAA0AMCOgDMjGu1QBwA0BUBHQAAAHpAQAeAmUb5HAA4RsO2psy/3BDQAViNmmRQ9uwlDgDAUQjoADAzbqsaOgDQFQEdAAAAekBAB4CZwWadDNFXRgcATp6ADsAK1Qi3AAB3R0AHYDVKScajkrrGAX1czUEHADojoAPATJkeAAAdaLLWpQ4AWKGmTsfoS+kAwMlTQQeAGV3WAECHBHQAVmfdC88jc9ABgO4I6ACsRk3SlDLZpmxN+VQEADrkUgQAZga1piihAwDdENABYKbtugEAwP2rJO3iQoCADgAz47E56ADA8ShJxovXuxHQAVid6SZla6sZZv1XugMAeqnm0MsMAR2A1ShJ6pqn22Zj+gzWuZcBAFhXAjoAzFTBHADojoAOADMDAR0A6I6ADgAzAyV0AKA7AjoAq7HEwie9N+66AQDAg0xAB2B1mlLWOqSPZxX0dX4SAMC6EtABYKIY4g4AdElAB4AZn4oAQIdcigCwOm0pa72F+LhWe6ADAF0R0AFYjZL1z7bjrP9zAADWloAOADPDWq0PBwB0RUAHgJlG+RwAOCYlySHr0QroADAb2D6qNQa5AwDHodZkeKqmzB+uJ6ADsBq13gf7oLfiOQBwfMriCC6gA7A66xzOk2TjVBb1agMA3BtD3AFgOc1g+h/K6ADAyRPQAWBmt5XMAYDOCOgAMNNG8RwA6IyADsBqlJKMx2WtA+6wne6Dbh46AHDyBHQAVmjNdynzqQgAdMilCADM7NaausYdDADAWhPQAWBGNgcAOiSgA8DMxmwOOgDAyRPQAViNmmRQJovFAQBwZAI6AMzstNUwdwCgKwI6AAAA9ICADgAzG2fqZIi+MjoAcPIEdAAAADgJoyycTiegA7A6bcpaF5/NQQcAOiSgA8CMBegBgA4J6AAws9nWyRgASR0AOHkCOgDMtF03AAB4kAnoADBRJnPQTUIHALohoAOwOk0pRocDANwdAR0AZorqOQDQHQEdAGY22moEAADQFQEdAGZ8KgIAHXIpAsDqtKVknUeJnxqpoAMAnRHQAWBmtJG17mAAANaagA4AM1sP19QSKR0A6IKADgAzG20McQcAjs/iIoCADsBq3A+F59O13hfPAwDop0FduN6NgA7AitSklvWuP+/USThf72cBAKwpAR0AZrbaqnoOAHRFQAeAmc06rZ4roQMAJ09AB4CZ021SqjnoAEAnBHQAVqQkpV3v0vNWaw46ANAZAR2A1ahJSpu1Lj/PAjoAQAeaWA4HACZOt0nxuQgAdEMFHQBmHtoxBx0A6IyADgAzV88ntZmEdACAEyagA7AaJUktZa1XWNt6OKlr3H4AYK0J6ACszroXnh/ZWev+BQBgvQnoADBzupqDDgB0RkAHgJm326SNKjoAcDwOucYQ0AFgZkv1HAA4RqO6cKNzAR2A1ahZ/0+Vc7vT56CEDgCsWMmhhYB1v5QCoE9K1jvbPmQOOgDQHQEdACZKPrWdjLPenQwAwNoS0AFg5nqbVOVzAKAbAjoAzMa0P3sjGQjoAEA3BHQAVqMkGZey1vO3T28ttYALAMBxENABYDbp/CPvT3Y3JwvFAQCcMAEdAGZ5fHszSRHQAYBOCOgAMFu1/bOSDGOIOwDQCQEdgNWoSQalrPUWZYPYYg0A6IyADgAzKucAQIcEdABoM/lE/NYk76Zm0HF7AIAHkoAOADdtZVJGN84dADh5AjoAZJTJBPSLSV5NstltcwCA+09NMmzrot1iBHQAVqMkaVPM4wYAuDsCOgAAAPSAgA4A+xkDAAB0QkAHAACAHhDQAWA/FXQAoBMCOgCrUWvSlGKHMgCAuyOgA8B+KugAQCcEdAAAAOgBAR0AAAB6QEAHYEXKZB66AeIAAHdFQAdgNUqS2t4PS8TpYgAAOiGgAwAAQA8I6ACwnwo6AHA8DhlrKKADAADAsSvJeHEdQEAHYDVqDu0VXhMq6ADA6pUko8UL6groAKxOSblPQjoAwOoZ4g4AR6KCDgB0QkAHAACAHhDQAVidWpK69oPcVdABgE4I6ACsRsn9Em3vj2cBAKwdAR0AAAB6QEAHgP1U0AGATgjoAAAA0AMCOgCrUZOUsneBuHVdLE4FHQDohIAOwOqUrG8sBwDomIAOAPupoAMAnRDQAQAA4CTUxXUAAR0A9lNBBwBWr9ZkeLqmzJ8PKKADsDo1RbwFAJijDLJowR4BHQAAAE6EIe4AcBTGAAAAnRDQAQAAoAcEdADYq6qgAwDdENABWJGaNKUsWPcEAIAFGuvtAsAePhcBgI6ooAMAAEAPCOgAsJcKOgDQEQEdAAAAekBAB2BFStKOS+qaLxNnFXcAoCMCOgAAAPSAgA4A+6mgAwCdENABAACgBwR0ANhPBR0AWL2SZLetqfMvNQR0AFanSVnzJeIAADojoAPAPkUFHQDohIAOAAAAPSCgA8A+CyaGAQAcIwEdgNVpS7HEGgDA3RHQAWA/XQwAQCcEdAAAAOgBAR0A9lNBBwA6IaADsBoloi0AwD0Q0AFYnZqSSVRfZ7oZAIBOCOgAAADQAwI6AOyngg4AdEJABwAAgJNQs7AUIKADsDrrPft8+nFZVdABgOMxyMLrJQEdgNWoScp6J3QAgGNTkwxrFdABYGlFBR0AOB6HXGUI6AAAANADAjoA7KeCDgB0QkAHYBVKSpKFs6oAAFhEQAeA/VTQAYBOCOgAAADQAwI6AAAA9ICADgAAAD0goAOwGjVJqeu/SFw1Bx0A6IaADsAKybYAAHdLQAeAvUrVywAAdEJABwAAgJNwyGRAAR0A9ipFBR0AWL2SZKdduNqNgA7AapQkNSWH9g0DADyg2ixcskdAB4C9rOIOAHREQAcAAIAeENABYD8VdACgEwI6AKtRkzSlmIEOAHB3BHQA2E8FHQDohIAOAAAAPSCgA8B+KugAQCcEdAAAAOgBAR2A1ShJ2pT1rz/XtX8GAMB6EtABAACgBwR0ANinqKADAJ0Q0AEAAKAHBHQA2E8FHQA4HmXxlwV0AFajJmlKSTnsowcA4AFUS7Ixrmnm1wIEdADYTwUdAOiEgA4AAAA9IKADwH4q6ABAJwR0AAAA6AEBHYDVKEna3A/15/V/BgDAWmpSXYgAAABA11TQAWA/HdcAQCcEdAAAAOgBAR2A1ahJiuIzAMDdEtABWJ1SS0rXjbhXehkAgG4I6AAAANADAjoA7FWrCjoAcDxqFi5HK6ADAADASRjWLJoOKKADsDqH9AqvhbL2zwAA6KOaZLOti5a7EdABWI2SpK7/EnEAAMfmkDKAgA4Ae1UVdACgGwI6AOxliDsA0BEBHYDVqElKKVm49AkAAPMI6ACszv0Qz1XQAYCOCOgAAADQAwI6AOxVF+x9AgBwjAR0AAAA6AEBHYDVqffBDO5S1/0ZAABrSkAHAACAHhDQAWCvuvZjAACANSWgAwAAQA8I6ACwnwo6AHA8DtksRkAHYHVKKSldNwIAoIdKTbYerqnzY7iADgD7qaADAMegJu0wqfOrGQI6AAAAnAhD3AHgKFTQAYBOCOgAAADQAwI6AKtTU1LXfZm4qoIOAHRCQAcAAIAeENABYJ81HwAAAKwtAR0AAAB6QEAHgP3MQQcAOiGgA7A6pTVCHADgLgnoALCfCjoA0AkBHQAAAHpAQAcAAICTULJwOqCADgD7GeIOAKxeLcnptgroAJyMmiLeAgDcHQEdAPbTxQAAdEJABwAAgB4Q0AFgr1pV0AGATgjoAKxGyWQOOgAAd0VAB4C9SqOCDgB0QkAHAACAHhDQAWAvc9ABgI4I6AAAANADAjoAq1GTlFKSNV8ortgHHQDohoAOAAAAPSCgA8BeKugAQEcEdAAAADgJh0wEFNABYK+qgg4AHIOSZKcmCzaMEdABWI2SpK75AnEAAMelJNmts1LAgddMAjoA7FXsgw4AHIOaQ4e4D5OMp0emp6//FjkAcLdqEdABgE4MM9p+JCWDW/9UdjPcHGd/WN97qLoDcB/TRw0AHIPJdMCFhjl/8Z+mlM3U+kya8lzGo7N563c30hyUw+s4ZbCVwWZJ6kHB3VUNwIOqJinlPvgcMMQdADgGNcmpUqap+cDrjWH+4Z/8zqR8f1LPZzw6n0ceP5+v+Y7Hc+XGU2nyXFKeS+qzSXk2pTydneun8+4nkmZ4233WcZrhKM1GkjpL97PQbtg8AAAAD7b2ZiHgwHr6ML/yj68kuZLktyf/cirZvZJsj5NSH0pyLsm5lOZstt59PJf+4Pn8m9/8ZK688WKa4cspuZjkuTSDC7n+9qlce/2g8F4z2NxOGdRpeL+96i68A9AXKugAwOqVJLtZeKUxTDPYG5BL2lHJL/xvNZOF425Mj0/cDPiv/mLyiV9OdrYGKc3jKTmXZvhYrr72WP7g153Pl/xnT+fdT7+YwfCFJC8k9YU0wxdz9VOns3WlpgxuC+O1TXNqN02ZrWlnzjsAAAD3l6VWcW/HNbdn+GaQ7A3te29vvFPy//3gbOX315K8llImU/auv5782j9Jdrc2U8rZJI9msPlYrn7i0XzZf3c+n/OVF7Lz+vMpzfNJuZy0r6QMLuXqJzazs3VQa2uSnQxPCe8AnBQVdACgE8MD/7UdJ7cuUPZfqJRye4CfhOSSkrc+XvPmx9okO7kZ3puktskP/JnkJ/9qUrdKUs4kOZtm42xuvP5o/q3vfiyXP//ptNcuJuViUl9MyotJvZjkXN763TuaMfmHsp3h5qwt8w4ATsJkoJW/vQAAd+nggL5IrUndF+DHN782Ce+3h+OSMkje+ufJm79ek7RJriW5llJeTa3J9/3J5OFzScYlycNJHrl5W9tH85/874+nOfVi6ngW3C8l5b0Zj5/KlU/UO1cNrjVlsJvBZnvAavNWnAdgERV0AKATRw/oi0zC+5zKe5M0zQHhPckbv1byRm0zCe9Xp8ct3/GVs285neRMUs5ktP1Izj3/aP7jf/xUbly5mKa5NK2+X0oZXMrOtWdz9bUmg+H+HXNqrRkMR2mG49waIr93uLzwDgAAwIlbbUBfpLZJnTNsvmmSHBDeZ7ev/vJs0bqt6fFmkuSN30z+hy9Oxm1JyekkD6U0D+X62w/ls778TL727zye1z75QoaDS0l5KakX0wwu5fq7F3PjrYf2LEx3s5WpdZThZjtZzO7A6rvwDnBfsw86ANCNkwvoi7RtMm/OezJ/0bralrz6K7Nh87MV5yc+9D3J73wwGe2WlGwmOZ3B8HTe/vRD+fL/4HS+4i89ndeuvZRhnYb3cimpl1OaF3L9zVPZvTGp+t/ZltGBbdl/CwAAALccuPP5fv0I6IdZtGjdPNvXkld/ZXb+9uQo7yQ1+eG/nfzM9/1aRvUDKRkkOZ2UUxlsnM47Hz+df+9/eiyf9VUv5tobl9MMXkrqS0kupTQv5+rr51LbyXz7/arwDjzQapLS3gd/6xoVdABg9WqS0+O6aC+y9QjoKzO95rp+dXJMjDNbtG7WpfE935Bs/vlfTG2bJBtJNjPY2MyVT2/mz/7Mw3n0uUvZufa+lObyJLyXy0m9nOvvnFuwud3ogJEAwjsAAMCDoObQjcIfsIB+mFmAf3NyTIbOz6rvk6//zS9NyuA3U+uPZPL6bU5vN/IXfvZMdk6/kOxenob2l6dz319JbS9l6+oBK86nTSnj6XB61XcAAIAHlIC+tGl4v/bm3n8cTY+Jb/miN1LL7yb1ZzJ5bYdJ2cjujWEuvGczf+pHn8qVNy9nMHglKZ+dlN+Xklcy2n02O9dqSnN7EK8pTZuybzE7lXeAY2WROACgGwL6Kl19ffZfNcnu9JgsXPfqLyd/+aVPptZfziRYD9MMhrn+dpPP/arT+RP/yzN56/fek+HGy0l5ZVJ9b17OePtSxrunkztWnAfolyUWPgEAYD4B/aTUNrnx7s3/y60An3z4B67lv3zqjdT6q9OvNxlsDHPjnSbv/y+G+YpveiLbH72cMnwlyeUkn5nkX0q7eznteENuB1ihqpsBAOiGgN4H7Xiy6vyef0mykyT5qb+a/Mxfv5rU30nygSQlg82S7SuD/JH/fpAv+Heezvity0l5OcnLk9t6OclnJDl3ws8EAACAuySg910dJaOb09xrkprRdpKM8//82eSf/rmPJvlokh+bnlMyGJbsbpd84w+fzbmXX8roxnumi9a9Mg3yn53kmZN9IgBroqigAwDdENDXWW0Pmu9Z044n//rtX/5mkjeTfGjfGc0w+fM//3hq8/J0pfmXb4b3kvdkcOq5pM4Wo9u7KN1k7aTaHttTAgAAeFAJ6A+idpT8lc+bhfcPJklKmYTvJ19K/syPn8lrb1zMsNkzZL5cTm0/I4ONl7JxapBaB5kE9yazAF9bix/Dg6wmaUpZ+2UxzEEHADoioDMxC9avfzT5iy9dT/Jr02OiGUzmyn/mVw7yx7/rYt792PsyOPXStPJ+OXX8mdl8+LlsPrQ5De9NkmmIL8l4J6njWNAOAADgYAI6y2nHk9tf+8Fx/psXfjvJb9/82mAjGe8mf/hPJV/yp5/KlU++N83gcpLJsPk6fjlnHn9vhmceTm2b3NwjPk2SZLQTezMBvVEMBQIAuiGgczSlJKVJZuE6SWpb0gxKfuLbkw/8zdeTfDrJTyVJhpvJaKfkq/9WzeUveyRXXvt9GZTPmc59v5w6fjlnn38pzfB0at3IrfA+zKQCn+mieAAAAPc1AZ2jqXU6VD13rhRXmqRp9i8s145LmkHyj74xqfV6JgvWTRata4aT+fBf/33JQ5fOZ3T95elq85dv3pbymTn34pkkG9Pj1PR2Mud958ak0wBgVWoz2THDnBwAYJVKDh04LKCzOpNV5Wdvuf1vvYPCe+okvH/HH0uSt5P8/PS4ZXg6+fr/q2Q0fjkll5O8L2k+I3V8ORsPXc4TLz2W8XgjpcyC+2ZShml3p5V319dwYkqSNiXVLx4AwB1KSa6Natr5KV1A52QsCu/NILlzS7dpBX635Nv/tTbJb02PH7654vwTl5Ov/XvDXH3zUgbDl5LyUpKX0u5eypkLr+TJ9z6TujVMyumknErqmZSykd0t4R2Yzz7oAMBxOSSCCOh0b7IA3cHhPdkb4Ge3k22c3vqdkm/7knFuhfekDCZD8C/+4eSPfkuy8/HH0wxeScqLKXlPxtvvy2MvvZJzLz6e7J5Osvd4KKU02b6WjEcHDZ1v0wza3N6JcOctAADAkQno9N+8AF9KMjxdkjrbi316bJT83k+XfOcX10yGzv9ckp+7Oef9s//d5Iv+o5L27aeSvJyUF5O8lNJczGjrvXn+X76QRy88lHb0UJKHkpyZ3JZBbrzdzNnrvaYZjCK8w/qzijsA0BEBnfVVazLami3mtF9pJvPXU0smK85Pbpthk4/8o+RX/9eayWrzn0ry/yaZbRdX8kf/q5oXvvBstq+8mNJcSuqlpLmYdvTeXP7iixmefji13RPccyapg1x/e/r7dFAWL6M0zeyLwjsAAHAHAZ37U22T0VYyCe+zAD/ZzL0ZJMNTs6C8v/o+PN3kn3xzTW2vJvnw9JgE/tomf+xvJA89cT7t6GJSLib1hdRczGBwMe/7ihcyas8keSTJwzdvS9nMeGeY628mZZjb+hNqShlNt65TfWe91SRNKWv/jq3moAMA3RDQefC046QdH1x5T5LBRknZKJnsw172Hd/3p2tS307yVpJfuvk9w83k6747udY2KeNZeL+YNC+m3b6Uhy9cznu+7LHs3jib0jyc5NEkj6Q0G9m9PszWu7P95fcrzTil1Ki8AwDAfU9Ah9uNd+eH9+Fmma4ed9u895T8na9LklGSj06P3Fxx/vHLyR/5rzey9fqLaTaeT+oLKc0L2b1+MU995rO5/P5z2bn2aErzWCbh/bGUwcPZemeQneuzhfL2qmmavSvZCe+wKn57AICOCOhwFKOdBeH9VHLQsPmkyTsfL/kHf2I3yb+YHpPQ3Y6Tl/5Q8v5vGOTaGxfSDF5M8kLK4PlsX3kh7/3SS3n6c5/I9pVHU8qTSR5L6tmUwalcfX2Y8fbBlfdknGYwq7zP2iW8AwBAjwnosCqj7WT/nPdbJovW3bnifLPR5GMfLPmfv26U5JPT49aK85//1SXv/YqaK6+fz6C8ktTn0wyfy9a7z+ULvvqNBwjVAAAgAElEQVSFnL18PrtbZ1PKuaSeS8rZ6e0gVz+VOSvO2y4OFjEHHQDoiIAOJ2GyaN3B4b0Z3B7eJ7fNsOQXvy/50Pe0mWwX98EkH7wZ3rc/VXL+s2q2r51PyXNJnkvybEp5NuPRxXzRf3g+wzPnU8fnkjyZlAtJPZtam1z5VHPAPu9JynTovPDOXaop4i0AwN0R0KFrdy5aN775tWY4C++z4H4rvH/gu5LajjNZsO6tJL+a5Na89513k41HT6WOnklyKWkupY6eycaZ5/KvfsMTGY0fT8n5JE8keTylOZ/R1jBXPzk88E9DKTWlGe/9lz23gjv3D/ugAwAdEdChz9pR0o4ODu+DjUxXm79zwbqkyY98a5tkJ8nvTI+J4elkvJ2Mdh9KKc8l5ekkT2e09WzOvfRMvvDrn0379tnJnPdyPmkvpAwuZOfqZq6/MZgsbn+HOl1xPskd892Fd9aMtywA0A0BHdbVeDeZN+c9mb/Xe2qTH/rL4yRbSX5rcpTJ3TzyXPL2G0n71iCleTLJhZTm2exceTHP/6Hn8rlf/WTaq0+mlCeSPJlJ9f1CmsHDufbGMNtXDli0ro4yODVOKbd3Iuw9oD9qUUEHAI7HIVcZAjrcr0bbRw/vN14r+bFvqplsF/epJJ9KaT6c2iZP/kTyiV9PyvWNTOa0P5XUp9IML+T6m8/mC//9J/PS+5/M9pUnU5oLSZ5MrU9lMDyXt18dZncrB8x7H2d4ajT974OC+4FL1NNn90O2vR+eAwDQOzXJZpssqAUI6PAgmhfeJ6vNZ8+c9+ltKXnzN0p+8ltqkt0kn5get7aLe/O3k+d/f7Jz/WxK81RSL6QZPpkb7zybL//Pn8tTn/FUdm88nVIuJLmQ5KmUcj5vfmwwJxDVpGxnuJkI7+uj1JKy9qMiJHQAYPVqklPjuuhKSUAHbpmsNp/sHzo/mfdemtv3ep8F+KTZaPJb/yz5zQ+MkrwzPX4jZZDUcbL9TvLoc03G248n5YmkPpHSPJHR9hP5t//aheThJ9PuPj2tyj8zuc1TqaNTeft3c2cWr23KYDuDzUw7EwydZxXqbbcAAKtVF1+iCujAcmp7+17v7b6vlyZpBreH45IyKPnwD9RJUs/r0yM35703u0k9ldTx6aQ8ntQnkvJ42p0n8tDjT+er/sbT2X33YsrwmaQ+nZRnU8qF7N44lXc+Mang78tTtaYZ7qbZaO/Yd35vpwIAAPSMgA6sRm2TOqcC2TRJmoP3VP+570kmVfqtJK9Oj4nhqeTaW8l4+1RK83hSz6U057N95Xxe+P1P5N/4by/k6hvPZTCc7AGf+lya4XO5/tbDufp6zXCjpN4e3jd20gwPCu+Gza/C/bEP+vo/AwBgLQnowPFr22Te8OFmkNwe2me37ajkl75nnGQ7N+e9TyvvH/9Q8tbvJDtbw5TyeJJzaYbncvW1c/mCr3ki7/9PL+TN157NcPBykhdS67OT8P7aqWy9W/d0GOxRdzM41c5ZcV54BwDgWAnoQLfacbJo7u+tAL8/vF9/q+RD/3CcyYrzn07y6ZRmUsl/52PJR34oufH/t3fnQZad5X3Hv897zl1637un92VWaUCDJUAEiB2WgAirjaowyIANdkISyw5UjJ1ylgrYmCBclB0q4LAGQ6UwoVgqFBgqUCyKTDCgCCIQSGgZzd4zvd7uu5xz3vxxzu2+3X3vaLSMZnrm96l6OX1v33P7iJqZvr/zvO/zrgY46wH6cLluSqe6ec4f9XLkVcPEixNgY0B2TCaxoJel49ak47wHqoQFz87grjXvIiIiIvKEUEAXkcvbZoDfGt7NmlffLTDOPgjz93vSqfPngHMb4X3138L3PwJUHdAB9ADduLCbtbO9/PqH+hg+OE5tfRyzvWBz4CfBulk4yval99mPjgjzEc2r7grvu4+muIuIiMgloYAuIruTr/eda1J93xreGxvWwcI9cO6n9SZ3K9lIz/Ee/vuboNANSdwG9ID1Ap0kURdv/uwQQfsEPp4EJoBJsCmSaJTlowF++7R5DxZEBPk4u7xWAV5ERERERAFdRK5AW8P7tsq7A+d2dptP/9c4+sN65X09Gyc3zv3wq8BCwLcBXUAncbWDztFOXveFfmxxFGMabAL8NOYOUVsfZfVEgA9sR2HW+5ggjHA5GprWwW6uvJvtxqvexquCLiIiIpeEArqIXF3O120emk2b3/z6wf+zPbyfTs/JwQefDVYDyAPtmOugstzFxLO7eNUHe2FpCpjE3BT4KWAac+OUl9tYW/DpFnVbOs7HBPkIC2jRcX7Xx2ARERER2UoBXUSk0fma1rXsOJ/Ase9COm2+mo1FABaOwYm7wGJIw3sH0IYL21k51cYv/8senvf2UZZPThOE08A0MIELD7B6poNqyWM7ps7HBIVai27z6jj/eHlXn3mhmyAiIiLypFJAFxG5UBcW3rdW3aN1OPEDI62818P7wsaa92/8Ofzg0xDVchhtQBtBvo2lY228+i/7OfyKcUrnZnDBFPhp0ir8DCtnekhq27vNQ3qToEJY2H49Cu8iIiIilzkFdBGRJ0Kr8L6zYV1D0zqgdM5YnU+AWjaWN8L7F94GX30nJHEOaAOKBLkiK2fa+N0vdtD7lFEqq9OYTYOfgfqREVZO0qIAHOOCxupwq+PVy7QGXURERC4Sa7Yj0CYFdBGRi+l83ebPdw7A4vF0NIZ3LH2LD7wSXCFdU5/+W14AiuALYEV+/3tjmL8GmMnC+ywwi4/2UDrbZNo8YJZgLubxhHePaZMyERERkSZcAiuDkAQtX6KALiKyq9TD+4nGJ6NslDae+fMjvwD/nbTtvM+BKxCthQzMFbj1G8OsLswRBLNpcPezmJsjqkxRXmnDgp3rr81izNWfv7Kr7l63GEREROQiiUPwrT86KaCLiFyJVjZ2h6uH93UAjt0F7zxwDJ/8kDRY53BBjtX5kCO/luc3/6aP0/dOEub24/1hjP1peC9PUisXwW0L795jYYJZBOS4kBkCIiIiIlcrO/9HJQV0EZGriY9h9fTGIzYb18GPvgB/PHSGJPoZ2NeBHC6Xo3Q64Jm3hrzknf1EZ+YwNwvMAbOYm6ZWuoY4bsfHkMTuvLeFdwNN0hcREZGL5RE+Jimgi4hIKq5Cab7+aGt4//5fwV3/7Rz4e0kr6AFhIWB1PuCNXwq49kWDLP3sMIWuecxVG95j99EUdxEREbkYEgc9pyGIWr5EAV1ERB5ZXE1HygMRrKS/XT51M7hgBeL7wRm19TTg+vN3KRURERG5qtSbxMWtY7gCuoiIPD7ReuMjVZ9FREREWnmEKe7uSboMERGR3UH7oIuIiMglooAuIiKy1e5uciciIiK7lgK6iIhIoyCMcQG44FJfiYiIiFxltAZdREQklU5tX1u5g6D4OeLqIYp9EzjLk97QDrJh4CGqnuetRERERB49BXQRERGAJE4D+gdf+EWwL4KHW74CQwN78NU5sBnwc8AM5vbSPXSIxIqkv0vrIw3wPsm63mu2vIiIiFw4BXQREZFGLjDqS8A+dZMBp4GTwP/eeE1nH/zep43F9j0E8Ry42TS82zQ+3k+ufY6u4SJxlMMsBHJACGYkESQ1FN5FRERkOwV0ERGRRmklPQbq69CtYaSP15bhXS8y0uB+Arg9/Y5L93+fuhFe87EhVo5eQ1CYzsL7DEntAB0Dk3QO5YmjPFgBowAEmEGtDHEEpvAuIiJyRXqEvWIU0EVERFpJYtj8Vbr1V2qr8G4BHP2ecdu188C3Nl8fQhIZN/y65/lv72Lp1CFceBizvZhNEVcP0juxh7bePEmcBwpANoXeoLYOPkaVdxERkV0s62bTin7Li4iIPNHM0mr69vAOhvcenyQ0Bv4gB3HN+Md/5LnmpX2sLcxg7gDYtZjNENf2Mnp4iFx7ER8X2QzvBQDKK0/ef5uIiIg8FlWiap7h6V/iz667k4WjBua33/9XQBcREXkyuQBczoHfVn03R1wFn0TUp9jDZuX9V9/rGTgwSLQ+DW4K/DRwAOwgkzf0Y66NNLS3bQzvQ8orzafMm8WY82y9gdDsKCIiIo9fGtCHpn+Jd7cO6JriLiIi8mRKYkjipOn3gpxheQNfnwCXDhc6Pv8HHu8XgHng+1vOe8MnISgO45NpsGnwU3g/S1g4wPQzR4njIkY79eBuViSqBpSXwUJ2LIhrHt4V3EVERC4yBXQREZHLRVzzUGvePibIG2bG5uq1+nB84jcS0uB+GvjexjltvfDaDxvltT04mwKbBKaJa5N0Dc8wfeMYlVIbznUBHUA75orU1gIqJbBg53WYizHzNA/tCu8iIiKPgwK6iIjIbhBXPa16v4aFeljeGt5ra8ZHb07Y7Db/3Y1O8+PXwSveY8w/NEyusB8Yx2yK2vokg4dmGT0ySLzWjlkv+A6gCwvyrC8GROX6GvtGHucaW9ArvIuIiDxKCugiIiK7XVRpEd6tMbw7NsK7GSd/YnzgJk9adT8F1Ne7w96XGDf+U0/1VC/mrsH8FBZMUi1NsO850/TN9VMtd2DWCfQAvZgVKZ0LSWrNwju4IELr3UVERM5LAV1EROSK5VuHd3MQFgHvaAzvLjTu/5px35cTYAm4A7iDIEz3aH/ubxqzz/esLvbhbAJsDnN7qZUmue5lExTGe4lrXUAX0L0x1s+F6bZ1TbK4C+KGRwrvIiJy1VJAFxERuRr5BKIywM6GdRbUw3t92nwa4MPQuP0T8J2PJ8AisAD8aKPyXjljdO/zVNeGMJsAPw42jk/2cvjmaTra+yDuJq2694B14+MOls8EbOlJt3mVmEUttqyj2QkiIiK7mQK6iIiIbOVjiGJIK+8xjdu+BTmyTvP1afNpeHeh8be3gfcxcCYbP0wztIezC9DbA0QjYOPgR0mScQptYzzrNbOUw0HM94L1gu8B68Nop1YOWDtrTbrNbw/vZNfS+FhERGRXUUAXERGRCxfXyDrN19NyQ3jPk3Wab1jvnq1///Y7ACLS9e6nNs4ptEOwAKttDhePgo0Co5iNUVsfZ2j/BEde3UN5dQQXDoDvBfoxl6e8HLK2kK6d3xHeXZxdCzSvvouIiFx2FNBFRETkiRFXIU3KO9e8twrvcWR85j8aUAOOZSNtBu89DO6FlROOtaVhXG4K/AgW7KG8NMG+Xx7h0E29rC8P4dwI2CD4flyQY3U+pFpq1W0+btFtXuFdREQuKQV0ERERufhahneDME8WmLdV3s2x8JDxhbdHpFvFnUxPCdJp+Pd/E47daawv92NuGrNRXDDM+sIo1792iPEb+qmWBjAbBIbBj2JBkeWTIXGlIaNTv7YqYcFvvYYdQ0RE5LHJVn2djwK6iIiIXEIeovNU3tNu85Z1m28IyjnH0TuNB/++BpzNBrgAkhgWHoTx6x3VUj/mhoFxXDBBeWWMX751gN65AeLqIDAADAKjYO0sHWt6GWA1wnyCwruIiDxWnrT16nkooIuIiMjlK+023zy8uwDCogMf0BiSXc7xk7+Fu79cA+azcfdGeK8sQueoI64MgA2DHwTGSfw4L/kPQwSFIXwyBAwBw5gNEkedLD68veqeXpYFNYJ8vPMmgsK7iIg0MKCUNNs/ZYMCuoiIiOxOSQxJ3PxjTpCzrNt8Y3g3XM7xg097vI/Y7Da/KV4Hl8/hk3plfYAkGqC9f4h/8o4pKuvD6Xp3hoERzA1RXetg6XhImDN8430E73FhhMsl2f2Fetf7+tcK7iIiVxNnUEq8ArqIiIhcXeKaz7rN7xTkLWtYtzW8g/Hdj3vSbvOba94B8u1QWYGolscYAuvHbIDKaj+T1w/xwj/cw+KpMcLcGDCSNrMLhykvFCmd9VhoWycBeE+Qq2Khz7as2+x4r6q7iMiVqT7F/Tz/wiugi4iIyNUlrjafMg/ptPmdU9ONqAJ3fChtJFfvNl/vNH//t2H+XiidCwly/UA/Luhn7Ww/19w8wI2/PUztzDAEE8AM5sdw4R6WT+epLNd/ZgOf4Ao1nDVrWKfKu4jIbqYmcSIiIiIXKIlh8+PT1o9Rm+F982gYy6fgjg/XK++ngdOYS9fPn/wF3PdNiFcMs25ghCDXz/KpPm76w3723zTM6rlRnBsDm4RkFgvGWD2Rp1qmSRZPCArVjZ/ePMCLiMgupYAuIiIiciFahXezFuE9MBbvg4Wfe9KWQEvA0kZ4/9IK9H0cquUQowsYwIVDrJ/t5UXv7WPyqSMka2NgY+CzI7MsP1wgipteIVgl3bZO4V1EZDdSQBcRERF5PLxP92VvHd53Tpm3AB66Ex78YUJaeV8AFjB3Lz6Btd+F7iHwtRCsC3wPuB6Saj+v/Ngg/f2j+Oo42Dj47Mg4SdTO0lHSRY5b1rzHWFAmyNu2Ne+aNi8ichlRQBcRERG5WNLw3nzKvDlwrnl4P/49OO63hve6T/8GtBWBpAB0Ad1AF3G1m649fbzuU+NUFuZwuXHwE2ATmI1SXSuyfAJcyI7wnnabJ9sqDtRtXkTkklBAFxEREbkUfAK+1Xp3R7ofz7bwDnD025BOma9kY37jvCAPf/ViSKoFzHWC78KCTsqLXcw9p4dfe/8elk8fIMzNAuPANC7Yw9pigdJ8s/AeEeRjLGhVeRcRkSeQArqIiIjI5SZJ4JGb1e0M7z427vtGY3g/m37Lw9n74eE7IaqGmOsB2nFhB6unO/kHb+7heW/fw/KpKQI3B24/MIsLRlmdL1BdTSv+mzz4GkEhybasazVERORR0D+cIiIiIleSrQGejaP3hk8S0up79p1sq7iuEeifycK7dQLdBLkOlk6086rbenjKr45TOjuDcxNg+8AfwIIxVk45okr6PlvVCAsJrYO7PoOKyNWmSlLLY2NP4wPX/1+WjxqY37H66RJdnIiIiIg8mczqVfBW4T1me4M776F3AtoHIIlCoA3oIMh1snqmnTd9ppeR66aors5gbhr8NNgU2AGWjlvjvYCGC6kR5hXeReRqc0EBXVPcRURERK4GW7vNbyvZbOk2D/X15YaxdAwWH643rFsBVjbC+1+/HnId4OMiaXgvYtZGHHXwli8NEXZN4aMpsCy8uyl8NMny6WK6xH7LBSZYkK55T9e71xvUKbyLyFVDAV1ERETkare12zxA043Wt7weYP6++jPlbGx6/wuyir0PgAJQJKoW6Bkp8tavjbFQniGwGbBZ8NOYmyOqTFBeKKbbxG1jFmPOs736r+AuIlcQBXQREREReeKde6D+VQysZQOWT8A7jtxP4m8n/Syax1yO8kKemRcUuOVzvdQemsGCazG/H5jB3By19QkqpTzWLLy7GLN6eG8W4EVELr2sZ+e2OUw7XiIiIiIicukFeWgfIp1Nbw58AZfLsXo8x41vK/Cy2waoPDAN4QHwhzH2YW6OyuootUqwrdM8gMe5uKGLncK7iFwqVeJanv7hI7znGXex8LCaxImIiIjILhW2QbG7vo4+APKE+ZCl4zlu+S95nvbGIRZPzRG4WWAWOIhxmEppjCRyTbZt97ggpnVo1+dkEXkiVYlqeYaHjvBnz1RAFxEREZErTTZftNABQRF8AmkSDwlyOVZPh7zms3kOPneUZHUuW+8+BzYD/lpqa7N4b00+Eqfb0bXask6foUXk0UsD+tDQEd7dOqBrDbqIiIiI7FLZB9tKCSjVn0yAajbgf7wOguAMcFf2/QBzjqgS8ubbC4yMTuCre8HmsvA+Bz7d6z2q+GabvIuIXCwK6CIiIiJy5Yor23vSx9mo8bFfWcdsEfgxaeU9AHPEFUfPeMCt352icvZaXK5eeZ8Fvx/vZ/DJjjnzIiKPlwK6iIiIiFydauuNj5JspM49CO8cvxu4e+M5c0ZcM+aenePNnx9m4cRBgtxTMA5m0+YPAZM03SdOROSRacqOiIiIiMjjFeQgrsEzXp/jVe+bYPHYXoLgILjrwPZDcgALRrGdreYBSBLOu/eSiOx2F7QGXQFdRERERORiCvIQV+Gl7yhywxsmWZ3fiwvmwM8Ch/BcR75tGHOOdKq9o7E5XRK3fm8R2S0U0EVERERELmv1yvsbPlVk7PppKitzmJvbXPPOYYpd42wG92ytfLZvnMK7yG6hLu4iIiIiIpe1uJYeP3FLGbgnGykz8B5+7xshYdcsPqp3m98LzGJuH51D0ySxAwtJP9sHgOGTtGqvepzIrqKALiIiIiJyqTlHw5Zum0fD+MvneeA+4OdbzukYgLfe7lg4uZ8wPJQ1qpvD+xnCwj7ah0chcmA50s/9IZgjiSCpofAucvlRQBcRERERudSSBDbnum6d8+oC2FyTvhne1xfhTw4B/Ix65d0c+AT2XA+v+ZuA6OgkFhzGfNppPolmKfbupXNkCF8LgFw28pgZtUpa1df27yKXhAK6iIiIiMjlLF1nfuHh3QLj1J3wF/sAHsjGl3AhJBEcejXc9K4c1YfGsHAO7ADGYeLqPnpG52jr6yGJ0tCe5oUimBGtZ9ei8C5ysehvl4iIiIjIlcYsraY3VtzrR+/BJ57Gfd/rzepe/DZ46mtzLJ4ZJ3B7gWnMDhJXr2HgwF6KXZ0QF8AK4AtgRfBGubTl7URkh7RJ3MjwEd71DHVxFxERERERtof3rQHeJ+D91k3ZXS5ds/6P/hT2PT0kKU2kHeb9NNg0Pplm6inXQlsPPikC9dEGFPAeyivNps0nYEm6/n7LdWy/qSByJagS1/L0DBzhvTfexeIxBXQRERERETmPIAQLDXzjtPk00ceVeniPqKeKeqf5N78P/GwbSW0amASmgSl8MkNYmGPi6T34WjtYG2lwb8OsQBxBpdQ8vJsl22YBuOyoDCO7j6cKUZ5yx3V85B/+iNXj2mZNRERERETOI46AyLM9NUBaSQ9cPbQ7GgP8R95qQA34aTY2FXvgdZ8MqC4dwIWTWeV9iqQ2S/vADFM3tFOrdIB1YXQA7ZiFVMuOaqle7W+UYC7BmnS9V3iXy5WR/q0K7Lx/ShXQRURERETkkSU1SGge3sM8WRl8a3AHI1p3fPTlEfCTbGx2mx85BK+8LWDl7AQuPIQxi7lJauUZBmcn2HO4k1q5HbNOsC7wnZgLqKw6auXm4d25pOmWdVuPIpdG879BGxTQRURERETk8Ymq0DJ6GISFZuHdMX+f8V9fHgEPZiPtTJ/EcPCF8Jx/nmN1fgTn9oI7gAXTVEvTTD9zlIG5LmrlDsx1gu8E34uFAWvnXIut4jwuiGgd2hXe5ZLTH0IREREREbk0zEGQb77mPYmMJIpI17yngjCdhn/jb8HBFxdYXxjDginwE5ibpVo+yKEXjtA+2E1S6wTrBN+VHslTOkuL8qXHBY17yCm8yxOtio/yVDuv40PPbbkGXX/QRERERETk8uMCcDkD31h5J21YVwWfREC8+fpsn/cX/AEMHmgjWh8HmwA/Dm4CH41z5Oa9BIUevO8GsmHd+Dhg+RRZR/ltzOOcwrs8XhcU0DXFXURERERELj9JDEnsaQzhdUHOsLyBD2isvLvQ+Pp7wfsKcG82NrvNR+sQdnbio3GwcfDj+GScXNsEz3j9BOVSD+b6gV6gG3NdROWA0pkQaxKd0k7z28O7grs8ZgroIiIiIiKyu8Q1D7XmrbaCvGUd3reGdzC++G88UALuyUYq3wHEsLJQIAhmwfYAo8SVUXqmJrjudaPES51ZeB8CP4gFXVRWQ9YXHS7YeR3mYsw8zUO7wrs0pYAuIiIiIiJXjrjauk922qxuZ8O6pGZ85laAKvWt4upV954ZKNUgmQ/BTQCzOJuksrqH2WdOcOglI5SWunGuD2wQ70cIgg5WzwZUVmga3tNO8/VrVHiXDQroIiIiIiJydYgq5+s0n32xrfK+esz4n2/xpM3qHgAe2Og0P/t0OHMPLC0WCNwIMI4LZlhbGOWGm8eYfNYga8t9OBsABoB+LBigdCqgVia9T7BN2qyu4cKaHuUKpYAuIiIiIiJXOQ9RJfti25p3cxAWyTrNO+rVd5czHrzTuP/vPWnl/SHgIVxwB0kMiz8zJp/tWVtux9kwMIILh6ksT/C0N00xsm8QXxkA6wc/CNaPMcjiyVxj4/oGCVg13XN+29T9zRkBssspoIuIiIiIiLTiE4jKsLnPe7LxPRfUw3s9IKcB3uWMH38NfvSVBFinXnm3AHwMZ07AyD7w5Q6wYfDDmBsiqg7z0t+fgKlRfDQENgg+OzJEEhVYfLjZHu8J5qoEeXZuWafwfllp7EjQhAK6iIiIiIjIY5F2mofN0L4Z3oMQrGgNlfcsmuUc93wOfupj0oZ19wP3b6x5tzPgh8HHncBQNgZJoiHaeke56d/3UqtMYsFY+kIbxqyf2nqBpRPZmvfGWfw+xoURLofC+yVUbxcY0apDAqCALiIiIiIi8sSLIyBqvubd5SBwO5vVgfGdzxjpNPvVbNy/cV6uDaqrENW6MLcn7SbvBqiWBtlzeJjn/+s+SoujuGAKYxQYxgV9rC8VWD2T7hW/NbxHuFycPb/9WpptCi+PlQGJQW/FE7RO6AroIiIiIiIiT6akBgktwnsAW4MyG8e4atz+wQRYycbPNyrvXcNw9l6orOUwN4oxhAv7WDs7xOGXD/Ks3xmidHYPLkib2Xk/SxD2sXImpLwMbnse9zWCQpJtWddqyAXzaUDvqoJLWr5KAV1ERERERORykU6Zrwf3Rwrw6dcGrM4bf/fRGKhRb1hnLl1Df/oeePDvoLKax9wA2CAuHGH1zBC/cusAB188wvrSHsyNAiPgp7FwkKXjRq3cbM17TFiIaB3cFd5bSc7/f48CuoiIiIiIyG6xGeC3hnezxvBePxoWGPO/8Jy5NyHtNn8COIG5H+ETKJ2B730SauV2zPqBHlw4yNrZIV753kFGrtlDdW0MszFgFBjDbISFowV8s0qwRYT5xvC+cxq/tKSALiIiIiIistt5n3aIb1Z93xne0/nsFhjH7vQ8/DUz0iUAAAQKSURBVMMYWMvGwxuV98/9K2gfhKTWCdYLvgdzfUSVHl774QlyXWP4eAzIho3j4yHOPRhmP28rcxFBPs4urVlwv+rDuwK6iIiIiIjIlWxneN/c690cOLd1rXu98n7fd+on1hvWPZy+xMNf3wJBHnzSAdYFvock7qa9r5s3fXaIlaURjL2YnwPGMTdJtD7A8vEAQtvWrM5nnebjhq730Ljv/FVCAV1ERERERORq5RPwLda8Owc0Ce8A936rvid8KRsnAQhy8KGXQbVqQAdGP2ZdVFe7GL2hm5e/f5Bofg/mpoB9mJ/BhZOsLXWzejokzBl+e3jPVXGhb7JN3BXXbV4BXURERERERHZKEmjVsG7nevf06BP4f1+GNLxnlfes6n7sbjh+N7AOWAHow4VdrJzu4Fm3dHPTvxtk/sw4YTANNoFPZnHhtazPd7K+5BtuFtQvyeMKVZzVdxnf9eFdAV1EREREREQenfN1m2+1VVy0Cg98A9LwXgFOYnYS7+Gb/xnu/ipUK2BWALpwuU5KJ3p57h938YzXDxEvTIJNAVPAOBbsZ+3UINUyTWbBpz8jLGy/lss6vF81c/lFRERERETkUrL6futNKu8efFKfNp89m+3x3jkG3aNAZEAb0EaQa6d0upNXfKSbA88dJV6ZApsG33gcZuWYkezYrS4BqxHm69ewPbhfhJzsq0Q+z1DyVN79oh+zcNLA/PZ7G6qgi4iIiIiIyJPAt668b+00v3WP99IJY/V4Qhre027zZmfxHj7/O1DsIQ3vVgTfDtaGWRtRpYO3fH2MQnE/3s+An84q8NP4eJCl4833eE+7zdNkzftFb1ingC4iIiIiIiKX1tZO89v2eN/oNL8zvC8+mJXZiUkXt69vOfeDL7gT50LwRSAdca1Ix2A7/+KrQ6yXDhHkDmThfQZjhqjaQ2neY8G2bvN4zCJsyyyAxqnyjzu8K6CLiIiIiIjI5et8neYfyZl7ACI2t4pLnX0AbrsefPK/0oZ1vogFRcqLBWaf3c4bP7OH5VMzBMEcuGuB/ZiboVrqprLSLLwnmIsx2zl9/1EEd61BFxEREREREakL89A1kk3HtxxQxIUFVk7leM4/6+AV/2mUxeN7CcJpsP3gr8WCg1RW26mVPba92zwe59aJfTv9yVN5T+s16AroIiIiIiIiIhci1waFrmw6vjkgT5AvsHw85NV/0ckzf2uSldN7ceEM+DlgGnOHqax2UakVmKw9lT952Y85d0oBXUREREREROSJle3zXuhKA7xPHOly8pAgH7J8PMdvf6Wbw4efwvsmvsVDe5fgF5vnbXsnEREREREREblY8u0QBFDOg18k7WknIiIiIiIiIiIiIiIiIiIiIiIiIiIiInLZ+v/ommnsSmzikAAAAABJRU5ErkJggg==;" vertex="1" parent="1">
          <mxGeometry x="114" y="284" width="32" height="32" as="geometry" />
        </mxCell>
        <mxCell id="jXO-OSJdq2ioLEKXHTDI-39" value="" style="shape=image;verticalLabelPosition=bottom;labelBackgroundColor=default;verticalAlign=top;aspect=fixed;imageAspect=0;image=data:image/png,iVBORw0KGgoAAAANSUhEUgAAA+gAAAPoCAYAAABNo9TkAAAACXBIWXMAAAsSAAALEgHS3X78AAAgAElEQVR4nOzde5Dk+1nf9/fz/f265z4799vuXPd2bkJIQgh0QUISSLJkChCI5MgYiBAIiAMhxkVBjJPCdhIXcQUSMEn+CIXjpCoVJ44Tl8sVl/8lVYGKBKaM4whdztG57p69zc7OTHf/vvmje3Yu23u0Z8/smd/uvl9Vrd6d2en59Wh3pj/neb7PE0iSJEmSpHsXAZEOvYViIGhtBX/h7xW86weX2H3pbUTjHOQN4DTt6ruYrd7Pf/qxP+PKSwGRIR962PKtfA6SJEmSJD0UIkHROPQWikZiZzPxoZ8p+PjfmuLV59coiouQnybiPOQ1iPO0Lg8RjdsfBnkXognxuhncgC5JkiRJenxFQGOYXjU7iFSws5lY+1DBs//zKbi8DuksEeuQLwBvo2pf4MoLQ5RFBqIbwrsf/mYY0CVJkiRJj77Bse59JghKiILWVsHcE03+yh+sc/OlJyiaG92W9LRBbl2g9eJitxW9X/IO+r/9/hnQJUmSJEmPhuEpiALIBd282yDnJqko+Q/+r2lysUHOTxE8AbEG+Sy5WuXKVzIRQWt7/7EiKiJ1Djz60TL5sYZzMKBLkiRJkh4KAWQYGoNiEHKGvRCeyiZbV5r89D+eYPLsGu3tjW4A50ngKeA8t270e9AMdCjKvSr5wfAdQOr3QQ+KAV2SJEmSVBO9ED5wCgZPAW26w9VoUjabXPlGgx/93QnOf2qNG1fWScVadzBbfoIonmHrWsHmq/QpbndIxcFW9YNhvHjgT+seGdAlSZIkSW+9gRGYWIJWG4IEMUjRGOH68wN86NeG+eAvzrD9jbNE8TSRN4AVIp1l6+o0r3w1jqw5g24IbxNlrUP46zGgS5IkSZLuTSqgfxU6qDrddvGDygbMbUA7IGgCg6RiiM3Lw7zz+4f5zN+b4pWXViiLFYhz3Up4usDOtWle+2L03UoWqUPR6NeS/lCE8NdjQJckSZIk7UuJ7u4x4PVDeL79MZFg8enuhHRihGCI3e0h5teH+Zl/MMWlWKWsViGtQLVOFE+xs7nMl/8IijJ658n3HrYiNVoUg7n3KVLvtnctD30QvxsDuiRJkiQ9biJBRL+p5EFVAVWHbjrO++/KsPAUFE3IeRgYBYbJ1RCN4VG+8E9maLUvkIrzkFeJtEJ7d4WvfGOCxJFVZTkTRYvmSL69f3w/iAM0D+b/x4UBXZIkSZIeRRH0zmnfGcRzBVVVcTCER4JcwfwTMDQJVbsJMQKMk4pxtm+M8bl/OMXI/DLt3XME5yGWIS+T8zSvPdfvGjo0B3YOfP69IB5AA/Kxryp7mBnQJUmSJOmhFb2W9H4hPNNrSa96b8u3Q/jMWZhcht1bDSKNAqMUjVGuvzzGZ353ltXvXGb7xgoRZ4BzkC8QaZorz8POn3OoGN4N+LuUAwfPhR+8DTzIr8CjxIAuSZIkSXV353C23n3udaOzXw2P6O4IH12C0++CarOAdIrIExSNMa69OMbHfnWCb/3MEtdeXqdorAKnyfk0RbnCtRcbvPgvOTIlvRfCmxnKfiG8+cC/Bo8BA7okSZIk1cV+ED8cxrsh/M7hbM1RWH4vFB3oVqoniGKKW5cmuPgDp/ie/3CGnUvLRDpPsErOSxTlCpuvDvO1P8ykRhw+6507FM0dGkOG8BNgQJckSZKkt9LrT0mv2K+GdxUFfOv3wO4wRDUITBAxQWtrgumLs3z8N+ZINxeJWII4DXmDKNbYvT7Ky3+YiSMhPOdM0dilOVpBPjohPWFL+okxoEuSJEnScXv9Kem3+9I5OiX96b8AxUBJZgbyBFWeYGBwkr/0G/NsjZ4mqiWIJcgLRHGG9q0z3PhXmXz7c+09bCbKFo3RTm8Q28EJ6b1q+OM3Jb3uDOiSJEmSdD8OT0k/GJATucp3nZJ+8SMwtgid3VFgHmKeSJO0d2b59G9OU46uQF6BvACxSK4WeP6FAdKlftfQoRhqH1lVtnc9JeTGg/sC6LgZ0CVJkiTpru55SnovhBeQOxVr7wkWns7s3homYgaYIpWzbL22xCf+4xnmnlxgd2ueiJXeqrJFIoa48jzkO4J4ptnc6cW3o+fCE2Rb0h8RBnRJkiRJKpp7LemHd3XnKui0Mt0BbR0OriqbfSY4/z2ZztVholikG8KnuXl5ju/83GnOfXie7WvzRJoD5npT0ie4+kLw8p8dOIYOHFpV1ndKuiH8MWBAlyRJkvT4KAf6hN+caO8CtNjbGR7RIWc4tQDv/ixsbiZSzACnibTA9tVpzn58nnf96AKtV5aIchGYJec5inKaG682eOFP9qrvB+QWxUBFY9Ap6bqDAV2SJEnSo6VoxpFq+H5VvL3TBtqH/nw5CO/5eRiIgGqqeyY8zrB7c5H5i3N898/Pc+3aFEXMA0vddvRyip2rTV7pOyW96k5JH869KekHz6h7Jlx3ZUCXJEmS9PApGkEU0ZtQfuAWic5OJucW+3vD933wr0KZJsnMQ54jVws0hpd5z8+fpllNAdMQM8AiEXO0tof42pegKCEf2heeSeUujUOryjhw75R0vWEGdEmSJEn1lApIjXQkhNMN4buQW4dDeCq628ve+1MwfrpBZ3cFYg2YBxbI1TIf/MVZijRPZhryFKRpcvsUN16AHfY/xW2RaQ53Drzj4H2jd23SsTCgS5IkSTo5kboD2g63gncr4VUb2tttDoXwEqo2vPMzsPreBjubC0SsQqwTxRK7myt8+1+eYXT+FJ3WLDALMQV5HAKuPc+dIRxIZefAm4+GcXOT3hL+RZMkSZL0gAWUzd4vDk5JjyB3gvZ25uCAtr1K+Nn3w7f+SMHWlTlScRpYIBXLbN84y9OfWmTh6Ql2b00QMQ0xC3maSInNV+HyV49OSQfokMrMoWr87fviQX4FpHthQJckSZJ0PO5cVba3pzto78ChKempQ65g5mn4rl+GzosTpOYG3bPfZ9i9ucSZd66z/r4ldm6OEukUMN4N4eUAW6/B5a90K/CHVaRUUZQHA7ghXA8FA7okSZKkN6ZsRq88ffjW3gm6E9IPD2cbmYRnfwdu3Eok1smcI7FGe+c0p9aWufCJJTrXJ4higm4IHyeKEXZuBJe+DFFyZOBaJlKHotEvhB8c2CY9VAzokiRJku70elPS2zsdyK07PuZ7fxMmxoD2MsQy5BWqzjkGRs7y5CeW2GmNETEGnIJ8ikgjtLcLrv0butHkyNTziA5Fc68lHQ6HcLOMHjn+pZYkSZIeV6mEVL6BKeklVO3gU/955tTcIp3dVWAZYgWqM5z93os0m5OQx4ARYBQ4Re40uPxir6595Fx4REVqVtwZwnvt8f0mukmPJgO6JEmS9CiLRK8V/M5KeNWK3pT09u0/XzSg0wo+/IuZ9e8a5daNs6S4ALFGxBnaO+fZ+K4ZmoOj5DwCeRhiBPIQ21fh5sGC920VZXm3EB6YSyTAfwiSJEnSIyCgGIC4XQnvVZ73pqTvVHRDeG9Keq8S/o4fzrznc0NsvrpOKlYgzhHpIq1b5znzjjnG5odpt0YJRiGGIQ8REWxdg9ZN7gjiqegcOP1tCJfeIP+RSJIkSQ+LcgDumJBOkHPQ2Yb9AW0VkSBXsPFt8H1/a4BLl89SlqsQywQbtHefYnp9mcnVEdq7g0QMAcOQR4lUsrMF1185uqosAx1SkYnSVWXSMTOgS5IkSXWSCujfCk5vVVmH29PUogMZxs7AD/0DyJfGiPQ0kc8Dq3Taq4xNbTD9xGnGWo1eCB8EhokYoLUNm5eOrirLdAO+q8qkt5gBXZIkSToJkQ7uDOf2fdWBbit65uBY81TCL/wz2EpjRGcdYgN4kty5SDm4zuzFZdhoQAwTeRAYIKKg3YLNq/32hXcVjTuujP3qvKS3kAFdkiRJelD2QzgcrkIHuYKq6rajw965cPjC78Dgt47R2lmHWIfcDeLwFKfWVxiPJuQm0AQGgJJcwc7lAw/f5zok1Z4BXZIkSXozIvYC8MEd3d3fd0N4xX5FHIomdHaDH/y7mfUPrrOz+QwRZyHWyZ1VJpeeIQ1OkKsG3dfrjd4NdrZe70KO/7lJeksZ0CVJkqRvKiAdCuH7YTxnqDrdc9t7Q9S6q8rgQ/9e4r0/O8/1V56kKJ6COAeskNtPMjIzSznYYGiipPu6vAQSrRaw+dY+PUm1YECXJEmSvqm8dzY8335DKqDqVDz1Cfih357g6gsXKMo1iIvAM+TqKQbGliiaTSZOF+yH8ICAzi60tk/m6UiqJQO6JEmSdDcRkDPMPwl/5V8M8fKXn6AxeBFYh7xO5gJl80k67TFGZ6E74Tz17rst7oZwSffIgC5JkiQBNAbhV/9ogBvtZcjPEPlib0DbBpHOcmvzNGO3Q/j+LvKcodM+ySuX9IgwoEuSJOnx0G1Jhx/95yVnNs6Qt8/2VpU9A/lpyGfZLVcZKPtMW8vdM+WS9AAZ0CVJkvTw6q4x2/992Qx2bwWf+y8KVn9ggc2ts6S8AZztrSx7GniSvN1b/p0PPtjeOXNJOhEGdEmSJNVbKqEx0D0L3j3fXVI0C25dDT7164O85/NnuXHpbRTFuW4IZ52q8xRbN8c4tP4793t0SaoNA7okSZJOXiRoDu2FcIBEKgu2rxd827ODfPq3T3P1GxsUxUVIbwPOQTxB1Zpi89VuFd3qt6SHnAFdkiRJb40IGJiEyNAdsNYgUsn2tcTG+wf5yf91gWsvn+2tKluHfJaIb6XdPsOlr2Qi4sA58O7e8UjtXov7Xq386J5ySXpoGNAlSZJ0vEanIScgd0M4NKhaJcOzDX7q/x6luHSBVD4Bsdadkp7OUbXPc/m5JhFHh7FlItoUJeyH7nTg3iAu6ZFhQJckSdIbEECGwanuuXAqIApggIgBWrea/LU/GIKJ01Q7G2SeIvITEOvkap1bXx+nk/o9boeibHNnBTzwNaukx4Tf7CRJktRHL4gPT0FzBHJVAk2KRoPNlwf59N8f5uL7FqlurPcGs12E/CSwzua1KXiJPsXtTGrcLYQXb8GTkqRaM6BLkiQ9tnohfOgUjM5Bp50IBiEGKRqDXHtugB/4r6Z5+6cvcPPSOVJaAdaIdJHtK0tsfi3BHdXwTCrakPqFcPD1pyTdld8gJUmSHjapgP5V6L1J5hVHd4o1R2D2HLTbBcEwMEpqDHPjpUHe/4UxPvor81x7+RxF8QSkDcjLRLHC1uUBXv6X3Snrt+WKNNAmNXLv8wb758FtSZek++Q3T0mSpDq69xC+H8RTCUtvg04VBEPAEJGGuHV1lPMfGuPZ31vg2kurFMUGpCeAs6S0zK3rw3zjTzKpiAMPlyG3KZrbNIZTb+DbwTDefJBPX5IeRwZ0SZKkkxIJIt5YCAdYeBeUGWAIGAGGae+OML4wwk/+oyVu3VglpWWIFcirRLpIa3uS577YL4R3SOUOzWF6o9dhv2+9BBpHP70k6cEwoEuSJD1o3SAOR3d15wqqqrvPey8FR0DOcOYZKMeg6gQwDnkcYoTcGeOz/3SCEVYhn+uF8GVIK1St07z8/xbE0eFsuSKKvRB+sBK+N5ytNIRL0skzoEuSJB2HiL1z2kd3dQe5ylRVRTeId/9crmDqAkycAXYLiBHIoxTlKTYvT/Dj//0Ep56YZ2fzDHCO4BywDKxw7Tm41i9QR5vG4A6HA/jebcAQLkn1ZkCXJEl6I+48G96rhueg6nTYT8Gd20F8+izMP1HQ2hoh0jipMcbNl8f44N+Y5plPLdG5dho4A5yGvEYqL3Dl+ZKX/pQ7q+F0KAdapDsGsx2ohkuSHkZ+A5ckSTrq7gPajobwfLslfXQOVt8Dre0GEVMQk6RynM2XTvHen5vlO35ijc1XVkjlaeA0UZ5h6+VpLn2pz6qyXFEM7NAY3Pu8B4N4AgYf2HOXJJ0YA7okSXo8vf6U9L1z4XCwL7w5Ak9+DFo7iYhJiAkizbJ9bYpzH5zkY782y41LK6RynYgVcl6iKGbZulzw/B9BlBzM9qRmi3J4tzec7ei6soEH+OwlSTVkQJckSY+ubz4lvdN7234Ij4B3fB+0C7qD2ZiEmKS9M8fkmVl+8LdmuXV9iVQsAqeBs0RaZPdmg+f+n+6qs0NnvXOb1NimMbK3qgwOTUnPjWN+1pKkh5QBXZIkPdxeL4R3p6QfXlW2dy78wvfD6ChUrWGCOchTZKZJMcmzv7XCTmMB8iKwACwSsUK7NcKLfwpRcCSE96akj+CUdEnS/TKgS5Kkh0MkKJpxOABHULVSryW9xV5beiq6FfKnPwqTF2Bna4hIU8A8KS2wc32Gj/6dOaZmZ+jsnCbyCjAHzAOTvPgcxB2BOhOxQ6PvqrKEU9IlSW+SAV2SJNVHBBQDcWcAjkTuBO3tFntt6SlBVcH622Dt/XCzPUDKU8AMqZzn5uVFPvoL8yy+e4bt67NEzEMsQbVMFNNcfy64/Br7RffbOjQG2oc/v6vKJEkPngFdkiS99cqBfuE3yDnR3u7QrYZ37bWkz56Ht31/cOvGNEW5SEqz3Lw2w7s+vsST33eaze05EnPADDkvUpQLXHux5IU/6Yb5Q3JFMbBLWUL/KekOaJMkveUM6JIk6cEom/SWeB/d1R20dw63pBNAhtFZeO/nYfvmMFGsECwRaZadG4usvHuOdz07w9a1RVIxD0yRijluXh3luX8dpKOV8NyhaO7QHILD4ftANVySpPowoEuSpPtXNCBSv/AbtHeBvN+SfvBjPvpL0GGAyPMQ8xDLdHaWOXV6gff9zCTbN2dIaQmYBWaIdIrdm8GL/6q3Hu3gqrKyRXOwc+Aa6N1bCZckPVQM6JIk6fWlAlLZZyhaBJ1dyK0O0GavGr7Xkv6xX4U0EFTtFYhFyItkFigba3zg5xbp5CmCSWAaWCBigvYuXPrzPlPSyUS0j1TD935dAq4qkyQ99AzokiSpNyG9AYdbwbvvqFqJ9s7hEJ5KqNrwwc8H089kbt2cJbEBeYkoFmndWuQDP7dC0Zyi6swCk8AEMEnODa48T5/hbEB0KBqZwwF879e+bpEkPdL8QSdJ0uPkbqvKcjsdORde3Q7hZz8RPP2pTL4xCnEGYoWU1tm+foZ3/fAZxlcn2d2ZIvIM3RA+QcQQ11/uPdQdQTyTyg79Q3jxgL8CkiTVlgFdkqRHUf8p6YlcBe3tNt1q+MFVZcEHvpC52hqkYAXiNJGW2N1cY/k7z3H6nXPk7XFgHJiEPEMUQ2xegstf6Qb/o1LRZn9y29Ew7msQSZKO8IejJEkPq7utKoM7W9IjIGeYWoVP/EcFN68uUzTWiTjN7vYZFtbXOPuBVbZap0gxBoxBHieKU+zeaHD9K+zPXzsgpTZFo18IB19nSJL0hviDU5KkOktNSPe6qqynOQzP/nfQ2p0kWAXOQbFBZ2eF0dkVLnzkFK1bE0RxChgl0hi7201efZE7V5UBkSpSY69X3RAuSdID4g9VSZJOWlFClEfOhe9NSd+Bdt6rhnftTUn/4d+G5vgUubMMsQJ5mVydpxy4wIWPTNKpRghGgVMQY0Q06bTg6vN3TkmPyJTlwaBvS7okSW8xf9hKkvRW2J+SfmRPdwSdFuTtikNT0htQteC7/zYsXxyk2rwAxRrkVYhuED/7gTMUzRFyNQyMAMPAKDknrr/SbWs/LPempEP/argD2iRJOkEGdEmSjlP/KemJqr3Xkr4XwiuKBnRa8N0/C09/OnH90gKRLhD5IpHWae+ssPRtGwyNn4LWMMQwMNS9RcGtq5A3+11Fh6J0VZkkSQ8Zf0hLkvSGBZTNe5ySXkDVgbWPwof+WoIrsxBrEOtEepLWrTUWnlhjfGmSyZ0BiGGCEcjDRGqysxlsvUqfVWUVqaiIO6rggZVwSZIeSgZ0SZLuJhXQvwodtHe6VfA9e+fCl94BP/S7Y2y+8BRFcxlijap1lpG5p5laW4JWE2IAYqgbwqNg9xbcvNKvJb37KVPfH9e9FnlJkvSoMKBLknRQKvanpVedDHR679mfqDYyDT/5vyW2Ny8QxVMEFyFWyO3zNMc2mDw9zKm5ASKaQBOipGoltl+jTyW8q284lyRJjxMDuiRJB1WdqhuiM/zMP4ViZJ3cXgeegvQEudqgKM8zsTxCVXWr4cFeEIeqDdvX7l4NlyRJugsDuiRJAKnoVsw//49/gJGZn6DTeoJTS6d6/eWNA7cCMuxsYjVckiQdJwO6JEld3bL52NK3Mzb3STqtRHvnm/xxSZKk42NAlyTpoM5u0N7prj+TJEl6Czn9VZKkw/I3/yOSJEnHz4AuSZIkSVINGNAlSZIkSaoBz6BLkt68ooQogIDOLuTqpK9IkiTpoWNAlyTdm9SAsknviHYABWWzYOtq4kf/E1j/9CrDszf4rQ+8yHNfrIhkUJckSXoDDOiSpH1FCc1hyAdCeNEouflawft/ucH3/o1pdr66TpRngQ3gLBFrtHbOc+PaOMXYr9DJf6f3aN21ZZIkSbonBnRJepxEguFxqG7v8C6BklSU3LyUePpTg3z29xe58sJZynINYh3yBqR1OjtrXP/TIUiZw0vAM5F2iABoYyiXJEm6LwZ0SXoUDc/2InQGSBANWttNZpcb/OL/PsZr5SpF1Q3e5A2IVYLztFsLXPpKJlKwe2gPeCZSRWq06T7yXkDfu0+9WO7wUUmSpPtkQJekh06vc3xkpnsuvFsObwBNyA2IJl/40ggjnIbWBsRaL4RvkDtP8tK1aYJMK+LIA2ci2hSNvU9y9D5xuHIuSZKkY2RAl6Ta6QXwwWkYGgc6AAUwAAxSlANsXm7y0/9kkukLa7RvrfdC+FqvJX2drVdG2dp7rEMyRdmmfwAHfy5IkiSdGF+ISdJxSAXcLfTmHOSqAvZHmkd0B7GNzsD4ErR3gogBYIiiOcSNb4zwsd8c4p2fmadzZQ1iFejd5zUiLbH5SuLqc3BHIRxIZZswhEuSJD1MfJEmSffq9UJ41Qm6Abzi9pC0XiV8YBRmzkK7XRAMA4MUjSGuvTDIR/7qKB/+pRkuPX+aslwFViCfJYon2X5thtf+JPoc686Q2xQDLYpy7zz40Zvf3yVJkh4yvoCTpINeP4TDfgDfn1SeSph/e7cJvXsWfBgYItIwt64Oc+HDo/zIf7PAtZdWKcqVXhV8hVSssXV1hq/9UZBKDg8/zxWp2aIczpD7BfDGg3j6kiRJOjkGdEmPl0gQcbfW76DqZHqHvjm6Lmzl23pN6lUJjAOjdFojjMwN8yP/0ykGqjNEXoZYgbwKsUzEMq1bYzz3xUwq4tBD5lxRlLs0RzLkgwPYUu/WdGOZJEnS48OALunRE9EN4v3WgeUKqipzqBWd/TPhp78FmmOQqwFgDBgFRqg6o/y7/+c07TRH3l0hc57gHMQKub3E9a/DTr+LyRVR7NAc5i6V8IFHJoR3m/wPfs0lSZL0BhjQJT2cDofww/c506uE74fwSN1wPnkOJleA3QJiGPIYxChFOcrmpXGe/b0pZi6eoXXrDBHLQO8Wy7z859E/ekabYqDT+456NIAnHqUQLkmSpAfGgC6pvr7ZZPSq02E/+ebbIXx6DRa/BbY3ExHjRJ4gNca5+fIp3v8r47z9B+fpXD0DcRro3VfLRDHJtReCV/51v8noHRoDLQ4H771fF/j9VJIkSW+SLyglnaxvPpTtyHnw3mT04UlYfz+0tgsixoFxUjnB5itjvOfHp/jQz81w+dIZynQeWCbnJVK5zNarg1z6UobUpxaeWxQDFY3Bfq3oCRg85mcvSZIk3WZAl/TgpcSBkvQ9hHCgaMLFvwjNAPIwxCTkCSJNsHNjkjPvmOKTf3uWzctLFOUSsAh5iVQusXVlhC//YaZsdNvdb8uZ1NilHK4ODGVzMrokSZJqwYAu6c37ppPRq7yXxDlaCX/7D/aWllVjwCQwSdWZZGB8gk/+lzMMsgB5EWIJ8hLEIhHztG41ef5LvQr80RBe7jIw2i+EOxldkiRJtWVAl3Rv+g9lOzgZ/c794Htnwp/8GIwtQmd3HJgGpoiYpr07zb/1X89TpQVyZwWYBxYh5smdKa5/DW71u5hvOhm90Xu7JEmS9NAwoEvaFwmKZtwZeiOo2kHV7tBtR+8G8VR0C+Pn3wuL74CtmwOkNA15GmKaVEyzdWWOj//1aabPzdK6NUfEAjAHzBMxxaWv9XaDH83T0aEYaN9lMvqjtZ7sUeJ/FpEkSbpvBnTpcVMOQP/Am8hV0N7uAK3bf36vCr7wJDz5Cbh1Y5iU5oEZUjnLzcszvPfH5zj30Vk2r86RYhaYg5gjV/MU5SBXX+Cuk9HL25PR+7WjDzzIL4WOWabf/8eSJEm6RwZ06VFUDvQL4N1bewegzf5gNm6fBx+fh2//CdjeHOqF8FkizbF9fYFzHzzDO59dYOvKDKmYBWbIeY6inOLGqwXPfXFvIvsRTkaXJEmS7oUBXXpYFY0g0t1CeKZbBa8OfUzZhI/9EmxXQeQp9lvN52jdWmB6Y573/cwUt25Mk9IMMA15liim2bkxwDf+uN9QtorU2KU5ku9+HlySJEnSN2NAl+oqlZDKPufB6U5r6+xmcqvFwUr4Xjv6d//70BxvUrUXIBYgz5PzIo2BeT78C4vsdCaJPA0xdfu8eDBGewde+Tfdz330fHdEh+bQwcPiB++djC5JkiS9SQZ06SRF0a2E3zmULVG1oL1d0W1H36+EpxKqNrznx2H2YoPdrUUiLUJeIGKFdmuVD/zsHI3RKXJnCpiiu75sipwHeOVrvWh9x1nhDNGhbB5858H7fv3rkiRJko6JAV160CKgGOg/GT2394aytW//+b0A/vZPBRc/kblxdZQUS8ASsEgqFtm+sco7PzPNxOop2juTwETvNktEkxsvQ36NviO1i7JN/wAOfk+QJEmSTowvxqXjcPfJ6EHO6a6T0ZffAd/5U4mbV2ZI6QzEEiktcevGIk9+eJnT757h1uY4KU1AnoA4BXmSSAU3LznrANsAACAASURBVMFrX93bTX5QRSqq3vn0ves6eO+/e0mSJKmGfKEu3auyGb0dUvc2GT0CcoaJ0/DJvxlsXZsmxQqkc0RaY3frDHMXlzj/oUl2tsaJNA6MQz5FKofYuhrd8+B9O8srUqq67fHdz3bgPvVu0lspessA3LMmSZJ0nwzo0kF3n4yeaO9WkO+cjF6U8OxvwzZBVGcgzkA+DbFMZ3eZ0ZkVnvzkOK3tMSJOAZMQk0QapLUFl77SPYt+x1C21KFs5gPXwIF7Q7gkSZL0iDGg6/ESZTdQkxOHAzgQRd/J6KmAqgPf/xswMjdGZ3cZYgXyMrBMpBWe/sQy7RiBPAqMAKPAGBEDdFpw9fl+ITwTUVE07jYZPR34vSRJkqRHnAFdj55IUDRfbzL6nTvCiwZ0Wm0+8kuZlW8f5dbNDVJcAFaJWKbTWuX8h2dpDI+QOyMQo5B791Xi6iWIgzn70AW1KRpwOHzv/drJ6JIkSZIAA7oeVnefjJ7InaC9vXcevBvC9yajP/OX4Nv/naD1wixRrAErEN0Q3tq+wPI7ZxidHaLdGiUYhRiGPEREsHUVdjb7XU2mKDo4GV2SJEnSm2BwUH0VA3tjp+42Gb3NwfVkUUDuwNp3wCd/vcn1V1coylVghUirtLfXmLqwzvT6NNW5AUhDkIchhiAPEilx6zpcf6U3C+6QDqnIvesBQ7gkSZKkY2ao0MnqTijvH3o7O9Ctgh84uN0dE82pM/Ds329y69VvITVWIK9CWqPaXWdkZoW5i6NM7Q4SMQgMAkNEGqC1FWx+gz6d5RmoiFRRlLaiS5IkSXrLGdD1YEWCiLtVnYOqU7F/Fjwf+rjP/jMYzqPQWQfWgFVgjVxt0Bg6z8KTo1RnB4k0CHkQokmQaLdg60q//eBdqdn3StkfzCZJkiRJbzkDut68CHqryeBoCM9VUFV7IXw/gHfPhAc/+vuZifXTtG9tQKxDXodYhbzO9MVVEgOQm8AA0OjdCnIFW5f7taL3Prs5W5IkSdLDxYCue9MN4dCvCp5zUHW6LeJ71fCyAe1W8P2/mHnis6PcuLlKYgNYh9gAVsmdC0ycnqZoNsl5L3w32Ktit24ePGHe/5ok1UcGovIfpiRJ0n0yoGvf650H74bww+3oqQFVK/iWH8989K8Psvv1FaJYB7rV8KqzytjU0zRH55icaND9+3bwBu1daLfekqcnSZIkSXVmQNe+qgP7bejd+73J6Bvvg8/+/jjXXjxPUW70quAb5M4GzdHzDKRphpeB2AvfBUTQacHu9kk8G0mSJEl6qBjQ1TU0DT/xLxIDrRVirw09n4VYJ1fnKZtrEEOMLxZ0J5qn7i26+8VbW+wX3SVJkiRJb5QB/bHRW0/2hS8OMFYukVu9KnhehzgLPEVjaIMYKiHvTTPfn2qeM7RerxJuOJckSZKkN8OA/igpGtBpwef+l1EW3r7O7uZZIu1XwslnKQfXISdo7K0V20/WVfvQxnFJkiRJ0lvHgF5XkXpT0w8k5qKZaN0KPvTrifd9fpbO5Y1e9XuvGr4BXASm6ex0A/tR1euNRZckSZIknRQD+kmKBEWTXgjvVrOLRmJnM3jf50u+7+9O8sqX1yjLdYgLkJ+BfB5ijc5rY4fbyi19S5IkSdLDzID+QAWUQ3unuPcURCrY2Uyc/2CTz/2jBa68cI6y0TsLnrtV8aq9zmtfHaEsc/eB8v5jSlIddUddHD46I0mSpHtmQD8Og2PcHsKWSQQlnVbJ8EzBT/7BMCPVSu8c+IHz4Fygap/mteczEUF7t88Dx+3/kSRJkiQ92gzo31QveA9NdM9055zoft0aRCppbzf45T8ehoFFqp0NMk8R+YneerINdq5Msr33OIdURLS758xvv/Nu95IkSZKkR5wBfS+AN0agOQJUe28sgSZFs8H1l0p+7H84xZl3r7FzY4NIa71W9O791o05uE7fEJ7KNv2D997nkCRJkiTpcQmIvRA+MArD09BpBRENoEnRaHDjhQE+8utN3vfTc3Qur/da0Nd6AXyNiHPcut7g2osQd4TwTCoM4ZIkSZKkN+XRC4/lIEwuQ6cNQQMYJJWDXH+xyQd+dojv+8/meeWrF2kMnoe8CqwS6Sy7N2a58f+loxPdeipSalOUd2tBf/S+jpIkSZKkt9TJBsuUOFCSPnxfdaDbb354f1gkWHgCqgzkbgCHQSINsX19kLXvGOYv/49zXH9lg6JchViFvEoUG+zcmOPrX0qkEnY3OfK4HVJjrxJ+9JoSd0nukiRJkiQdhwcb0CNB3CWAQ1BVQNXu/T7vvzvD3EVITaAaAIaAIar2EIPjQ/zCPz/FjdZpUrUfwIlVghVaOxM8/8eZVMThbJ8zqWxRDlSQDwbuvUBePIgvgSRJkiRJ9+LNB/QI7jqJPFdQVZmjlfAIyBlmzsHgOFSdJjAMDBNpmNbWED/1fywwNLNCtbvSC+ErkFbJnWWe/3KD1HfAeYdIOzSHgbwXvA/eGr23S5KOWwZShPsnJEmS7s89BvTotaP3af3OGapOh/0Anm8H8OkVOLUCrR2IGALGgBGKxgg3Xhnj3/5vJzjz7jPs3Fgm0nI3hLNMxArXXhpg+6v9LqZNc3DnwHUcvQ0c7YqXJEmSJKnu9gN6KuCue7hz3CWEV4zOwMJT0NotiBgFRikao1x9cYRP/eo47/qxOa5eOkORuuGbWCZXKxTlLNdeSLzyZ3sV+IM6lAM7UPYL4AUnfXZekiRJkqRjVpKKAgiqzsFW9MMl6MEx2HgftHYSEacgxklpjJtXxnnmL87wsV9b4vorZyjKM8AZcj5NUa6weWmYr/5RJpVxZ1U7tyiaLRpD/UJ4AgYe8HOXJEmSJKk2SqpOh0jw1EehHUDVAE4BY0SMs7t1ioWnJ/jh35ll87X9EE4+TSpX2L5+iq/3CeE5Z4rGLs2RfPfz4JIkSZIkCaDkqU9+iLJ5ih/7vSluVXNEtQSxBHkJ4jQRC7S3B3j+j3tt8Ecmo0f5eiG86XlwSXqM3NmDJUmSpHtU8tnf/4fkPMULXz6wkvyQiggno0uS7oU/DyRJku5TyZWvTwFtGoNt+k9FdzK6JOneJLIRXZIk6f6UlAMVTkaXJB2HvVGjkiRJesNKuhPTJUl6cwKsn0uSJN2/hLUOSZIkSZJOnNVzSZIkSZJqwIAuSZIkSVIN2OIuSZIkSVINWEGXJEmSJKkGDOiSJEmSJNWALe6SpOORgYgAV61JkiTdDyvokqTjYzyXJEm6bwZ0SZIkSZJqwIAuSZIkSVINeAZdkiRJkqQasIIuSZIkSVINGNAlSZIkSaoBW9wlSZIkSaoBK+iSpOMRQIX/2VeSJOk+GdAlSZIkSaoBA7okSZIkSTXgGXRJkiRJkmrACrokSZIkSTVgQJckSZIkqQYM6JIkSZIk1YBn0CVJkiRJqgEr6JIkSZIk1YABXZJ0PDKQqiBO+kIkSZIeTra4S5IkSZJUA1bQJUmSJEmqAQO6JEmSJEk1YECXJEmSJKkGPIMuSZIkSVINWEGXJEmSJKkGDOiSJEmSJNWALe6SpOMRQEX4U0WSJOn+WEGXJEmSJKkGDOiSJEmSJNWAAV2SJEmSpBrwDLokSZIkSTVgBV2SJEmSpBowoEuSJEmSVAO2uEuSjkemu2pNkiRJ98UKuiTp+EQEYUyXJEm6HwZ0SZIkSZJqwIAuSZIkSVINeAZdkiRJkqQasIIuSZIkSVINWEGXJEmSJKkGrKBLkiRJklQDBnRJkiRJkmrAgC5JOj6Z8OCUJEnS/fEMuiRJkiRJNWAFXZIkSZKkGjCgS5IkSZJUA4lsi7skSZIkSSfNCrokSZIkSTVgQJckSZIkqQYM6JIkSZIk1UByY60k6dhEBHHSFyFJkvRwsoIuSZIkSVINGNAlSZIkSaoBW9wlSZIkSaoBK+iSJEmSJNWAAV2SJEmSpBowoEuSJEmSVAOJ7Bl0SZIkSZJOmhV0SdLxyQTZTeiSJEn3w4AuSZIkSVINGNAlSZIkSaqBBJ5BlyRJkiTppFlBlyRJkiSpBgzokiRJkiTVgC3ukiRJkiTVgBV0SZIkSZJqwIAuSZIkSVINGNAlSccnKoiTvghJkqSHU4LwDLokSZIkSSfMCrokSZIkSTVgQJckSZIkqQYSZFvcJUmSJEk6YVbQJUmSJEmqAQO6JEmSJEk1YECXJEmSJKkGEuAZdEnS8ciEP1UkSZLujxV0SZIkSZJqwIAuSZIkSVIN2OIuSZIkSVINWEGXJEmSJKkGDOiSJEmSJNWALe6SJEmSJNWAFXRJ0vEIumvWJEmSdF8M6JIkSZIk1YAt7pIkSZIk1YAVdEmSJEmSasCALkmSJElSDRjQJUmSJEmqgeQRdEmSJEmSTp4VdEmSJEmSasCALkmSJElSDSQIe9wlSW9eBiICiJO+FEmSpIeRFXRJkiRJkmrAgC5JkiRJUg0Y0CVJkiRJqoGEe9YkSZIkSTpxVtAlSZIkSaoBA7okSZIkSTVgi7skSZIkSTVgBV2SdDwCyO5AlyRJul8GdEmSJEmSasCALkmSJElSDXgGXZIkSZKkGrCCLkmSJElSDRjQJUmSJEmqgUS2xV2SJEmSpJNmBV2SJEmSpBowoEuSJEmSVAMGdEnS8chARJz0ZUiSJD2sEpE9gy5JkiRJ0gmzgi5JkiRJUg0Y0CVJkiRJqgEDuiRJkiRJNZCI8Ay6JEmSJEknzAq6JEmSJEk1YECXJEmSJKkGEhlb3CVJb14Amej9SpIkSW+QFXRJkiRJkmrAgC5JkiRJUg0Y0CVJkiRJqoEEnkGXJEmSJOmkWUGXJEmSJKkGrKBLkiRJklQDVtAlSccjA5FdsSZJknSfDOiSpGNkU5YkSdL9MqBLkiRJklQDnkGXJEmSJKkGrKBLkiRJklQDBnRJkiRJkmogQbbFXZIkSZKkE2YFXZIkSZKkGjCgS5IkSZJUAwZ0SdLxCNwLIkmS9CYkCF9OSZIkSZJ0wqygS5IkSZJUAwZ0SZIkSZJqIOGJQUmSJEmSTpwVdEmSJEmSasCALkmSJElSDRjQJUmSJEmqAc+gS5KORwZSBHHSFyJJkvRwsoIuSZIkSVINGNAlSZIkSaoBW9wlSZIkSaoBK+iSJEmSJNWAAV2SJEmSpBowoEuSJEmSVAOeQZckSZIkqQasoEuSjkcAFUF2E7okSdL9MKBLkiRJklQDtrhLkiRJklQDVtAlSZIkSaoBA7okSZIkSTVgQJckSZIkqQYShGfQJUmSJEk6YVbQJUmSJEmqAQO6JOl4ZHADuiRJ0v1L5GyLuyTpeESEIV2SJOn+WEGXJEmSJKkGDOiSJEmSJNWAAV2SJEmSpBpIBJ5BlyRJkiTphFlBlyRJkiSpBgzokiRJkiTVQCLb4i5JOibZg1OSJEn3ywq6JEmSJEk1YECXJEmSJKkGnOIuSZIkSVINWEGXJEmSJKkGDOiSJEmSJNWAAV2SJEmSpBrwDLokSZIkSTVgBV2SdHyiCoI46cuQJEl6GBnQJUmSJEmqgUQOW9wlSZIkSTphVtAlSZIkSaoBA7okSZIkSTVgQJckSZIkqQYSkT2DLkmSJEnSCbOCLkmSJElSDRjQJUmSJEmqgUTGFndJ0vHIhD9VJEmS7o8VdEmSJEmSasCALkmSJElSDRjQJUmSJEmqgQSeFpQkSZIk6aRZQZckSZIkqQYM6JIkSZIk1YAt7pIkSZIk1YAVdEnS8YmAOOmLkCRJejgZ0CVJkiRJqgEDuiRJkiRJNeAZdEmSJEmSasAKuiRJkiRJNWBAlyRJkiSpBhJkW9wlSZIkSTphVtAlSZIkSaoBA7ok6fhkwtGjkiRJ98eALkmSJElSDSQIax2SJEmSJJ0wK+iSJEmSJNWAAV2SJEmSpBpI4DgfSZIkSZJOmhV0SZIkSZJqwIAuSZIkSVIN2OIuSTo+EUEQJ30ZkiRJDyMr6JIkSZIk1YABXZIkSZKkGrDFXZIkSZKkGrCCLkn/P3v3HiRZlteH/XtuZlX39Dy6e2Z63tM9PbMrWMBgIRDCsUYQxkiE7eAPWdgGCzss20EQKCyFJEfIsgPJDmwkFLKFUAgDlkIKh2UhwLKNDbJ4LQgMwbK8Fi8IEMuyzD7mPf2qR+Y9/iMzu6u6K7OyurPq3uz+fCJu5EzXrcyTWVmV93t+5wEAAD0goAMAAEAPCOgAAADQA+agAwAAQA+ooAOwOjVFty8AwN0R0AEAAKAHBHQAAADogSa1GowIAAAAHVNBBwAAgB4Q0AEAAKAHmpTGEHcAAADomAo6AAAA9ICADsBqlCS1LV03AwBgXQnoAAAA0AO2WQMAAIAeUEEHAACAHhDQAQAAoAealBjiDgAAAB1TQQcAAIAeENABAACgBwR0AAAA6AFz0AFYjZqkpCQpXTcFAGAdqaADAABADwjoAAAA0ANNqiHuAAAA0DUVdAAAAOgBAR0AAAB6QEAHAACAHmhSqjnoAAAA0DEVdABWYbIDei32QAcAuEtN4loKAAAAutakFkPcAQAAoGOGuAMAAEAPCOgAAADQAwI6AAAA9ECT2GYNAAAAuqaCDgAAAD3QJFFBB+De1di5EwDgHqigAwAAQA8I6AAAANADAjoAAAD0gDnoAAAA0AMq6AAAANADAjoAAAD0gCHuAAAA0AMq6ACsRklS7YQOAHC3BHQAAADoAQEdAAAAeqBJqjnoAAAA0DEVdAAAAOgBAR0AAAB6oJHRAQAAoHvSOQAAAPSAgA7AatQkpZTEXugAAHdDQAcAAIAesM0aAAAA9IAKOgAAAPSAgA4AAAA9IKADAABADzSpMQcdAAAAOqaCDgAAAD0goAOwGiVJbe2BDgBwl5oUQ9wBAACgayroAAAA0AMCOgAAAPSAgA4AAAA9YJs1AAAA6AEVdAAAAOgBAR0AAAB6oEmphrgDcO9qJnuhAwBwV1TQAVidkiKkAwDcHQEdAAAAeqAxHhEAAAC616QWc9ABAACgY4a4AwAAQA8I6AAAANADTUoMcQcAAICOqaADsDp1egAAcGQCOgCrUZLUUmJ7EACAu9KkVLUOAAAA6JgKOgAAAPSAgA4AAAA90KRazgcAAAC6poIOAAAAPSCgAwAAQA8I6ACsRk1SbLEGAHC3mhRz0AFYEbugAwDcNRV0AAAA6AEBHQAAAHrANmsAAADQAyroAAAA0AMCOgAAAPSAgA4AAAA90KRUc9ABAACgYyroAKxOTbH0KADA3RHQAQAAoAea1EatAwAAADqmgg4AAAA9IKADAABADwjoAAAA0ANNYps1AAAA6JoKOgAAAPSAgA7A6pSSlK4bAQCwngR0AAAA6IEmiTnoAAAA0DEVdAAAAOgBAR0AAAB6wBB3AAAA6AEVdAAAAOgBAR0AAAB6YNh1AwC4j9SUVDuhA8B9pg/Tote9DeOUmrSL72N4jw8CAAAw03W2eNAfPzm0DSWp7eS45bCR1Yd1vp9E5/yaFwDqIKOaPLxV0rRzz1JBBwDguHUdWh70x0+WCW1tm2RucChZLiAtOkeIW5nD3lLzXoaStDvJqccmRx0tOHcVj3fz+9ukjOd+c8k4Nbvz76i2SUbzH77U6fcvspvFT2SUBb8AScaHvGBtUua3sWYnze75fOTC9dw4Pfe0YVLrA/M+BgD6pOvQ8qA/frJMG2o7uVw82DKhbdlgd5y6fvwTcg+hrWwnZx5PhkcJbStXMwlJ8x68ZnHImoW4RS/EeHrMs5v5IW3WvkUhblVtnB/0klHSzHsONbUdpbQHt7HdLTnz3Ci//dOj/O73JqceLantbpKtxW2u16ZtP/hnU8u1lEWvW91KyrwAXZJsJ2Vrzv2XpO5M7mNeG0ub5NqC55CkXLt92MBtrdxKKdvz29BuZ/I6Hfz1mp2UMr+N4zLOme2t/J+ffyXXdzPvPBV0ANivZnIR0mTxRdgqH68PFrdjcUg7yGGhTGg7Mcv83A54KUqScU3OnE82H1p4XXsCZqHqoJ/ZMoHosMraokB0WCibPX7XoW0388fN1tR2N6U9+P7LbrLzwji/9SO7eednk+GjB/28R1kc4pJkJ6nb879cFgWcvSFu3u/meBri5rwX6mhxiEuSZntxG+t2UnbmfXEa4ua3saZN2hspB7axpDY7KYe0sdadlGZ+G2u7nTI8+D1dk9TxnPxekvGN5NznJj/7d5Nf//6kGSbtorcVK1YynK7WU5OD3gYCOnC/6EvIOYr7qc3j3C/rmrTjjbTjJu04ua92OzlsdGuZc0qZXPM+dC7ZfGRy4dePXDsLNPMCSTu90J/zxOs4h4a2MpqWEg+8g+njL6rETUNZmdPGOguO8ypC46QuESznVqUyaX+zaMhlTdrdlPbOH2zbljy8uZsP/+Aor/7GNKTf0dRRku35zyHJcqFt547Hv9XINsnWdOjoQedMvz43wC8R2spuJs/jwAZMQ9v890LNVsqC4bk145S6nXnv11pGKYeE31p3UhYGx52Uwfz3Yx0d/FasJWmuJ9c/L/mF70ze+pGkDKa/InTosA7OwYKvN4d+fzMsGZ5OUpNmkNz75/cqPv+7bsPJfP+41MmfxINPH/bkQ5b1so4X4Np8co7W7rZkTkHgKMGoD5W4u7GObZ6nph0ndXQ6qWsaaqc/jseeeTuPPv3pjHeHuVV5m3+lemve3Lw7HSXZmSTgg86o49RFlbOSQ8NFyU7qvBCYTNowN1yU1DpKbXfS1DvbWEfJ8Ik2H/m/d/KJD9ZJSF+qkjqrts2zPRmyeKA6rWDdS2gbTx5jbmjbzaIrpCT3GNqmlbRspcwZsjsJbfN/trXsphwSfu85tCWTt8cBP9Nxm5zbTP7Z300+/s+T0nRdReckQ9vBdbz7IYTd6330pf2L7ueQX9RS046S0aI/0XRlmFralDn19VsejKDQH8u3++hDDg9ylHAjCD2wjvI+W/LlrknO7ibl4vLfc/IOqwztUWaBYJkn007DyZJjT8v2EcoZNYuD0f5zS3ZT5y7ccls7sjunojfOaPvhnH36VzLYnBcW+q1Oh37+1N/+/px65JfSjpvcfC0XvD4lO6lzf+6z1+zGnIBeUjJKXRQUS01yI/ODZlLqjUN+houGviZtnby9hvXOVtRRMnwq+YV/kHzqQ0JaP91LaEsWB7eSwcae0HagrgNTH9rQl/bfW2gb7wpt0LFhRtuDaUDvesXF+9fNOQZH+YbDTinJeJw8eiHZ6Hxe2CLjLP/sRzl8jtjMzsKqxT61Ts5fdi7pzSGFy7Z7N4vnhN1syKQdSwWh7Bn6eJR2LxuMjvj6ld0FVarbTk+bMt45tOeoJhm0yY8/eyOjv1gnxbKy96vXl2vf7HWti+aszZRpRWzZYJzUXE9ZOqDPKoZLBvR2/nDH2+44tdlKOXSo61StSVn29Usm74cFlcq97ZhWHcsBL0k7Kjn1+LW88+r1W+1YI7OA/uN//SNJPtJtY+7KvYS0ksNGrTTD5pCQdpCuQ0vXoe1ev/8kQlty2Nzp8bx+OQBWbZjzF99Oyacz/4/3dAjXEheRpZQkO6l1mQu9TO/zKNWpnSwXhKZDChfNd7rDdhavGrnn3pvR9Dkuo6atN6ZzOw49NWl3J3sfHNKO8Tg5++g4P/E/buf3PlJz6sy9XAsv+7rWHOV1moTz5YPQrXlsy9hZPOdur9rm6AH9CO/LzALfoQ2ZDDVcMqDXOvn9mL8i5m3nl1HKku/LSTuWD3u1jFOWHLVcM82ph7x8s4D+k5eS8bdm+b4Z1saa5fObhpuD7H/Dr3vIm33/Yfex4G+TyhoAnISSf+XrPzfJ8wvOmQ7vW+JKqyRJ2U1dNGdsn6MGuNlcsmVaMlsQZJly9NGCZylHCehJmzbNslMyx1kqR7bj5JFHkp//3uStV6eL+6zpxTBdOcrImKNObVimR2pimCY5ddBXjvMNvY73fdy/4Cu6/1Iz3ml7PKoHAKC3DF2/O0cNK8c1x3syL6wMsoJr63UMFet43+vY5uO971Gpy0+XBgCA+1dJMzhsRcfkQVhsrV9OepE4AAAAAAAAAAAAAAAAAAAAAAAAAAAAAAAAAAAAAAAAAAAAAAAAAAAAAAAAAAAAAAAAAAAAAAAAAAAAAAAAAAAAAAAAAAAAAAAAAAAAAAAAAAAAAAAAAAAAAAAAAAAAAAAAAAAAAAAAAAAAAAAAAAAAAAAAAAAAAAAAAAAAAAAAAAAAAAAAAACA+0BJMygruq+63FltUpc7FQAAAB4Uqwrns/s6/P5KU1LKKh93nr73AvS5fX1u28wSbSxJ2yZpj70xAAAA96rkD3xNFufqJbJ0nYagRae24+ThR5IP/1Dy9ieSUlTSuRfLdAhNOoNKs8rHXYc3bZ/b2Oe2JUdpXzs+xmYAAPAgKvnm178xaT5nztdrStlOLQuuREtSRzUZ76SU3cwLTeNRcvZ8yY9921Y+9oujnHqkTIL9kexOj0Vqkp0kh109z85bphGj6eMedvE+SsoS7avLtC9Jmbbx0BdqPDlvqfbtHP64dXdy7qHta5dsXzt93EPaV3eTweEPmyR1PH34eU3bTXafTz764eT1H0jKYPI93G+WG7kzsUxPzbL3VzI8ddB5q+6AWMf7G2e8U3XAAgAcXcmf+9AHkvIl935PZfGlXynJaJScfSbZPLNEpjsRbSbh9rAL8nGS7Rx+cbt7hIA+vzPjpqUD8FHad1hAr8sH9FnwrqMsfi7jpCzRvrqbDA57/aantjsp4/nnlt2S0bOj/OpPbedffFuy+dS0mfPat9TrN07q9lLtm7wPlnwvLOoAu9m+ZTpgkmQ0fX8d1r6dHP4zXrZ9bZZ7/Y7Svt1MnvNh7Zv9zh3yu1Rr0tTDT0tSRln4VEpJmjb5ye+ePqwgCgDAagwzPPXm9AJ33lXm6q4+B5vJtddrri6TiQ+0bHWrOcJ5wyXOGyY5tcR5nJSSpB4yNaN8PPmMJ5PP+65pn8NJLH2wz2EdK8uOL+IZ/gAAIABJREFU9hhPA/USvVp11tlwiLI7fVFW0b52uQ6YZNpLsmRAX7Z9h3YgZNLJ1WxPR6UsusdRymjn8IA+3k5Oj1IG2XNum+RGDp8zNEqydXibl+6Yaaf3d9h5NSnXlmjfODXbKYeUwEtpU+t2br0v24zbU3ns9K/kp//+W3nn06YyAQAc0XB6bJzMw9VksHGvD7fKq71l7+soj7mOQ1L7cn8rbttmsjWquf5bWSKcr3L487LnliSnj3CfHLdDO36mapKv+KacQPV8vMSDzEYwHKYm5XoOf7/NRu4sE9D3diDsZLTzXB5/5o/nwz/6gbzz6TLpEFmzgD7cbCZzYu5La/bD6B2v373x+t0br9+9qRktOxgRurVM9bhvVr3yPPetmjRN0pxe8Z2uXJ87TVatz21LjtK+K5886F9X3dGzbFDcXPK8x5Y8725sp905lZ3ho9lZZoZMT412bP0AD64+Xxce5bOjCyXLfQZ2Z9IB23UrFun7NVLfrdHrV0YZb7fzaiHrGNChS73+yz61Dm1cf809F1n7/EFyN21rUwfJQ4OawRq+BUtTUtuaf/0vvJjT57807WgjR3sddpN62BSHDpVxkmVGUHSlJrmaPrev1qs5kV1i71LN9ZR+LPBzoJobKaW/vXclW6lLrb/TjVK3U4f9Xe22qUm73DJCJ65tk4fPJP/HNyU717tuDRxKQAfoRo+v9O+qbU1qkmEpvX5m85RmslTBH/ja9+Xsxb+S0fYjWWq3jZk6WzOgr89+NhWir+2rmayl0Of2bfe3ecl0Ac7+BvTJwqn9DZil7Kb2uX11lNr0twOhqeO0Cxbv7VJtk1MPtRkNdrJzPSvefndVZuvY9LXzvib1Wibt7OMfwjJdZ+euFzo7ZiWTn+9W2vGZnDn7vfnBv/TRXH/zwJMFdABWoyTZaWuvI8J8kyX5r7x2Ks3G2Yx2znTdIID9+prdZvqYi6bercnnf01fwzkPhnGSrYx3H87ZZ341P/rXpgH9zh2BBHQAVqdZ0wr6TDNo0wzqdArDUa+G+371zP3N+48u9fv91yS5+lrXrThM33sP+t6+vhsk2ch4dzLorp0/YEdAB2A1JkPce11EOVQtNbcmGh/1mazzMwe4v9372jEPun53wqyHOtn5d5hFa5oI6ACsztp/fMvYAHAAH5D3bqnX0FAFAJgp69/FAACsLwEdgNXRvw4AcNcEdABWo9Rkpylp1zil16qCDgB0RkAHAACAHhDQAWDGHHQAoEMCOgAAAPSAgA7Aakz2QS9rvVBcrfU+2CsOAFhTAjoAq1NiJXcAgLskoAPArGxuDjoA0CEBHQAAAI5bSdK2NQt2dRXQAWBmUkFXRQcAOiGgA7AapSS7WyXtuOuWAACsJQEdAGZqU61yBwB0RUAHAACAHhDQAWDGKu4AQIcEdAAAAOgBAR2A1ahJNpuSxhxuAIC7IaADwExdsDEpAMAxE9ABAACgBwR0AJixSBwA0CEBHYDVEW8BAO6agA7AapQko1LSrvEicW2tehkAgK4I6AAws8Z9CwDA+hPQAWDGHHQA4LjUJKXJooqAgA4AM7VEGR0AODZlIykCOgAnYXGncP/VooIOAByjmkXr3QjoAKxGTTIoZa0D+jq3HQBYewI6AMyYgw4AdEhAB4AZ8RwA6JCADgAztSZiOgDQEQEdgNVpy3rHW3PQAYAOCegArEapk4C+zsxBBwA6JKADwIx4DgB0SEAHYHUWb+3Zf7XW9X4CAMA6E9ABWI2aZFhKmjL7v/VjiDsA0CEBHYDV8akCAHDXXEoBsDrrXn+upVrKHQDoioAOADcJ5wDAMRrUheUMAR2A1SlrHnDNQQcAjtMhl0oCOgArUpLxTkltu24IAMBaEtABWI1SknactZ6IXhcPOwMAOE4COgArUrP2c7jXfR93AGCtCegAMNOkrnsfAwCwvgR0AAAA6AEBHYDVqEmGTVnrldybWo1xBwC6IqADAABADzQyOgBMtZaJAwC6I50DAABADwjoAAAA0AMCOgCrUZKMS0ld50XiBnXyRIxyBwBOnoAOAAAAPSCgA8BMW6el8zUeBQAArC0BHQAAAE7CqC6cRyegA8BMMfkcAOiOgA7AatQkg1KMDgcAuDsCOgDMtIuHnQEAHCcBHQAAAHpAQAeAmaZWe6ADAF0R0AEAAKAHBHQAVqct670OervWrQcA1pyADgAAAD0goAPATDOoSYl56ABAFwR0AFanTA8AAI5MQAdgRWrSrHk6v7kP+po/DwBgLQnoAAAA0AMCOgDMNCafAwDdEdABYEY8BwCO0yGz6AR0AFanrvkqceNaU8V0AOCYNHXhdYaADsDqtKWsdbxtstb9CwDAehPQAWBmUKtx7gBAVwR0AJhpu24AAPAgE9ABYGZsBjoA0B0BHYDVKCWp46z1EHFz0AGADgnoAKxOOypZvDhpv5V2jRsPAKw7AR2AFVrz8nMd1LV/DgDA2hLQAWCmNtMR+grpAMDJE9ABYKbMCuiq6ADAyRPQAVidJmWts+06tx0AWHsCOgCrUTNZyX2dU25Z5xXuAIB1J6ADwMwa9y0AAOtPQAcAAICTMF48Wk9AB4CZWqsV3AGAY1Oz8FJDQAdgNUqStqz3IHHZHADokIAOwOoc0ivce2WtWw8ArDkBHQBm1rv+DwCsOQEdAGbauu5jAACANSagA8CMaA4AdEhAB2AVJrO3B6Ws9TDxZlCNcwcAuiKgA7A6Jeudb28uQq+UDgCcPAEdAGbGdZrM17mXAQBYVwI6AAAA9ICADsBqlJqMyzrvJF4yqOvbegBg7QnoAAAA0AMCOgDMjGu1QBwA0BUBHQAAAHpAQAeAmUb5HAA4RsO2psy/3BDQAViNmmRQ9uwlDgDAUQjoADAzbqsaOgDQFQEdAAAAekBAB4CZwWadDNFXRgcATp6ADsAK1Qi3AAB3R0AHYDVKScajkrrGAX1czUEHADojoAPATJkeAAAdaLLWpQ4AWKGmTsfoS+kAwMlTQQeAGV3WAECHBHQAVmfdC88jc9ABgO4I6ACsRk3SlDLZpmxN+VQEADrkUgQAZga1piihAwDdENABYKbtugEAwP2rJO3iQoCADgAz47E56ADA8ShJxovXuxHQAVid6SZla6sZZv1XugMAeqnm0MsMAR2A1ShJ6pqn22Zj+gzWuZcBAFhXAjoAzFTBHADojoAOADMDAR0A6I6ADgAzAyV0AKA7AjoAq7HEwie9N+66AQDAg0xAB2B1mlLWOqSPZxX0dX4SAMC6EtABYKIY4g4AdElAB4AZn4oAQIdcigCwOm0pa72F+LhWe6ADAF0R0AFYjZL1z7bjrP9zAADWloAOADPDWq0PBwB0RUAHgJlG+RwAOCYlySHr0QroADAb2D6qNQa5AwDHodZkeKqmzB+uJ6ADsBq13gf7oLfiOQBwfMriCC6gA7A66xzOk2TjVBb1agMA3BtD3AFgOc1g+h/K6ADAyRPQAWBmt5XMAYDOCOgAMNNG8RwA6IyADsBqlJKMx2WtA+6wne6Dbh46AHDyBHQAVmjNdynzqQgAdMilCADM7NaausYdDADAWhPQAWBGNgcAOiSgA8DMxmwOOgDAyRPQAViNmmRQJovFAQBwZAI6AMzstNUwdwCgKwI6AAAA9ICADgAzG2fqZIi+MjoAcPIEdAAAADgJoyycTiegA7A6bcpaF5/NQQcAOiSgA8CMBegBgA4J6AAws9nWyRgASR0AOHkCOgDMtF03AAB4kAnoADBRJnPQTUIHALohoAOwOk0pRocDANwdAR0AZorqOQDQHQEdAGY22moEAADQFQEdAGZ8KgIAHXIpAsDqtKVknUeJnxqpoAMAnRHQAWBmtJG17mAAANaagA4AM1sP19QSKR0A6IKADgAzG20McQcAjs/iIoCADsBq3A+F59O13hfPAwDop0FduN6NgA7AitSklvWuP+/USThf72cBAKwpAR0AZrbaqnoOAHRFQAeAmc06rZ4roQMAJ09AB4CZ021SqjnoAEAnBHQAVqQkpV3v0vNWaw46ANAZAR2A1ahJSpu1Lj/PAjoAQAeaWA4HACZOt0nxuQgAdEMFHQBmHtoxBx0A6IyADgAzV88ntZmEdACAEyagA7AaJUktZa1XWNt6OKlr3H4AYK0J6ACszroXnh/ZWev+BQBgvQnoADBzupqDDgB0RkAHgJm326SNKjoAcDwOucYQ0AFgZkv1HAA4RqO6cKNzAR2A1ahZ/0+Vc7vT56CEDgCsWMmhhYB1v5QCoE9K1jvbPmQOOgDQHQEdACZKPrWdjLPenQwAwNoS0AFg5nqbVOVzAKAbAjoAzMa0P3sjGQjoAEA3BHQAVqMkGZey1vO3T28ttYALAMBxENABYDbp/CPvT3Y3JwvFAQCcMAEdAGZ5fHszSRHQAYBOCOgAMFu1/bOSDGOIOwDQCQEdgNWoSQalrPUWZYPYYg0A6IyADgAzKucAQIcEdABoM/lE/NYk76Zm0HF7AIAHkoAOADdtZVJGN84dADh5AjoAZJTJBPSLSV5NstltcwCA+09NMmzrot1iBHQAVqMkaVPM4wYAuDsCOgAAAPSAgA4A+xkDAAB0QkAHAACAHhDQAWA/FXQAoBMCOgCrUWvSlGKHMgCAuyOgA8B+KugAQCcEdAAAAOgBAR0AAAB6QEAHYEXKZB66AeIAAHdFQAdgNUqS2t4PS8TpYgAAOiGgAwAAQA8I6ACwnwo6AHA8DhlrKKADAADAsSvJeHEdQEAHYDVqDu0VXhMq6ADA6pUko8UL6groAKxOSblPQjoAwOoZ4g4AR6KCDgB0QkAHAACAHhDQAVidWpK69oPcVdABgE4I6ACsRsn9Em3vj2cBAKwdAR0AAAB6QEAHgP1U0AGATgjoAAAA0AMCOgCrUZOUsneBuHVdLE4FHQDohIAOwOqUrG8sBwDomIAOAPupoAMAnRDQAQAA4CTUxXUAAR0A9lNBBwBWr9ZkeLqmzJ8PKKADsDo1RbwFAJijDLJowR4BHQAAAE6EIe4AcBTGAAAAnRDQAQAAoAcEdADYq6qgAwDdENABWJGaNKUsWPcEAIAFGuvtAsAePhcBgI6ooAMAAEAPCOgAsJcKOgDQEQEdAAAAekBAB2BFStKOS+qaLxNnFXcAoCMCOgAAAPSAgA4A+6mgAwCdENABAACgBwR0ANhPBR0AWL2SZLetqfMvNQR0AFanSVnzJeIAADojoAPAPkUFHQDohIAOAAAAPSCgA8A+CyaGAQAcIwEdgNVpS7HEGgDA3RHQAWA/XQwAQCcEdAAAAOgBAR0A9lNBBwA6IaADsBoloi0AwD0Q0AFYnZqSSVRfZ7oZAIBOCOgAAADQAwI6AOyngg4AdEJABwAAgJNQs7AUIKADsDrrPft8+nFZVdABgOMxyMLrJQEdgNWoScp6J3QAgGNTkwxrFdABYGlFBR0AOB6HXGUI6AAAANADAjoA7KeCDgB0QkAHYBVKSpKFs6oAAFhEQAeA/VTQAYBOCOgAAADQAwI6AAAA9ICADgAAAD0goAOwGjVJqeu/SFw1Bx0A6IaADsAKybYAAHdLQAeAvUrVywAAdEJABwAAgJNwyGRAAR0A9ipFBR0AWL2SZKdduNqNgA7AapQkNSWH9g0DADyg2ixcskdAB4C9rOIOAHREQAcAAIAeENABYD8VdACgEwI6AKtRkzSlmIEOAHB3BHQA2E8FHQDohIAOAAAAPSCgA8B+KugAQCcEdAAAAOgBAR2A1ShJ2pT1rz/XtX8GAMB6EtABAACgBwR0ANinqKADAJ0Q0AEAAKAHBHQA2E8FHQA4HmXxlwV0AFajJmlKSTnsowcA4AFUS7Ixrmnm1wIEdADYTwUdAOiEgA4AAAA9IKADwH4q6ABAJwR0AAAA6AEBHYDVKEna3A/15/V/BgDAWmpSXYgAAABA11TQAWA/HdcAQCcEdAAAAOgBAR2A1ahJiuIzAMDdEtABWJ1SS0rXjbhXehkAgG4I6AAAANADAjoA7FWrCjoAcDxqFi5HK6ADAADASRjWLJoOKKADsDqH9AqvhbL2zwAA6KOaZLOti5a7EdABWI2SpK7/EnEAAMfmkDKAgA4Ae1UVdACgGwI6AOxliDsA0BEBHYDVqElKKVm49AkAAPMI6ACszv0Qz1XQAYCOCOgAAADQAwI6AOxVF+x9AgBwjAR0AAAA6AEBHYDVqffBDO5S1/0ZAABrSkAHAACAHhDQAWCvuvZjAACANSWgAwAAQA8I6ACwnwo6AHA8DtksRkAHYHVKKSldNwIAoIdKTbYerqnzY7iADgD7qaADAMegJu0wqfOrGQI6AAAAnAhD3AHgKFTQAYBOCOgAAADQAwI6AKtTU1LXfZm4qoIOAHRCQAcAAIAeENABYJ81HwAAAKwtAR0AAAB6QEAHgP3MQQcAOiGgA7A6pTVCHADgLgnoALCfCjoA0AkBHQAAAHpAQAcAAICTULJwOqCADgD7GeIOAKxeLcnptgroAJyMmiLeAgDcHQEdAPbTxQAAdEJABwAAgB4Q0AFgr1pV0AGATgjoAKxGyWQOOgAAd0VAB4C9SqOCDgB0QkAHAACAHhDQAWAvc9ABgI4I6AAAANADAjoAq1GTlFKSNV8ortgHHQDohoAOAAAAPSCgA8BeKugAQEcEdAAAADgJh0wEFNABYK+qgg4AHIOSZKcmCzaMEdABWI2SpK75AnEAAMelJNmts1LAgddMAjoA7FXsgw4AHIOaQ4e4D5OMp0emp6//FjkAcLdqEdABgE4MM9p+JCWDW/9UdjPcHGd/WN97qLoDcB/TRw0AHIPJdMCFhjl/8Z+mlM3U+kya8lzGo7N563c30hyUw+s4ZbCVwWZJ6kHB3VUNwIOqJinlPvgcMMQdADgGNcmpUqap+cDrjWH+4Z/8zqR8f1LPZzw6n0ceP5+v+Y7Hc+XGU2nyXFKeS+qzSXk2pTydneun8+4nkmZ4233WcZrhKM1GkjpL97PQbtg8AAAAD7b2ZiHgwHr6ML/yj68kuZLktyf/cirZvZJsj5NSH0pyLsm5lOZstt59PJf+4Pn8m9/8ZK688WKa4cspuZjkuTSDC7n+9qlce/2g8F4z2NxOGdRpeL+96i68A9AXKugAwOqVJLtZeKUxTDPYG5BL2lHJL/xvNZOF425Mj0/cDPiv/mLyiV9OdrYGKc3jKTmXZvhYrr72WP7g153Pl/xnT+fdT7+YwfCFJC8k9YU0wxdz9VOns3WlpgxuC+O1TXNqN02ZrWlnzjsAAAD3l6VWcW/HNbdn+GaQ7A3te29vvFPy//3gbOX315K8llImU/auv5782j9Jdrc2U8rZJI9msPlYrn7i0XzZf3c+n/OVF7Lz+vMpzfNJuZy0r6QMLuXqJzazs3VQa2uSnQxPCe8AnBQVdACgE8MD/7UdJ7cuUPZfqJRye4CfhOSSkrc+XvPmx9okO7kZ3puktskP/JnkJ/9qUrdKUs4kOZtm42xuvP5o/q3vfiyXP//ptNcuJuViUl9MyotJvZjkXN763TuaMfmHsp3h5qwt8w4ATsJkoJW/vQAAd+nggL5IrUndF+DHN782Ce+3h+OSMkje+ufJm79ek7RJriW5llJeTa3J9/3J5OFzScYlycNJHrl5W9tH85/874+nOfVi6ngW3C8l5b0Zj5/KlU/UO1cNrjVlsJvBZnvAavNWnAdgERV0AKATRw/oi0zC+5zKe5M0zQHhPckbv1byRm0zCe9Xp8ct3/GVs285neRMUs5ktP1Izj3/aP7jf/xUbly5mKa5NK2+X0oZXMrOtWdz9bUmg+H+HXNqrRkMR2mG49waIr93uLzwDgAAwIlbbUBfpLZJnTNsvmmSHBDeZ7ev/vJs0bqt6fFmkuSN30z+hy9Oxm1JyekkD6U0D+X62w/ls778TL727zye1z75QoaDS0l5KakX0wwu5fq7F3PjrYf2LEx3s5WpdZThZjtZzO7A6rvwDnBfsw86ANCNkwvoi7RtMm/OezJ/0bralrz6K7Nh87MV5yc+9D3J73wwGe2WlGwmOZ3B8HTe/vRD+fL/4HS+4i89ndeuvZRhnYb3cimpl1OaF3L9zVPZvTGp+t/ZltGBbdl/CwAAALccuPP5fv0I6IdZtGjdPNvXkld/ZXb+9uQo7yQ1+eG/nfzM9/1aRvUDKRkkOZ2UUxlsnM47Hz+df+9/eiyf9VUv5tobl9MMXkrqS0kupTQv5+rr51LbyXz7/arwDjzQapLS3gd/6xoVdABg9WqS0+O6aC+y9QjoKzO95rp+dXJMjDNbtG7WpfE935Bs/vlfTG2bJBtJNjPY2MyVT2/mz/7Mw3n0uUvZufa+lObyJLyXy0m9nOvvnFuwud3ogJEAwjsAAMCDoObQjcIfsIB+mFmAf3NyTIbOz6rvk6//zS9NyuA3U+uPZPL6bU5vN/IXfvZMdk6/kOxenob2l6dz319JbS9l6+oBK86nTSnj6XB61XcAAIAHlIC+tGl4v/bm3n8cTY+Jb/miN1LL7yb1ZzJ5bYdJ2cjujWEuvGczf+pHn8qVNy9nMHglKZ+dlN+Xklcy2n02O9dqSnN7EK8pTZuybzE7lXeAY2WROACgGwL6Kl19ffZfNcnu9JgsXPfqLyd/+aVPptZfziRYD9MMhrn+dpPP/arT+RP/yzN56/fek+HGy0l5ZVJ9b17OePtSxrunkztWnAfolyUWPgEAYD4B/aTUNrnx7s3/y60An3z4B67lv3zqjdT6q9OvNxlsDHPjnSbv/y+G+YpveiLbH72cMnwlyeUkn5nkX0q7eznteENuB1ihqpsBAOiGgN4H7Xiy6vyef0mykyT5qb+a/Mxfv5rU30nygSQlg82S7SuD/JH/fpAv+Heezvity0l5OcnLk9t6OclnJDl3ws8EAACAuySg910dJaOb09xrkprRdpKM8//82eSf/rmPJvlokh+bnlMyGJbsbpd84w+fzbmXX8roxnumi9a9Mg3yn53kmZN9IgBroqigAwDdENDXWW0Pmu9Z044n//rtX/5mkjeTfGjfGc0w+fM//3hq8/J0pfmXb4b3kvdkcOq5pM4Wo9u7KN1k7aTaHttTAgAAeFAJ6A+idpT8lc+bhfcPJklKmYTvJ19K/syPn8lrb1zMsNkzZL5cTm0/I4ONl7JxapBaB5kE9yazAF9bix/Dg6wmaUpZ+2UxzEEHADoioDMxC9avfzT5iy9dT/Jr02OiGUzmyn/mVw7yx7/rYt792PsyOPXStPJ+OXX8mdl8+LlsPrQ5De9NkmmIL8l4J6njWNAOAADgYAI6y2nHk9tf+8Fx/psXfjvJb9/82mAjGe8mf/hPJV/yp5/KlU++N83gcpLJsPk6fjlnHn9vhmceTm2b3NwjPk2SZLQTezMBvVEMBQIAuiGgczSlJKVJZuE6SWpb0gxKfuLbkw/8zdeTfDrJTyVJhpvJaKfkq/9WzeUveyRXXvt9GZTPmc59v5w6fjlnn38pzfB0at3IrfA+zKQCn+mieAAAAPc1AZ2jqXU6VD13rhRXmqRp9i8s145LmkHyj74xqfV6JgvWTRata4aT+fBf/33JQ5fOZ3T95elq85dv3pbymTn34pkkG9Pj1PR2Mud958ak0wBgVWoz2THDnBwAYJVKDh04LKCzOpNV5Wdvuf1vvYPCe+okvH/HH0uSt5P8/PS4ZXg6+fr/q2Q0fjkll5O8L2k+I3V8ORsPXc4TLz2W8XgjpcyC+2ZShml3p5V319dwYkqSNiXVLx4AwB1KSa6Natr5KV1A52QsCu/NILlzS7dpBX635Nv/tTbJb02PH7654vwTl5Ov/XvDXH3zUgbDl5LyUpKX0u5eypkLr+TJ9z6TujVMyumknErqmZSykd0t4R2Yzz7oAMBxOSSCCOh0b7IA3cHhPdkb4Ge3k22c3vqdkm/7knFuhfekDCZD8C/+4eSPfkuy8/HH0wxeScqLKXlPxtvvy2MvvZJzLz6e7J5Osvd4KKU02b6WjEcHDZ1v0wza3N6JcOctAADAkQno9N+8AF9KMjxdkjrbi316bJT83k+XfOcX10yGzv9ckp+7Oef9s//d5Iv+o5L27aeSvJyUF5O8lNJczGjrvXn+X76QRy88lHb0UJKHkpyZ3JZBbrzdzNnrvaYZjCK8w/qzijsA0BEBnfVVazLami3mtF9pJvPXU0smK85Pbpthk4/8o+RX/9eayWrzn0ry/yaZbRdX8kf/q5oXvvBstq+8mNJcSuqlpLmYdvTeXP7iixmefji13RPccyapg1x/e/r7dFAWL6M0zeyLwjsAAHAHAZ37U22T0VYyCe+zAD/ZzL0ZJMNTs6C8v/o+PN3kn3xzTW2vJvnw9JgE/tomf+xvJA89cT7t6GJSLib1hdRczGBwMe/7ihcyas8keSTJwzdvS9nMeGeY628mZZjb+hNqShlNt65TfWe91SRNKWv/jq3moAMA3RDQefC046QdH1x5T5LBRknZKJnsw172Hd/3p2tS307yVpJfuvk9w83k6747udY2KeNZeL+YNC+m3b6Uhy9cznu+7LHs3jib0jyc5NEkj6Q0G9m9PszWu7P95fcrzTil1Ki8AwDAfU9Ah9uNd+eH9+Fmma4ed9u895T8na9LklGSj06P3Fxx/vHLyR/5rzey9fqLaTaeT+oLKc0L2b1+MU995rO5/P5z2bn2aErzWCbh/bGUwcPZemeQneuzhfL2qmmavSvZCe+wKn57AICOCOhwFKOdBeH9VHLQsPmkyTsfL/kHf2I3yb+YHpPQ3Y6Tl/5Q8v5vGOTaGxfSDF5M8kLK4PlsX3kh7/3SS3n6c5/I9pVHU8qTSR5L6tmUwalcfX2Y8fbBlfdknGYwq7zP2iW8AwBAjwnosCqj7WT/nPdbJovW3bnifLPR5GMfLPmfv26U5JPT49aK85//1SXv/YqaK6+fz6C8ktTn0wyfy9a7z+ULvvqNBwjVAAAgAElEQVSFnL18PrtbZ1PKuaSeS8rZ6e0gVz+VOSvO2y4OFjEHHQDoiIAOJ2GyaN3B4b0Z3B7eJ7fNsOQXvy/50Pe0mWwX98EkH7wZ3rc/VXL+s2q2r51PyXNJnkvybEp5NuPRxXzRf3g+wzPnU8fnkjyZlAtJPZtam1z5VHPAPu9JynTovPDOXaop4i0AwN0R0KFrdy5aN775tWY4C++z4H4rvH/gu5LajjNZsO6tJL+a5Na89513k41HT6WOnklyKWkupY6eycaZ5/KvfsMTGY0fT8n5JE8keTylOZ/R1jBXPzk88E9DKTWlGe/9lz23gjv3D/ugAwAdEdChz9pR0o4ODu+DjUxXm79zwbqkyY98a5tkJ8nvTI+J4elkvJ2Mdh9KKc8l5ekkT2e09WzOvfRMvvDrn0379tnJnPdyPmkvpAwuZOfqZq6/MZgsbn+HOl1xPskd892Fd9aMtywA0A0BHdbVeDeZN+c9mb/Xe2qTH/rL4yRbSX5rcpTJ3TzyXPL2G0n71iCleTLJhZTm2exceTHP/6Hn8rlf/WTaq0+mlCeSPJlJ9f1CmsHDufbGMNtXDli0ro4yODVOKbd3Iuw9oD9qUUEHAI7HIVcZAjrcr0bbRw/vN14r+bFvqplsF/epJJ9KaT6c2iZP/kTyiV9PyvWNTOa0P5XUp9IML+T6m8/mC//9J/PS+5/M9pUnU5oLSZ5MrU9lMDyXt18dZncrB8x7H2d4ajT974OC+4FL1NNn90O2vR+eAwDQOzXJZpssqAUI6PAgmhfeJ6vNZ8+c9+ltKXnzN0p+8ltqkt0kn5get7aLe/O3k+d/f7Jz/WxK81RSL6QZPpkb7zybL//Pn8tTn/FUdm88nVIuJLmQ5KmUcj5vfmwwJxDVpGxnuJkI7+uj1JKy9qMiJHQAYPVqklPjuuhKSUAHbpmsNp/sHzo/mfdemtv3ep8F+KTZaPJb/yz5zQ+MkrwzPX4jZZDUcbL9TvLoc03G248n5YmkPpHSPJHR9hP5t//aheThJ9PuPj2tyj8zuc1TqaNTeft3c2cWr23KYDuDzUw7EwydZxXqbbcAAKtVF1+iCujAcmp7+17v7b6vlyZpBreH45IyKPnwD9RJUs/r0yM35703u0k9ldTx6aQ8ntQnkvJ42p0n8tDjT+er/sbT2X33YsrwmaQ+nZRnU8qF7N44lXc+Mang78tTtaYZ7qbZaO/Yd35vpwIAAPSMgA6sRm2TOqcC2TRJmoP3VP+570kmVfqtJK9Oj4nhqeTaW8l4+1RK83hSz6U057N95Xxe+P1P5N/4by/k6hvPZTCc7AGf+lya4XO5/tbDufp6zXCjpN4e3jd20gwPCu+Gza/C/bEP+vo/AwBgLQnowPFr22Te8OFmkNwe2me37ajkl75nnGQ7N+e9TyvvH/9Q8tbvJDtbw5TyeJJzaYbncvW1c/mCr3ki7/9PL+TN157NcPBykhdS67OT8P7aqWy9W/d0GOxRdzM41c5ZcV54BwDgWAnoQLfacbJo7u+tAL8/vF9/q+RD/3CcyYrzn07y6ZRmUsl/52PJR34oufH/t3fnQZad5X3Hv897zl1637un92VWaUCDJUAEiB2WgAirjaowyIANdkISyw5UjJ1ylgrYmCBclB0q4LAGQ6UwoVgqFBgqUCyKTDCgCCIQSGgZzd4zvd7uu5xz3vxxzu2+3X3vaLSMZnrm96l6OX1v33P7iJqZvr/zvO/zrgY46wH6cLluSqe6ec4f9XLkVcPEixNgY0B2TCaxoJel49ak47wHqoQFz87grjXvIiIiIvKEUEAXkcvbZoDfGt7NmlffLTDOPgjz93vSqfPngHMb4X3138L3PwJUHdAB9ADduLCbtbO9/PqH+hg+OE5tfRyzvWBz4CfBulk4yval99mPjgjzEc2r7grvu4+muIuIiMgloYAuIruTr/eda1J93xreGxvWwcI9cO6n9SZ3K9lIz/Ee/vuboNANSdwG9ID1Ap0kURdv/uwQQfsEPp4EJoBJsCmSaJTlowF++7R5DxZEBPk4u7xWAV5ERERERAFdRK5AW8P7tsq7A+d2dptP/9c4+sN65X09Gyc3zv3wq8BCwLcBXUAncbWDztFOXveFfmxxFGMabAL8NOYOUVsfZfVEgA9sR2HW+5ggjHA5GprWwW6uvJvtxqvexquCLiIiIpeEArqIXF3O120emk2b3/z6wf+zPbyfTs/JwQefDVYDyAPtmOugstzFxLO7eNUHe2FpCpjE3BT4KWAac+OUl9tYW/DpFnVbOs7HBPkIC2jRcX7Xx2ARERER2UoBXUSk0fma1rXsOJ/Ase9COm2+mo1FABaOwYm7wGJIw3sH0IYL21k51cYv/8senvf2UZZPThOE08A0MIELD7B6poNqyWM7ps7HBIVai27z6jj/eHlXn3mhmyAiIiLypFJAFxG5UBcW3rdW3aN1OPEDI62818P7wsaa92/8Ofzg0xDVchhtQBtBvo2lY228+i/7OfyKcUrnZnDBFPhp0ir8DCtnekhq27vNQ3qToEJY2H49Cu8iIiIilzkFdBGRJ0Kr8L6zYV1D0zqgdM5YnU+AWjaWN8L7F94GX30nJHEOaAOKBLkiK2fa+N0vdtD7lFEqq9OYTYOfgfqREVZO0qIAHOOCxupwq+PVy7QGXURERC4Sa7Yj0CYFdBGRi+l83ebPdw7A4vF0NIZ3LH2LD7wSXCFdU5/+W14AiuALYEV+/3tjmL8GmMnC+ywwi4/2UDrbZNo8YJZgLubxhHePaZMyERERkSZcAiuDkAQtX6KALiKyq9TD+4nGJ6NslDae+fMjvwD/nbTtvM+BKxCthQzMFbj1G8OsLswRBLNpcPezmJsjqkxRXmnDgp3rr81izNWfv7Kr7l63GEREROQiiUPwrT86KaCLiFyJVjZ2h6uH93UAjt0F7zxwDJ/8kDRY53BBjtX5kCO/luc3/6aP0/dOEub24/1hjP1peC9PUisXwW0L795jYYJZBOS4kBkCIiIiIlcrO/9HJQV0EZGriY9h9fTGIzYb18GPvgB/PHSGJPoZ2NeBHC6Xo3Q64Jm3hrzknf1EZ+YwNwvMAbOYm6ZWuoY4bsfHkMTuvLeFdwNN0hcREZGL5RE+Jimgi4hIKq5Cab7+aGt4//5fwV3/7Rz4e0kr6AFhIWB1PuCNXwq49kWDLP3sMIWuecxVG95j99EUdxEREbkYEgc9pyGIWr5EAV1ERB5ZXE1HygMRrKS/XT51M7hgBeL7wRm19TTg+vN3KRURERG5qtSbxMWtY7gCuoiIPD7ReuMjVZ9FREREWnmEKe7uSboMERGR3UH7oIuIiMglooAuIiKy1e5uciciIiK7lgK6iIhIoyCMcQG44FJfiYiIiFxltAZdREQklU5tX1u5g6D4OeLqIYp9EzjLk97QDrJh4CGqnuetRERERB49BXQRERGAJE4D+gdf+EWwL4KHW74CQwN78NU5sBnwc8AM5vbSPXSIxIqkv0vrIw3wPsm63mu2vIiIiFw4BXQREZFGLjDqS8A+dZMBp4GTwP/eeE1nH/zep43F9j0E8Ry42TS82zQ+3k+ufY6u4SJxlMMsBHJACGYkESQ1FN5FRERkOwV0ERGRRmklPQbq69CtYaSP15bhXS8y0uB+Arg9/Y5L93+fuhFe87EhVo5eQ1CYzsL7DEntAB0Dk3QO5YmjPFgBowAEmEGtDHEEpvAuIiJyRXqEvWIU0EVERFpJYtj8Vbr1V2qr8G4BHP2ecdu188C3Nl8fQhIZN/y65/lv72Lp1CFceBizvZhNEVcP0juxh7bePEmcBwpANoXeoLYOPkaVdxERkV0s62bTin7Li4iIPNHM0mr69vAOhvcenyQ0Bv4gB3HN+Md/5LnmpX2sLcxg7gDYtZjNENf2Mnp4iFx7ER8X2QzvBQDKK0/ef5uIiIg8FlWiap7h6V/iz667k4WjBua33/9XQBcREXkyuQBczoHfVn03R1wFn0TUp9jDZuX9V9/rGTgwSLQ+DW4K/DRwAOwgkzf0Y66NNLS3bQzvQ8orzafMm8WY82y9gdDsKCIiIo9fGtCHpn+Jd7cO6JriLiIi8mRKYkjipOn3gpxheQNfnwCXDhc6Pv8HHu8XgHng+1vOe8MnISgO45NpsGnwU3g/S1g4wPQzR4njIkY79eBuViSqBpSXwUJ2LIhrHt4V3EVERC4yBXQREZHLRVzzUGvePibIG2bG5uq1+nB84jcS0uB+GvjexjltvfDaDxvltT04mwKbBKaJa5N0Dc8wfeMYlVIbznUBHUA75orU1gIqJbBg53WYizHzNA/tCu8iIiKPgwK6iIjIbhBXPa16v4aFeljeGt5ra8ZHb07Y7Db/3Y1O8+PXwSveY8w/NEyusB8Yx2yK2vokg4dmGT0ySLzWjlkv+A6gCwvyrC8GROX6GvtGHucaW9ArvIuIiDxKCugiIiK7XVRpEd6tMbw7NsK7GSd/YnzgJk9adT8F1Ne7w96XGDf+U0/1VC/mrsH8FBZMUi1NsO850/TN9VMtd2DWCfQAvZgVKZ0LSWrNwju4IELr3UVERM5LAV1EROSK5VuHd3MQFgHvaAzvLjTu/5px35cTYAm4A7iDIEz3aH/ubxqzz/esLvbhbAJsDnN7qZUmue5lExTGe4lrXUAX0L0x1s+F6bZ1TbK4C+KGRwrvIiJy1VJAFxERuRr5BKIywM6GdRbUw3t92nwa4MPQuP0T8J2PJ8AisAD8aKPyXjljdO/zVNeGMJsAPw42jk/2cvjmaTra+yDuJq2694B14+MOls8EbOlJt3mVmEUttqyj2QkiIiK7mQK6iIiIbOVjiGJIK+8xjdu+BTmyTvP1afNpeHeh8be3gfcxcCYbP0wztIezC9DbA0QjYOPgR0mScQptYzzrNbOUw0HM94L1gu8B68Nop1YOWDtrTbrNbw/vZNfS+FhERGRXUUAXERGRCxfXyDrN19NyQ3jPk3Wab1jvnq1///Y7ACLS9e6nNs4ptEOwAKttDhePgo0Co5iNUVsfZ2j/BEde3UN5dQQXDoDvBfoxl6e8HLK2kK6d3xHeXZxdCzSvvouIiFx2FNBFRETkiRFXIU3KO9e8twrvcWR85j8aUAOOZSNtBu89DO6FlROOtaVhXG4K/AgW7KG8NMG+Xx7h0E29rC8P4dwI2CD4flyQY3U+pFpq1W0+btFtXuFdREQuKQV0ERERufhahneDME8WmLdV3s2x8JDxhbdHpFvFnUxPCdJp+Pd/E47daawv92NuGrNRXDDM+sIo1792iPEb+qmWBjAbBIbBj2JBkeWTIXGlIaNTv7YqYcFvvYYdQ0RE5LHJVn2djwK6iIiIXEIeovNU3tNu85Z1m28IyjnH0TuNB/++BpzNBrgAkhgWHoTx6x3VUj/mhoFxXDBBeWWMX751gN65AeLqIDAADAKjYO0sHWt6GWA1wnyCwruIiDxWnrT16nkooIuIiMjlK+023zy8uwDCogMf0BiSXc7xk7+Fu79cA+azcfdGeK8sQueoI64MgA2DHwTGSfw4L/kPQwSFIXwyBAwBw5gNEkedLD68veqeXpYFNYJ8vPMmgsK7iIg0MKCUNNs/ZYMCuoiIiOxOSQxJ3PxjTpCzrNt8Y3g3XM7xg097vI/Y7Da/KV4Hl8/hk3plfYAkGqC9f4h/8o4pKuvD6Xp3hoERzA1RXetg6XhImDN8430E73FhhMsl2f2Fetf7+tcK7iIiVxNnUEq8ArqIiIhcXeKaz7rN7xTkLWtYtzW8g/Hdj3vSbvOba94B8u1QWYGolscYAuvHbIDKaj+T1w/xwj/cw+KpMcLcGDCSNrMLhykvFCmd9VhoWycBeE+Qq2Khz7as2+x4r6q7iMiVqT7F/Tz/wiugi4iIyNUlrjafMg/ptPmdU9ONqAJ3fChtJFfvNl/vNH//t2H+XiidCwly/UA/Luhn7Ww/19w8wI2/PUztzDAEE8AM5sdw4R6WT+epLNd/ZgOf4Ao1nDVrWKfKu4jIbqYmcSIiIiIXKIlh8+PT1o9Rm+F982gYy6fgjg/XK++ngdOYS9fPn/wF3PdNiFcMs25ghCDXz/KpPm76w3723zTM6rlRnBsDm4RkFgvGWD2Rp1qmSRZPCArVjZ/ePMCLiMgupYAuIiIiciFahXezFuE9MBbvg4Wfe9KWQEvA0kZ4/9IK9H0cquUQowsYwIVDrJ/t5UXv7WPyqSMka2NgY+CzI7MsP1wgipteIVgl3bZO4V1EZDdSQBcRERF5PLxP92VvHd53Tpm3AB66Ex78YUJaeV8AFjB3Lz6Btd+F7iHwtRCsC3wPuB6Saj+v/Ngg/f2j+Oo42Dj47Mg4SdTO0lHSRY5b1rzHWFAmyNu2Ne+aNi8ichlRQBcRERG5WNLw3nzKvDlwrnl4P/49OO63hve6T/8GtBWBpAB0Ad1AF3G1m649fbzuU+NUFuZwuXHwE2ATmI1SXSuyfAJcyI7wnnabJ9sqDtRtXkTkklBAFxEREbkUfAK+1Xp3R7ofz7bwDnD025BOma9kY37jvCAPf/ViSKoFzHWC78KCTsqLXcw9p4dfe/8elk8fIMzNAuPANC7Yw9pigdJ8s/AeEeRjLGhVeRcRkSeQArqIiIjI5SZJ4JGb1e0M7z427vtGY3g/m37Lw9n74eE7IaqGmOsB2nFhB6unO/kHb+7heW/fw/KpKQI3B24/MIsLRlmdL1BdTSv+mzz4GkEhybasazVERORR0D+cIiIiIleSrQGejaP3hk8S0up79p1sq7iuEeifycK7dQLdBLkOlk6086rbenjKr45TOjuDcxNg+8AfwIIxVk45okr6PlvVCAsJrYO7PoOKyNWmSlLLY2NP4wPX/1+WjxqY37H66RJdnIiIiIg8mczqVfBW4T1me4M776F3AtoHIIlCoA3oIMh1snqmnTd9ppeR66aors5gbhr8NNgU2AGWjlvjvYCGC6kR5hXeReRqc0EBXVPcRURERK4GW7vNbyvZbOk2D/X15YaxdAwWH643rFsBVjbC+1+/HnId4OMiaXgvYtZGHHXwli8NEXZN4aMpsCy8uyl8NMny6WK6xH7LBSZYkK55T9e71xvUKbyLyFVDAV1ERETkare12zxA043Wt7weYP6++jPlbGx6/wuyir0PgAJQJKoW6Bkp8tavjbFQniGwGbBZ8NOYmyOqTFBeKKbbxG1jFmPOs736r+AuIlcQBXQREREReeKde6D+VQysZQOWT8A7jtxP4m8n/Syax1yO8kKemRcUuOVzvdQemsGCazG/H5jB3By19QkqpTzWLLy7GLN6eG8W4EVELr2sZ+e2OUw7XiIiIiIicukFeWgfIp1Nbw58AZfLsXo8x41vK/Cy2waoPDAN4QHwhzH2YW6OyuootUqwrdM8gMe5uKGLncK7iFwqVeJanv7hI7znGXex8LCaxImIiIjILhW2QbG7vo4+APKE+ZCl4zlu+S95nvbGIRZPzRG4WWAWOIhxmEppjCRyTbZt97ggpnVo1+dkEXkiVYlqeYaHjvBnz1RAFxEREZErTTZftNABQRF8AmkSDwlyOVZPh7zms3kOPneUZHUuW+8+BzYD/lpqa7N4b00+Eqfb0bXask6foUXk0UsD+tDQEd7dOqBrDbqIiIiI7FLZB9tKCSjVn0yAajbgf7wOguAMcFf2/QBzjqgS8ubbC4yMTuCre8HmsvA+Bz7d6z2q+GabvIuIXCwK6CIiIiJy5Yor23vSx9mo8bFfWcdsEfgxaeU9AHPEFUfPeMCt352icvZaXK5eeZ8Fvx/vZ/DJjjnzIiKPlwK6iIiIiFydauuNj5JspM49CO8cvxu4e+M5c0ZcM+aenePNnx9m4cRBgtxTMA5m0+YPAZM03SdOROSRacqOiIiIiMjjFeQgrsEzXp/jVe+bYPHYXoLgILjrwPZDcgALRrGdreYBSBLOu/eSiOx2F7QGXQFdRERERORiCvIQV+Gl7yhywxsmWZ3fiwvmwM8Ch/BcR75tGHOOdKq9o7E5XRK3fm8R2S0U0EVERERELmv1yvsbPlVk7PppKitzmJvbXPPOYYpd42wG92ytfLZvnMK7yG6hLu4iIiIiIpe1uJYeP3FLGbgnGykz8B5+7xshYdcsPqp3m98LzGJuH51D0ySxAwtJP9sHgOGTtGqvepzIrqKALiIiIiJyqTlHw5Zum0fD+MvneeA+4OdbzukYgLfe7lg4uZ8wPJQ1qpvD+xnCwj7ah0chcmA50s/9IZgjiSCpofAucvlRQBcRERERudSSBDbnum6d8+oC2FyTvhne1xfhTw4B/Ix65d0c+AT2XA+v+ZuA6OgkFhzGfNppPolmKfbupXNkCF8LgFw28pgZtUpa1df27yKXhAK6iIiIiMjlLF1nfuHh3QLj1J3wF/sAHsjGl3AhJBEcejXc9K4c1YfGsHAO7ADGYeLqPnpG52jr6yGJ0tCe5oUimBGtZ9ei8C5ysehvl4iIiIjIlcYsraY3VtzrR+/BJ57Gfd/rzepe/DZ46mtzLJ4ZJ3B7gWnMDhJXr2HgwF6KXZ0QF8AK4AtgRfBGubTl7URkh7RJ3MjwEd71DHVxFxERERERtof3rQHeJ+D91k3ZXS5ds/6P/hT2PT0kKU2kHeb9NNg0Pplm6inXQlsPPikC9dEGFPAeyivNps0nYEm6/n7LdWy/qSByJagS1/L0DBzhvTfexeIxBXQRERERETmPIAQLDXzjtPk00ceVeniPqKeKeqf5N78P/GwbSW0amASmgSl8MkNYmGPi6T34WjtYG2lwb8OsQBxBpdQ8vJsl22YBuOyoDCO7j6cKUZ5yx3V85B/+iNXj2mZNRERERETOI46AyLM9NUBaSQ9cPbQ7GgP8R95qQA34aTY2FXvgdZ8MqC4dwIWTWeV9iqQ2S/vADFM3tFOrdIB1YXQA7ZiFVMuOaqle7W+UYC7BmnS9V3iXy5WR/q0K7Lx/ShXQRURERETkkSU1SGge3sM8WRl8a3AHI1p3fPTlEfCTbGx2mx85BK+8LWDl7AQuPIQxi7lJauUZBmcn2HO4k1q5HbNOsC7wnZgLqKw6auXm4d25pOmWdVuPIpdG879BGxTQRURERETk8Ymq0DJ6GISFZuHdMX+f8V9fHgEPZiPtTJ/EcPCF8Jx/nmN1fgTn9oI7gAXTVEvTTD9zlIG5LmrlDsx1gu8E34uFAWvnXIut4jwuiGgd2hXe5ZLTH0IREREREbk0zEGQb77mPYmMJIpI17yngjCdhn/jb8HBFxdYXxjDginwE5ibpVo+yKEXjtA+2E1S6wTrBN+VHslTOkuL8qXHBY17yCm8yxOtio/yVDuv40PPbbkGXX/QRERERETk8uMCcDkD31h5J21YVwWfREC8+fpsn/cX/AEMHmgjWh8HmwA/Dm4CH41z5Oa9BIUevO8GsmHd+Dhg+RRZR/ltzOOcwrs8XhcU0DXFXURERERELj9JDEnsaQzhdUHOsLyBD2isvLvQ+Pp7wfsKcG82NrvNR+sQdnbio3GwcfDj+GScXNsEz3j9BOVSD+b6gV6gG3NdROWA0pkQaxKd0k7z28O7grs8ZgroIiIiIiKyu8Q1D7XmrbaCvGUd3reGdzC++G88UALuyUYq3wHEsLJQIAhmwfYAo8SVUXqmJrjudaPES51ZeB8CP4gFXVRWQ9YXHS7YeR3mYsw8zUO7wrs0pYAuIiIiIiJXjrjauk922qxuZ8O6pGZ85laAKvWt4upV954ZKNUgmQ/BTQCzOJuksrqH2WdOcOglI5SWunGuD2wQ70cIgg5WzwZUVmga3tNO8/VrVHiXDQroIiIiIiJydYgq5+s0n32xrfK+esz4n2/xpM3qHgAe2Og0P/t0OHMPLC0WCNwIMI4LZlhbGOWGm8eYfNYga8t9OBsABoB+LBigdCqgVia9T7BN2qyu4cKaHuUKpYAuIiIiIiJXOQ9RJfti25p3cxAWyTrNO+rVd5czHrzTuP/vPWnl/SHgIVxwB0kMiz8zJp/tWVtux9kwMIILh6ksT/C0N00xsm8QXxkA6wc/CNaPMcjiyVxj4/oGCVg13XN+29T9zRkBssspoIuIiIiIiLTiE4jKsLnPe7LxPRfUw3s9IKcB3uWMH38NfvSVBFinXnm3AHwMZ07AyD7w5Q6wYfDDmBsiqg7z0t+fgKlRfDQENgg+OzJEEhVYfLjZHu8J5qoEeXZuWafwfllp7EjQhAK6iIiIiIjIY5F2mofN0L4Z3oMQrGgNlfcsmuUc93wOfupj0oZ19wP3b6x5tzPgh8HHncBQNgZJoiHaeke56d/3UqtMYsFY+kIbxqyf2nqBpRPZmvfGWfw+xoURLofC+yVUbxcY0apDAqCALiIiIiIi8sSLIyBqvubd5SBwO5vVgfGdzxjpNPvVbNy/cV6uDaqrENW6MLcn7SbvBqiWBtlzeJjn/+s+SoujuGAKYxQYxgV9rC8VWD2T7hW/NbxHuFycPb/9WpptCi+PlQGJQW/FE7RO6AroIiIiIiIiT6akBgktwnsAW4MyG8e4atz+wQRYycbPNyrvXcNw9l6orOUwN4oxhAv7WDs7xOGXD/Ks3xmidHYPLkib2Xk/SxD2sXImpLwMbnse9zWCQpJtWddqyAXzaUDvqoJLWr5KAV1ERERERORykU6Zrwf3Rwrw6dcGrM4bf/fRGKhRb1hnLl1Df/oeePDvoLKax9wA2CAuHGH1zBC/cusAB188wvrSHsyNAiPgp7FwkKXjRq3cbM17TFiIaB3cFd5bSc7/f48CuoiIiIiIyG6xGeC3hnezxvBePxoWGPO/8Jy5NyHtNn8COIG5H+ETKJ2B730SauV2zPqBHlw4yNrZIV753kFGrtlDdW0MszFgFBjDbISFowV8s0qwRYT5xvC+cxq/tKSALiIiIiIistt5n3aIb1Z93xne0/nsFhjH7vQ8/DUz0iUAAAQKSURBVMMYWMvGwxuV98/9K2gfhKTWCdYLvgdzfUSVHl774QlyXWP4eAzIho3j4yHOPRhmP28rcxFBPs4urVlwv+rDuwK6iIiIiIjIlWxneN/c690cOLd1rXu98n7fd+on1hvWPZy+xMNf3wJBHnzSAdYFvock7qa9r5s3fXaIlaURjL2YnwPGMTdJtD7A8vEAQtvWrM5nnebjhq730Ljv/FVCAV1ERERERORq5RPwLda8Owc0Ce8A936rvid8KRsnAQhy8KGXQbVqQAdGP2ZdVFe7GL2hm5e/f5Bofg/mpoB9mJ/BhZOsLXWzejokzBl+e3jPVXGhb7JN3BXXbV4BXURERERERHZKEmjVsG7nevf06BP4f1+GNLxnlfes6n7sbjh+N7AOWAHow4VdrJzu4Fm3dHPTvxtk/sw4YTANNoFPZnHhtazPd7K+5BtuFtQvyeMKVZzVdxnf9eFdAV1EREREREQenfN1m2+1VVy0Cg98A9LwXgFOYnYS7+Gb/xnu/ipUK2BWALpwuU5KJ3p57h938YzXDxEvTIJNAVPAOBbsZ+3UINUyTWbBpz8jLGy/lss6vF81c/lFRERERETkUrL6futNKu8efFKfNp89m+3x3jkG3aNAZEAb0EaQa6d0upNXfKSbA88dJV6ZApsG33gcZuWYkezYrS4BqxHm69ewPbhfhJzsq0Q+z1DyVN79oh+zcNLA/PZ7G6qgi4iIiIiIyJPAt668b+00v3WP99IJY/V4Qhre027zZmfxHj7/O1DsIQ3vVgTfDtaGWRtRpYO3fH2MQnE/3s+An84q8NP4eJCl4833eE+7zdNkzftFb1ingC4iIiIiIiKX1tZO89v2eN/oNL8zvC8+mJXZiUkXt69vOfeDL7gT50LwRSAdca1Ix2A7/+KrQ6yXDhHkDmThfQZjhqjaQ2neY8G2bvN4zCJsyyyAxqnyjzu8K6CLiIiIiIjI5et8neYfyZl7ACI2t4pLnX0AbrsefPK/0oZ1vogFRcqLBWaf3c4bP7OH5VMzBMEcuGuB/ZiboVrqprLSLLwnmIsx2zl9/1EEd61BFxEREREREakL89A1kk3HtxxQxIUFVk7leM4/6+AV/2mUxeN7CcJpsP3gr8WCg1RW26mVPba92zwe59aJfTv9yVN5T+s16AroIiIiIiIiIhci1waFrmw6vjkgT5AvsHw85NV/0ckzf2uSldN7ceEM+DlgGnOHqax2UakVmKw9lT952Y85d0oBXUREREREROSJle3zXuhKA7xPHOly8pAgH7J8PMdvf6Wbw4efwvsmvsVDe5fgF5vnbXsnEREREREREblY8u0QBFDOg18k7WknIiIiIiIiIiIiIiIiIiIiIiIiIiIiInLZ+v/ommnsSmzikAAAAABJRU5ErkJggg==;" vertex="1" parent="1">
          <mxGeometry x="114" y="324" width="32" height="32" as="geometry" />
        </mxCell>
        <mxCell id="jXO-OSJdq2ioLEKXHTDI-44" value="" style="rounded=0;whiteSpace=wrap;html=1;" vertex="1" parent="1">
          <mxGeometry x="160" y="480" width="130" height="40" as="geometry" />
        </mxCell>
        <mxCell id="jXO-OSJdq2ioLEKXHTDI-45" value="" style="rounded=0;whiteSpace=wrap;html=1;" vertex="1" parent="1">
          <mxGeometry x="290" y="480" width="130" height="40" as="geometry" />
        </mxCell>
        <mxCell id="jXO-OSJdq2ioLEKXHTDI-46" value="" style="rounded=0;whiteSpace=wrap;html=1;" vertex="1" parent="1">
          <mxGeometry x="420" y="480" width="130" height="40" as="geometry" />
        </mxCell>
        <mxCell id="jXO-OSJdq2ioLEKXHTDI-47" value="" style="rounded=0;whiteSpace=wrap;html=1;" vertex="1" parent="1">
          <mxGeometry x="550" y="480" width="130" height="40" as="geometry" />
        </mxCell>
        <mxCell id="jXO-OSJdq2ioLEKXHTDI-48" value="" style="rounded=0;whiteSpace=wrap;html=1;" vertex="1" parent="1">
          <mxGeometry x="160" y="520" width="130" height="40" as="geometry" />
        </mxCell>
        <mxCell id="jXO-OSJdq2ioLEKXHTDI-49" value="" style="rounded=0;whiteSpace=wrap;html=1;" vertex="1" parent="1">
          <mxGeometry x="290" y="520" width="130" height="40" as="geometry" />
        </mxCell>
        <mxCell id="jXO-OSJdq2ioLEKXHTDI-50" value="" style="rounded=0;whiteSpace=wrap;html=1;" vertex="1" parent="1">
          <mxGeometry x="420" y="520" width="130" height="40" as="geometry" />
        </mxCell>
        <mxCell id="jXO-OSJdq2ioLEKXHTDI-51" value="" style="rounded=0;whiteSpace=wrap;html=1;" vertex="1" parent="1">
          <mxGeometry x="550" y="520" width="130" height="40" as="geometry" />
        </mxCell>
        <mxCell id="jXO-OSJdq2ioLEKXHTDI-52" value="" style="rounded=0;whiteSpace=wrap;html=1;" vertex="1" parent="1">
          <mxGeometry x="160" y="560" width="130" height="40" as="geometry" />
        </mxCell>
        <mxCell id="jXO-OSJdq2ioLEKXHTDI-53" value="" style="rounded=0;whiteSpace=wrap;html=1;" vertex="1" parent="1">
          <mxGeometry x="290" y="560" width="130" height="40" as="geometry" />
        </mxCell>
        <mxCell id="jXO-OSJdq2ioLEKXHTDI-54" value="" style="rounded=0;whiteSpace=wrap;html=1;" vertex="1" parent="1">
          <mxGeometry x="420" y="560" width="130" height="40" as="geometry" />
        </mxCell>
        <mxCell id="jXO-OSJdq2ioLEKXHTDI-55" value="" style="rounded=0;whiteSpace=wrap;html=1;" vertex="1" parent="1">
          <mxGeometry x="550" y="560" width="130" height="40" as="geometry" />
        </mxCell>
        <mxCell id="jXO-OSJdq2ioLEKXHTDI-56" value="" style="rounded=1;whiteSpace=wrap;html=1;" vertex="1" parent="1">
          <mxGeometry x="100" y="480" width="60" height="40" as="geometry" />
        </mxCell>
        <mxCell id="jXO-OSJdq2ioLEKXHTDI-57" value="" style="rounded=1;whiteSpace=wrap;html=1;" vertex="1" parent="1">
          <mxGeometry x="100" y="520" width="60" height="40" as="geometry" />
        </mxCell>
        <mxCell id="jXO-OSJdq2ioLEKXHTDI-58" value="" style="rounded=1;whiteSpace=wrap;html=1;" vertex="1" parent="1">
          <mxGeometry x="100" y="560" width="60" height="40" as="geometry" />
        </mxCell>
      </root>
    </mxGraphModel>
  </diagram>
</mxfile>
